<svg xmlns="http://www.w3.org/2000/svg" xmlns:xlink="http://www.w3.org/1999/xlink" width="500" zoomAndPan="magnify" viewBox="0 0 375 374.999991" height="500" preserveAspectRatio="xMidYMid meet" version="1.0"><defs><clipPath id="9fcb1395bc"><path d="M 28.472656 24.394531 L 351.722656 24.394531 L 351.722656 355.894531 L 28.472656 355.894531 Z M 28.472656 24.394531 " clip-rule="nonzero"/></clipPath><clipPath id="a2e4f63702"><path d="M 28.472656 68 L 351.722656 68 L 351.722656 355.894531 L 28.472656 355.894531 Z M 28.472656 68 " clip-rule="nonzero"/></clipPath><clipPath id="5aecc0ff4c"><path d="M 28.472656 68 L 105 68 L 105 350 L 28.472656 350 Z M 28.472656 68 " clip-rule="nonzero"/></clipPath><clipPath id="a7289c5364"><path d="M 329 68 L 351.722656 68 L 351.722656 335 L 329 335 Z M 329 68 " clip-rule="nonzero"/></clipPath><clipPath id="a4ceff1ba2"><path d="M 10.792969 346.039062 L 14.542969 346.039062 L 14.542969 349.789062 L 10.792969 349.789062 Z M 10.792969 346.039062 " clip-rule="nonzero"/></clipPath><clipPath id="0ab0f9ff10"><path d="M 12.667969 346.039062 C 13.703125 346.039062 14.542969 346.878906 14.542969 347.914062 C 14.542969 348.949219 13.703125 349.789062 12.667969 349.789062 C 11.632812 349.789062 10.792969 348.949219 10.792969 347.914062 C 10.792969 346.878906 11.632812 346.039062 12.667969 346.039062 Z M 12.667969 346.039062 " clip-rule="nonzero"/></clipPath></defs><g clip-path="url(#9fcb1395bc)"><path fill="#c1ff72" d="M 190.035156 24.539062 C 187.390625 24.539062 184.75 24.554688 182.109375 24.589844 C 179.46875 24.625 176.832031 24.679688 174.199219 24.75 C 171.570312 24.820312 168.945312 24.90625 166.328125 25.011719 C 163.714844 25.117188 161.109375 25.238281 158.515625 25.378906 C 155.921875 25.515625 153.34375 25.671875 150.78125 25.847656 C 148.214844 26.019531 145.667969 26.210938 143.136719 26.417969 C 140.605469 26.625 138.097656 26.851562 135.605469 27.089844 C 133.117188 27.332031 130.652344 27.589844 128.207031 27.863281 C 125.765625 28.136719 123.347656 28.425781 120.957031 28.730469 C 118.570312 29.039062 116.207031 29.359375 113.875 29.695312 C 111.542969 30.03125 109.242188 30.382812 106.976562 30.753906 C 104.707031 31.121094 102.472656 31.5 100.277344 31.898438 C 98.078125 32.296875 95.917969 32.707031 93.792969 33.132812 C 91.667969 33.558594 89.585938 34 87.539062 34.453125 C 85.496094 34.90625 83.496094 35.371094 81.535156 35.851562 C 79.578125 36.332031 77.664062 36.824219 75.792969 37.332031 C 73.921875 37.835938 72.101562 38.351562 70.324219 38.882812 C 68.550781 39.414062 66.824219 39.953125 65.144531 40.507812 C 63.46875 41.058594 61.839844 41.621094 60.265625 42.195312 C 58.691406 42.769531 57.167969 43.355469 55.699219 43.949219 C 54.230469 44.542969 52.816406 45.144531 51.457031 45.757812 C 50.097656 46.371094 48.796875 46.996094 47.550781 47.625 C 46.304688 48.253906 45.113281 48.894531 43.984375 49.539062 C 42.851562 50.1875 41.78125 50.839844 40.769531 51.5 C 39.757812 52.160156 38.808594 52.828125 37.917969 53.5 C 37.027344 54.171875 36.195312 54.851562 35.429688 55.535156 C 34.660156 56.21875 33.957031 56.90625 33.3125 57.601562 C 32.671875 58.292969 32.09375 58.992188 31.578125 59.691406 C 31.058594 60.394531 30.609375 61.097656 30.21875 61.804688 C 29.832031 62.511719 29.507812 63.21875 29.25 63.933594 C 28.992188 64.644531 28.796875 65.355469 28.667969 66.070312 C 28.535156 66.785156 28.472656 67.496094 28.472656 68.210938 L 28.472656 126.800781 C 28.476562 129.722656 29.558594 132.617188 31.710938 135.480469 C 33.863281 138.339844 37.046875 141.117188 41.261719 143.808594 C 37.046875 146.5 33.863281 149.277344 31.710938 152.140625 C 29.558594 155.003906 28.476562 157.894531 28.472656 160.816406 L 28.472656 219.40625 C 28.476562 222.328125 29.558594 225.21875 31.710938 228.082031 C 33.863281 230.945312 37.046875 233.722656 41.261719 236.414062 C 37.046875 239.105469 33.863281 241.878906 31.710938 244.742188 C 29.558594 247.605469 28.476562 250.5 28.472656 253.421875 L 28.472656 312.011719 C 28.472656 312.726562 28.535156 313.4375 28.667969 314.152344 C 28.796875 314.867188 28.992188 315.578125 29.25 316.289062 C 29.507812 317.003906 29.832031 317.710938 30.21875 318.417969 C 30.609375 319.125 31.058594 319.828125 31.574219 320.53125 C 32.09375 321.230469 32.671875 321.929688 33.3125 322.621094 C 33.957031 323.316406 34.660156 324.003906 35.429688 324.6875 C 36.195312 325.371094 37.023438 326.050781 37.914062 326.722656 C 38.808594 327.394531 39.757812 328.0625 40.769531 328.722656 C 41.78125 329.382812 42.851562 330.035156 43.984375 330.683594 C 45.113281 331.328125 46.300781 331.96875 47.546875 332.597656 C 48.796875 333.226562 50.097656 333.851562 51.457031 334.460938 C 52.816406 335.074219 54.230469 335.679688 55.699219 336.273438 C 57.167969 336.867188 58.691406 337.453125 60.265625 338.027344 C 61.839844 338.601562 63.46875 339.164062 65.144531 339.714844 C 66.820312 340.269531 68.546875 340.808594 70.324219 341.339844 C 72.101562 341.871094 73.921875 342.386719 75.792969 342.890625 C 77.664062 343.398438 79.578125 343.890625 81.535156 344.371094 C 83.496094 344.851562 85.496094 345.316406 87.539062 345.769531 C 89.585938 346.222656 91.667969 346.664062 93.792969 347.089844 C 95.914062 347.515625 98.078125 347.925781 100.277344 348.324219 C 102.472656 348.71875 104.707031 349.101562 106.976562 349.46875 C 109.242188 349.835938 111.542969 350.191406 113.875 350.527344 C 116.207031 350.863281 118.566406 351.183594 120.957031 351.492188 C 123.347656 351.796875 125.765625 352.085938 128.207031 352.359375 C 130.652344 352.632812 133.117188 352.890625 135.605469 353.132812 C 138.097656 353.371094 140.605469 353.597656 143.136719 353.804688 C 145.667969 354.011719 148.214844 354.203125 150.777344 354.375 C 153.34375 354.546875 155.921875 354.707031 158.515625 354.84375 C 161.109375 354.984375 163.714844 355.105469 166.328125 355.210938 C 168.945312 355.316406 171.570312 355.402344 174.199219 355.472656 C 176.832031 355.542969 179.46875 355.597656 182.109375 355.632812 C 184.75 355.667969 187.390625 355.683594 190.035156 355.683594 C 192.679688 355.683594 195.324219 355.667969 197.964844 355.632812 C 200.605469 355.597656 203.242188 355.542969 205.871094 355.472656 C 208.503906 355.402344 211.128906 355.316406 213.742188 355.210938 C 216.359375 355.105469 218.960938 354.984375 221.554688 354.84375 C 224.148438 354.707031 226.726562 354.546875 229.292969 354.375 C 231.859375 354.203125 234.40625 354.011719 236.9375 353.804688 C 239.464844 353.597656 241.976562 353.371094 244.464844 353.132812 C 246.953125 352.890625 249.421875 352.632812 251.863281 352.359375 C 254.308594 352.085938 256.722656 351.796875 259.113281 351.492188 C 261.503906 351.183594 263.863281 350.863281 266.195312 350.527344 C 268.527344 350.191406 270.828125 349.835938 273.097656 349.46875 C 275.363281 349.101562 277.597656 348.71875 279.796875 348.324219 C 281.996094 347.925781 284.15625 347.515625 286.28125 347.089844 C 288.402344 346.664062 290.488281 346.222656 292.53125 345.769531 C 294.574219 345.316406 296.578125 344.851562 298.535156 344.371094 C 300.496094 343.890625 302.410156 343.398438 304.277344 342.890625 C 306.148438 342.386719 307.972656 341.871094 309.746094 341.339844 C 311.523438 340.808594 313.25 340.269531 314.925781 339.714844 C 316.605469 339.164062 318.230469 338.601562 319.804688 338.027344 C 321.378906 337.453125 322.902344 336.867188 324.371094 336.273438 C 325.839844 335.679688 327.253906 335.074219 328.613281 334.460938 C 329.972656 333.851562 331.277344 333.226562 332.523438 332.597656 C 333.769531 331.96875 334.957031 331.328125 336.085938 330.683594 C 337.21875 330.035156 338.289062 329.382812 339.300781 328.722656 C 340.3125 328.0625 341.265625 327.394531 342.15625 326.722656 C 343.046875 326.050781 343.875 325.371094 344.640625 324.6875 C 345.410156 324.003906 346.113281 323.316406 346.757812 322.621094 C 347.398438 321.929688 347.980469 321.230469 348.496094 320.53125 C 349.011719 319.828125 349.460938 319.125 349.851562 318.417969 C 350.238281 317.710938 350.5625 317.003906 350.820312 316.289062 C 351.082031 315.578125 351.273438 314.867188 351.40625 314.152344 C 351.535156 313.4375 351.597656 312.726562 351.597656 312.011719 L 351.597656 253.433594 C 351.601562 253.429688 351.601562 253.425781 351.601562 253.421875 C 351.597656 250.5 350.523438 247.605469 348.375 244.746094 C 346.226562 241.882812 343.046875 239.105469 338.839844 236.414062 C 343.050781 233.722656 346.230469 230.945312 348.375 228.082031 C 350.523438 225.21875 351.597656 222.328125 351.597656 219.40625 L 351.597656 160.828125 C 351.601562 160.824219 351.601562 160.820312 351.601562 160.816406 C 351.597656 157.894531 350.523438 155.003906 348.375 152.140625 C 346.226562 149.277344 343.046875 146.5 338.839844 143.808594 C 343.050781 141.121094 346.230469 138.34375 348.375 135.476562 C 350.523438 132.613281 351.597656 129.722656 351.597656 126.800781 L 351.597656 68.222656 C 351.601562 68.21875 351.601562 68.214844 351.601562 68.210938 C 351.601562 67.496094 351.535156 66.785156 351.40625 66.070312 C 351.277344 65.355469 351.082031 64.644531 350.824219 63.933594 C 350.5625 63.21875 350.238281 62.511719 349.851562 61.804688 C 349.464844 61.097656 349.011719 60.394531 348.496094 59.691406 C 347.980469 58.992188 347.402344 58.292969 346.757812 57.601562 C 346.117188 56.90625 345.410156 56.21875 344.644531 55.535156 C 343.875 54.851562 343.046875 54.171875 342.15625 53.5 C 341.265625 52.828125 340.3125 52.160156 339.300781 51.5 C 338.289062 50.839844 337.21875 50.1875 336.089844 49.539062 C 334.957031 48.894531 333.769531 48.253906 332.523438 47.625 C 331.277344 46.996094 329.972656 46.371094 328.613281 45.757812 C 327.253906 45.148438 325.839844 44.542969 324.371094 43.949219 C 322.902344 43.355469 321.382812 42.769531 319.804688 42.195312 C 318.230469 41.621094 316.605469 41.058594 314.925781 40.507812 C 313.25 39.953125 311.523438 39.414062 309.746094 38.882812 C 307.972656 38.351562 306.148438 37.835938 304.28125 37.332031 C 302.410156 36.824219 300.496094 36.332031 298.535156 35.851562 C 296.578125 35.371094 294.574219 34.90625 292.53125 34.453125 C 290.488281 34 288.402344 33.558594 286.28125 33.132812 C 284.15625 32.707031 281.996094 32.296875 279.796875 31.898438 C 277.597656 31.5 275.367188 31.121094 273.097656 30.753906 C 270.828125 30.382812 268.53125 30.03125 266.199219 29.695312 C 263.867188 29.359375 261.503906 29.039062 259.113281 28.730469 C 256.722656 28.425781 254.308594 28.136719 251.863281 27.863281 C 249.421875 27.589844 246.957031 27.332031 244.464844 27.089844 C 241.976562 26.851562 239.464844 26.625 236.9375 26.417969 C 234.40625 26.210938 231.859375 26.019531 229.292969 25.847656 C 226.730469 25.671875 224.148438 25.515625 221.554688 25.378906 C 218.960938 25.238281 216.359375 25.117188 213.742188 25.011719 C 211.128906 24.90625 208.503906 24.820312 205.871094 24.75 C 203.242188 24.679688 200.605469 24.625 197.964844 24.589844 C 195.324219 24.554688 192.679688 24.539062 190.035156 24.539062 Z M 351.597656 68.230469 C 351.597656 69.167969 351.484375 70.101562 351.257812 71.039062 C 351.484375 70.101562 351.597656 69.167969 351.597656 68.230469 Z M 351.25 71.085938 C 351.019531 72.019531 350.679688 72.949219 350.230469 73.875 C 350.679688 72.949219 351.019531 72.019531 351.25 71.085938 Z M 350.207031 73.933594 C 349.757812 74.847656 349.199219 75.757812 348.539062 76.664062 C 349.199219 75.757812 349.757812 74.847656 350.207031 73.933594 Z M 348.460938 76.773438 C 347.792969 77.671875 347.023438 78.566406 346.148438 79.453125 C 347.023438 78.566406 347.792969 77.671875 348.460938 76.773438 Z M 346.054688 79.554688 C 345.171875 80.4375 344.191406 81.308594 343.109375 82.175781 C 344.191406 81.308594 345.171875 80.4375 346.054688 79.554688 Z M 37.046875 82.25 C 39.316406 84.058594 42.011719 85.816406 45.132812 87.527344 C 42.011719 85.816406 39.316406 84.058594 37.046875 82.25 Z M 342.957031 82.300781 C 341.867188 83.167969 340.671875 84.023438 339.378906 84.867188 C 340.671875 84.023438 341.867188 83.167969 342.957031 82.300781 Z M 339.238281 84.960938 C 337.933594 85.8125 336.53125 86.648438 335.035156 87.472656 C 336.53125 86.648438 337.933594 85.8125 339.238281 84.960938 Z M 334.859375 87.570312 C 333.367188 88.382812 331.789062 89.183594 330.113281 89.96875 C 331.789062 89.183594 333.367188 88.382812 334.859375 87.570312 Z M 329.808594 90.113281 C 328.144531 90.890625 326.394531 91.648438 324.554688 92.398438 C 326.394531 91.648438 328.144531 90.890625 329.808594 90.113281 Z M 324.210938 92.539062 C 322.363281 93.28125 320.429688 94.011719 318.417969 94.722656 C 320.429688 94.011719 322.363281 93.28125 324.210938 92.539062 Z M 318.019531 94.863281 C 315.984375 95.578125 313.871094 96.273438 311.679688 96.953125 C 313.871094 96.273438 315.984375 95.578125 318.019531 94.863281 Z M 311.324219 97.0625 C 309.121094 97.738281 306.84375 98.394531 304.488281 99.035156 C 306.84375 98.394531 309.121094 97.738281 311.324219 97.0625 Z M 304.054688 99.152344 C 301.703125 99.785156 299.28125 100.398438 296.789062 100.992188 C 299.28125 100.398438 301.703125 99.785156 304.054688 99.152344 Z M 296.304688 101.105469 C 293.796875 101.699219 291.222656 102.269531 288.585938 102.816406 C 291.222656 102.269531 293.796875 101.699219 296.304688 101.105469 Z M 288.167969 102.902344 C 285.527344 103.449219 282.824219 103.972656 280.0625 104.476562 C 282.824219 103.972656 285.527344 103.449219 288.167969 102.902344 Z M 100.277344 104.527344 C 106.144531 105.585938 112.246094 106.539062 118.578125 107.382812 C 112.246094 106.539062 106.144531 105.585938 100.277344 104.527344 Z M 279.472656 104.582031 C 276.691406 105.082031 273.851562 105.558594 270.960938 106.011719 C 273.851562 105.558594 276.691406 105.082031 279.472656 104.582031 Z M 270.644531 106.058594 C 267.703125 106.515625 264.714844 106.949219 261.675781 107.355469 C 264.714844 106.949219 267.703125 106.515625 270.644531 106.058594 Z M 261.238281 107.414062 C 258.21875 107.8125 255.15625 108.191406 252.046875 108.539062 C 255.15625 108.191406 258.21875 107.8125 261.238281 107.414062 Z M 251.582031 108.589844 C 248.492188 108.933594 245.363281 109.253906 242.199219 109.546875 C 245.363281 109.253906 248.492188 108.933594 251.582031 108.589844 Z M 241.621094 109.597656 C 238.429688 109.886719 235.207031 110.152344 231.957031 110.390625 C 235.207031 110.152344 238.429688 109.886719 241.621094 109.597656 Z M 231.691406 110.410156 C 228.382812 110.648438 225.054688 110.855469 221.699219 111.039062 C 225.054688 110.855469 228.382812 110.648438 231.691406 110.410156 Z M 221.3125 111.058594 C 217.933594 111.238281 214.539062 111.390625 211.125 111.511719 C 207.640625 111.636719 204.144531 111.730469 200.640625 111.789062 C 204.144531 111.730469 207.640625 111.636719 211.125 111.511719 C 214.539062 111.390625 217.933594 111.238281 221.3125 111.058594 Z M 158.980469 111.066406 C 165.664062 111.421875 172.398438 111.660156 179.191406 111.785156 C 172.398438 111.660156 165.664062 111.421875 158.980469 111.066406 Z M 200.53125 111.792969 C 197.039062 111.855469 193.539062 111.886719 190.035156 111.886719 C 193.539062 111.886719 197.039062 111.855469 200.53125 111.792969 Z M 351.597656 160.832031 C 351.597656 161.769531 351.484375 162.707031 351.257812 163.644531 C 351.484375 162.707031 351.597656 161.769531 351.597656 160.832031 Z M 351.25 163.6875 C 351.019531 164.621094 350.679688 165.550781 350.230469 166.480469 C 350.679688 165.550781 351.019531 164.621094 351.25 163.6875 Z M 350.207031 166.539062 C 349.753906 167.457031 349.195312 168.371094 348.53125 169.277344 C 349.195312 168.371094 349.753906 167.457031 350.207031 166.539062 Z M 348.464844 169.371094 C 347.796875 170.273438 347.023438 171.171875 346.148438 172.058594 C 347.023438 171.171875 347.796875 170.273438 348.464844 169.371094 Z M 346.054688 172.160156 C 345.171875 173.042969 344.191406 173.917969 343.105469 174.785156 C 344.191406 173.917969 345.171875 173.042969 346.054688 172.160156 Z M 342.960938 174.902344 C 341.871094 175.765625 340.683594 176.617188 339.394531 177.460938 C 340.683594 176.617188 341.871094 175.765625 342.960938 174.902344 Z M 339.222656 177.578125 C 337.929688 178.417969 336.539062 179.246094 335.054688 180.066406 C 336.539062 179.246094 337.929688 178.417969 339.222656 177.578125 Z M 334.835938 180.183594 C 333.34375 181 331.753906 181.804688 330.074219 182.59375 C 331.753906 181.804688 333.34375 181 334.835938 180.183594 Z M 329.847656 182.699219 C 328.164062 183.484375 326.390625 184.257812 324.53125 185.011719 C 326.390625 184.257812 328.164062 183.484375 329.847656 182.699219 Z M 324.222656 185.136719 C 322.363281 185.886719 320.417969 186.621094 318.390625 187.335938 C 320.417969 186.621094 322.363281 185.886719 324.222656 185.136719 Z M 318.039062 187.460938 C 316.007812 188.171875 313.902344 188.867188 311.714844 189.542969 C 313.902344 188.867188 316.007812 188.171875 318.039062 187.460938 Z M 311.300781 189.671875 C 309.105469 190.347656 306.832031 191.003906 304.488281 191.636719 C 306.832031 191.003906 309.105469 190.347656 311.300781 189.671875 Z M 304.054688 191.757812 C 301.695312 192.390625 299.261719 193.007812 296.757812 193.601562 C 299.261719 193.007812 301.695312 192.390625 304.054688 191.757812 Z M 296.351562 193.699219 C 293.839844 194.292969 291.257812 194.863281 288.613281 195.414062 C 291.257812 194.863281 293.839844 194.292969 296.351562 193.699219 Z M 288.121094 195.519531 C 285.464844 196.066406 282.746094 196.59375 279.96875 197.097656 C 282.746094 196.59375 285.464844 196.066406 288.121094 195.519531 Z M 279.585938 197.164062 C 276.777344 197.671875 273.910156 198.152344 270.988281 198.609375 C 273.910156 198.152344 276.777344 197.671875 279.585938 197.164062 Z M 270.59375 198.671875 C 267.667969 199.125 264.695312 199.554688 261.675781 199.960938 C 264.695312 199.554688 267.667969 199.125 270.59375 198.671875 Z M 261.242188 200.019531 C 258.214844 200.417969 255.144531 200.796875 252.027344 201.144531 C 255.144531 200.796875 258.214844 200.417969 261.242188 200.019531 Z M 251.632812 201.1875 C 248.488281 201.539062 245.308594 201.863281 242.085938 202.160156 C 245.308594 201.863281 248.488281 201.539062 251.632812 201.1875 Z M 241.789062 202.1875 C 238.546875 202.484375 235.277344 202.753906 231.972656 202.992188 C 235.277344 202.753906 238.546875 202.484375 241.789062 202.1875 Z M 148.21875 203.003906 C 154.886719 203.484375 161.640625 203.847656 168.480469 204.097656 C 161.640625 203.847656 154.886719 203.484375 148.21875 203.003906 Z M 231.652344 203.015625 C 228.320312 203.253906 224.964844 203.46875 221.582031 203.648438 C 224.964844 203.46875 228.320312 203.253906 231.652344 203.015625 Z M 221.507812 203.652344 C 218.09375 203.835938 214.660156 203.988281 211.210938 204.113281 C 214.660156 203.988281 218.09375 203.835938 221.507812 203.652344 Z M 210.96875 204.121094 C 207.539062 204.242188 204.09375 204.335938 200.640625 204.394531 C 204.09375 204.335938 207.539062 204.242188 210.96875 204.121094 Z M 200.535156 204.398438 C 197.039062 204.460938 193.539062 204.492188 190.035156 204.492188 C 193.539062 204.492188 197.039062 204.460938 200.535156 204.398438 Z M 351.597656 253.4375 C 351.597656 254.375 351.484375 255.308594 351.257812 256.246094 C 351.484375 255.308594 351.597656 254.375 351.597656 253.4375 Z M 351.246094 256.296875 C 351.019531 257.226562 350.679688 258.15625 350.230469 259.085938 C 350.679688 258.15625 351.019531 257.226562 351.246094 256.296875 Z M 350.207031 259.140625 C 349.753906 260.058594 349.199219 260.972656 348.53125 261.882812 C 349.199219 260.972656 349.753906 260.058594 350.207031 259.140625 Z M 348.464844 261.976562 C 347.796875 262.882812 347.019531 263.78125 346.136719 264.675781 C 347.019531 263.78125 347.796875 262.882812 348.464844 261.976562 Z M 346.0625 264.753906 C 345.179688 265.640625 344.195312 266.519531 343.105469 267.390625 C 344.195312 266.519531 345.179688 265.640625 346.0625 264.753906 Z M 342.960938 267.507812 C 341.875 268.367188 340.6875 269.21875 339.402344 270.0625 C 340.6875 269.21875 341.875 268.367188 342.960938 267.507812 Z M 339.21875 270.183594 C 337.917969 271.027344 336.523438 271.859375 335.035156 272.679688 C 336.523438 271.859375 337.917969 271.027344 339.21875 270.183594 Z M 334.859375 272.777344 C 333.367188 273.589844 331.789062 274.390625 330.113281 275.175781 C 331.789062 274.390625 333.367188 273.589844 334.859375 272.777344 Z M 329.808594 275.320312 C 328.136719 276.101562 326.378906 276.867188 324.53125 277.617188 C 326.378906 276.867188 328.136719 276.101562 329.808594 275.320312 Z M 324.222656 277.742188 C 322.371094 278.488281 320.4375 279.21875 318.417969 279.929688 C 320.4375 279.21875 322.371094 278.488281 324.222656 277.742188 Z M 318.019531 280.070312 C 315.984375 280.785156 313.871094 281.480469 311.679688 282.160156 C 313.871094 281.480469 315.984375 280.785156 318.019531 280.070312 Z M 311.324219 282.269531 C 309.121094 282.945312 306.84375 283.605469 304.488281 284.242188 C 306.84375 283.605469 309.121094 282.945312 311.324219 282.269531 Z M 304.054688 284.359375 C 301.703125 284.992188 299.28125 285.605469 296.789062 286.199219 C 299.28125 285.605469 301.703125 284.992188 304.054688 284.359375 Z M 296.304688 286.3125 C 293.796875 286.90625 291.222656 287.476562 288.585938 288.027344 C 291.222656 287.476562 293.796875 286.90625 296.304688 286.3125 Z M 288.167969 288.113281 C 285.527344 288.660156 282.824219 289.183594 280.0625 289.683594 C 282.824219 289.183594 285.527344 288.660156 288.167969 288.113281 Z M 279.46875 289.789062 C 276.722656 290.285156 273.917969 290.753906 271.0625 291.203125 C 273.917969 290.753906 276.722656 290.285156 279.46875 289.789062 Z M 109.253906 291.246094 C 115.367188 292.199219 121.6875 293.039062 128.207031 293.769531 C 121.6875 293.039062 115.367188 292.199219 109.253906 291.246094 Z M 270.519531 291.289062 C 267.613281 291.738281 264.65625 292.164062 261.652344 292.566406 C 264.65625 292.164062 267.613281 291.738281 270.519531 291.289062 Z M 261.292969 292.613281 C 258.253906 293.019531 255.171875 293.394531 252.046875 293.746094 C 255.171875 293.394531 258.253906 293.019531 261.292969 292.613281 Z M 251.582031 293.800781 C 248.484375 294.144531 245.351562 294.464844 242.183594 294.757812 C 245.351562 294.464844 248.484375 294.144531 251.582031 293.800781 Z M 138.101562 294.777344 C 144.589844 295.371094 151.191406 295.851562 157.90625 296.214844 C 151.191406 295.851562 144.589844 295.371094 138.101562 294.777344 Z M 241.671875 294.800781 C 238.464844 295.09375 235.226562 295.359375 231.957031 295.597656 C 235.226562 295.359375 238.464844 295.09375 241.671875 294.800781 Z M 231.691406 295.617188 C 228.382812 295.855469 225.046875 296.066406 221.6875 296.246094 C 225.046875 296.066406 228.382812 295.855469 231.691406 295.617188 Z M 221.347656 296.265625 C 217.957031 296.445312 214.550781 296.597656 211.125 296.71875 C 204.125 296.96875 197.097656 297.09375 190.035156 297.09375 C 179.585938 297.09375 169.234375 296.820312 158.980469 296.277344 C 169.234375 296.820312 179.585938 297.09375 190.035156 297.09375 C 197.097656 297.09375 204.125 296.96875 211.125 296.71875 C 214.550781 296.597656 217.957031 296.445312 221.347656 296.265625 Z M 221.347656 296.265625 " fill-opacity="1" fill-rule="nonzero"/></g><g clip-path="url(#a2e4f63702)"><path fill="#7ed957" d="M 28.472656 68.210938 L 28.472656 126.800781 C 28.472656 127.515625 28.535156 128.230469 28.667969 128.945312 C 28.796875 129.660156 28.992188 130.371094 29.25 131.082031 C 29.507812 131.792969 29.832031 132.503906 30.21875 133.210938 C 30.609375 133.917969 31.058594 134.621094 31.574219 135.320312 C 32.09375 136.023438 32.671875 136.71875 33.3125 137.414062 C 33.957031 138.105469 34.660156 138.796875 35.429688 139.480469 C 36.195312 140.164062 37.023438 140.839844 37.914062 141.515625 C 38.808594 142.1875 39.757812 142.855469 40.769531 143.515625 C 41.78125 144.175781 42.851562 144.828125 43.984375 145.472656 C 45.113281 146.121094 46.300781 146.757812 47.546875 147.390625 C 48.796875 148.019531 50.097656 148.640625 51.457031 149.253906 C 52.816406 149.867188 54.230469 150.472656 55.699219 151.066406 C 57.167969 151.660156 58.691406 152.242188 60.265625 152.816406 C 61.839844 153.390625 63.46875 153.957031 65.144531 154.507812 C 66.820312 155.058594 68.546875 155.601562 70.324219 156.132812 C 72.101562 156.660156 73.921875 157.179688 75.792969 157.683594 C 77.664062 158.1875 79.578125 158.683594 81.535156 159.160156 C 83.496094 159.640625 85.496094 160.109375 87.539062 160.5625 C 89.585938 161.015625 91.667969 161.453125 93.792969 161.878906 C 95.914062 162.304688 98.078125 162.71875 100.277344 163.113281 C 102.472656 163.511719 104.707031 163.894531 106.976562 164.261719 C 109.242188 164.628906 111.542969 164.980469 113.875 165.320312 C 116.207031 165.65625 118.566406 165.976562 120.957031 166.28125 C 123.347656 166.585938 125.765625 166.878906 128.207031 167.152344 C 130.652344 167.425781 133.117188 167.679688 135.605469 167.921875 C 138.097656 168.164062 140.605469 168.386719 143.136719 168.59375 C 145.667969 168.800781 148.214844 168.992188 150.777344 169.167969 C 153.34375 169.339844 155.921875 169.496094 158.515625 169.636719 C 161.109375 169.777344 163.714844 169.898438 166.328125 170.003906 C 168.945312 170.109375 171.570312 170.195312 174.199219 170.265625 C 176.832031 170.335938 179.46875 170.386719 182.109375 170.421875 C 184.75 170.457031 187.390625 170.476562 190.035156 170.476562 C 192.679688 170.476562 195.324219 170.457031 197.964844 170.421875 C 200.605469 170.386719 203.242188 170.335938 205.871094 170.265625 C 208.503906 170.195312 211.128906 170.109375 213.742188 170.003906 C 216.359375 169.898438 218.960938 169.777344 221.554688 169.636719 C 224.148438 169.496094 226.726562 169.339844 229.292969 169.167969 C 231.859375 168.992188 234.40625 168.800781 236.9375 168.59375 C 239.464844 168.386719 241.976562 168.164062 244.464844 167.921875 C 246.953125 167.679688 249.421875 167.425781 251.863281 167.152344 C 254.308594 166.878906 256.722656 166.585938 259.113281 166.28125 C 261.503906 165.976562 263.863281 165.65625 266.195312 165.320312 C 268.527344 164.980469 270.828125 164.628906 273.097656 164.261719 C 275.363281 163.894531 277.597656 163.511719 279.796875 163.113281 C 281.996094 162.71875 284.15625 162.304688 286.28125 161.878906 C 288.402344 161.453125 290.488281 161.015625 292.53125 160.5625 C 294.574219 160.109375 296.578125 159.640625 298.535156 159.160156 C 300.496094 158.683594 302.410156 158.1875 304.277344 157.683594 C 306.148438 157.179688 307.972656 156.660156 309.746094 156.132812 C 311.523438 155.601562 313.25 155.058594 314.925781 154.507812 C 316.605469 153.957031 318.230469 153.390625 319.804688 152.816406 C 321.378906 152.242188 322.902344 151.660156 324.371094 151.066406 C 325.839844 150.472656 327.253906 149.867188 328.613281 149.253906 C 329.972656 148.640625 331.277344 148.019531 332.523438 147.390625 C 333.769531 146.757812 334.957031 146.121094 336.085938 145.472656 C 337.21875 144.828125 338.289062 144.175781 339.300781 143.515625 C 340.3125 142.855469 341.265625 142.1875 342.15625 141.515625 C 343.046875 140.839844 343.875 140.164062 344.640625 139.480469 C 345.410156 138.796875 346.113281 138.105469 346.757812 137.414062 C 347.398438 136.71875 347.980469 136.023438 348.496094 135.320312 C 349.011719 134.621094 349.460938 133.917969 349.851562 133.210938 C 350.238281 132.503906 350.5625 131.792969 350.820312 131.082031 C 351.082031 130.371094 351.273438 129.660156 351.40625 128.945312 C 351.535156 128.230469 351.597656 127.515625 351.597656 126.800781 L 351.597656 68.210938 C 351.597656 68.925781 351.535156 69.640625 351.40625 70.355469 C 351.273438 71.070312 351.082031 71.78125 350.820312 72.492188 C 350.5625 73.203125 350.238281 73.914062 349.851562 74.621094 C 349.460938 75.328125 349.011719 76.03125 348.496094 76.734375 C 347.980469 77.433594 347.398438 78.132812 346.757812 78.824219 C 346.113281 79.519531 345.410156 80.207031 344.640625 80.890625 C 343.875 81.574219 343.046875 82.253906 342.15625 82.925781 C 341.265625 83.597656 340.3125 84.265625 339.300781 84.925781 C 338.289062 85.585938 337.21875 86.238281 336.085938 86.886719 C 334.957031 87.53125 333.769531 88.171875 332.523438 88.800781 C 331.277344 89.429688 329.972656 90.050781 328.613281 90.664062 C 327.253906 91.277344 325.839844 91.882812 324.371094 92.476562 C 322.902344 93.070312 321.378906 93.65625 319.804688 94.230469 C 318.230469 94.804688 316.605469 95.367188 314.925781 95.917969 C 313.25 96.472656 311.523438 97.011719 309.746094 97.542969 C 307.972656 98.070312 306.148438 98.589844 304.277344 99.09375 C 302.410156 99.601562 300.496094 100.09375 298.535156 100.574219 C 296.578125 101.054688 294.574219 101.519531 292.53125 101.972656 C 290.488281 102.425781 288.402344 102.867188 286.28125 103.292969 C 284.15625 103.71875 281.996094 104.128906 279.796875 104.527344 C 277.597656 104.921875 275.363281 105.304688 273.097656 105.671875 C 270.828125 106.039062 268.527344 106.394531 266.195312 106.730469 C 263.863281 107.066406 261.503906 107.386719 259.113281 107.695312 C 256.722656 108 254.308594 108.289062 251.863281 108.5625 C 249.421875 108.835938 246.953125 109.09375 244.464844 109.332031 C 241.976562 109.574219 239.464844 109.796875 236.9375 110.007812 C 234.40625 110.214844 231.859375 110.402344 229.292969 110.578125 C 226.726562 110.75 224.148438 110.90625 221.554688 111.046875 C 218.960938 111.1875 216.359375 111.308594 213.742188 111.414062 C 211.128906 111.519531 208.503906 111.605469 205.871094 111.675781 C 203.242188 111.746094 200.605469 111.800781 197.964844 111.835938 C 195.324219 111.867188 192.679688 111.886719 190.035156 111.886719 C 187.390625 111.886719 184.75 111.867188 182.109375 111.835938 C 179.46875 111.800781 176.832031 111.746094 174.199219 111.675781 C 171.570312 111.605469 168.945312 111.519531 166.328125 111.414062 C 163.714844 111.308594 161.109375 111.1875 158.515625 111.046875 C 155.921875 110.90625 153.34375 110.75 150.78125 110.578125 C 148.214844 110.402344 145.667969 110.214844 143.136719 110.007812 C 140.605469 109.796875 138.097656 109.574219 135.605469 109.332031 C 133.117188 109.09375 130.652344 108.835938 128.207031 108.5625 C 125.765625 108.289062 123.347656 108 120.957031 107.695312 C 118.570312 107.386719 116.207031 107.066406 113.875 106.730469 C 111.542969 106.394531 109.242188 106.039062 106.976562 105.671875 C 104.707031 105.304688 102.472656 104.921875 100.277344 104.527344 C 98.078125 104.128906 95.917969 103.71875 93.792969 103.292969 C 91.667969 102.867188 89.585938 102.425781 87.539062 101.972656 C 85.496094 101.519531 83.496094 101.054688 81.535156 100.574219 C 79.578125 100.09375 77.664062 99.601562 75.792969 99.09375 C 73.921875 98.589844 72.101562 98.070312 70.324219 97.542969 C 68.550781 97.011719 66.824219 96.472656 65.144531 95.917969 C 63.46875 95.367188 61.839844 94.804688 60.265625 94.230469 C 58.691406 93.65625 57.167969 93.070312 55.699219 92.476562 C 54.230469 91.882812 52.816406 91.277344 51.457031 90.664062 C 50.097656 90.050781 48.796875 89.429688 47.550781 88.800781 C 46.304688 88.171875 45.113281 87.53125 43.984375 86.886719 C 42.851562 86.238281 41.78125 85.585938 40.769531 84.925781 C 39.757812 84.265625 38.808594 83.597656 37.917969 82.925781 C 37.027344 82.253906 36.195312 81.574219 35.429688 80.890625 C 34.660156 80.207031 33.957031 79.519531 33.3125 78.824219 C 32.671875 78.132812 32.09375 77.433594 31.578125 76.734375 C 31.058594 76.03125 30.609375 75.328125 30.21875 74.621094 C 29.832031 73.914062 29.507812 73.203125 29.25 72.492188 C 28.992188 71.78125 28.796875 71.070312 28.667969 70.355469 C 28.535156 69.640625 28.472656 68.925781 28.472656 68.210938 Z M 28.472656 160.816406 L 28.472656 219.40625 C 28.472656 220.121094 28.535156 220.835938 28.667969 221.546875 C 28.796875 222.261719 28.992188 222.972656 29.25 223.6875 C 29.507812 224.398438 29.832031 225.105469 30.21875 225.8125 C 30.609375 226.519531 31.058594 227.222656 31.574219 227.925781 C 32.09375 228.625 32.671875 229.324219 33.3125 230.015625 C 33.957031 230.710938 34.660156 231.398438 35.429688 232.082031 C 36.195312 232.765625 37.023438 233.445312 37.914062 234.117188 C 38.808594 234.792969 39.757812 235.457031 40.769531 236.117188 C 41.78125 236.777344 42.851562 237.433594 43.984375 238.078125 C 45.113281 238.722656 46.300781 239.363281 47.546875 239.992188 C 48.796875 240.625 50.097656 241.246094 51.457031 241.859375 C 52.816406 242.472656 54.230469 243.074219 55.699219 243.667969 C 57.167969 244.261719 58.691406 244.847656 60.265625 245.421875 C 61.839844 245.996094 63.46875 246.558594 65.144531 247.113281 C 66.820312 247.664062 68.546875 248.203125 70.324219 248.734375 C 72.101562 249.265625 73.921875 249.78125 75.792969 250.289062 C 77.664062 250.792969 79.578125 251.285156 81.535156 251.765625 C 83.496094 252.246094 85.496094 252.710938 87.539062 253.164062 C 89.585938 253.617188 91.667969 254.058594 93.792969 254.484375 C 95.914062 254.910156 98.078125 255.320312 100.277344 255.71875 C 102.472656 256.117188 104.707031 256.496094 106.976562 256.867188 C 109.242188 257.234375 111.542969 257.585938 113.875 257.921875 C 116.207031 258.257812 118.566406 258.582031 120.957031 258.886719 C 123.347656 259.191406 125.765625 259.480469 128.207031 259.753906 C 130.652344 260.027344 133.117188 260.285156 135.605469 260.527344 C 138.097656 260.765625 140.605469 260.992188 143.136719 261.199219 C 145.667969 261.40625 148.214844 261.597656 150.777344 261.769531 C 153.34375 261.945312 155.921875 262.101562 158.515625 262.238281 C 161.109375 262.378906 163.714844 262.5 166.328125 262.605469 C 168.945312 262.710938 171.570312 262.796875 174.199219 262.867188 C 176.832031 262.9375 179.46875 262.992188 182.109375 263.027344 C 184.75 263.0625 187.390625 263.078125 190.035156 263.078125 C 192.679688 263.078125 195.324219 263.0625 197.964844 263.027344 C 200.605469 262.992188 203.242188 262.9375 205.871094 262.867188 C 208.503906 262.796875 211.128906 262.710938 213.742188 262.605469 C 216.359375 262.5 218.960938 262.378906 221.554688 262.238281 C 224.148438 262.101562 226.726562 261.945312 229.292969 261.769531 C 231.859375 261.597656 234.40625 261.40625 236.9375 261.199219 C 239.464844 260.992188 241.976562 260.765625 244.464844 260.527344 C 246.953125 260.285156 249.421875 260.027344 251.863281 259.753906 C 254.308594 259.480469 256.722656 259.191406 259.113281 258.886719 C 261.503906 258.582031 263.863281 258.257812 266.195312 257.921875 C 268.527344 257.585938 270.828125 257.234375 273.097656 256.867188 C 275.363281 256.496094 277.597656 256.117188 279.796875 255.71875 C 281.996094 255.320312 284.15625 254.910156 286.28125 254.484375 C 288.402344 254.058594 290.488281 253.617188 292.53125 253.164062 C 294.574219 252.710938 296.578125 252.246094 298.535156 251.765625 C 300.496094 251.285156 302.410156 250.792969 304.277344 250.289062 C 306.148438 249.78125 307.972656 249.265625 309.746094 248.734375 C 311.523438 248.203125 313.25 247.664062 314.925781 247.113281 C 316.605469 246.558594 318.230469 245.996094 319.804688 245.421875 C 321.378906 244.847656 322.902344 244.261719 324.371094 243.667969 C 325.839844 243.074219 327.253906 242.472656 328.613281 241.859375 C 329.972656 241.246094 331.277344 240.625 332.523438 239.992188 C 333.769531 239.363281 334.957031 238.722656 336.085938 238.078125 C 337.21875 237.433594 338.289062 236.777344 339.300781 236.117188 C 340.3125 235.457031 341.265625 234.792969 342.15625 234.117188 C 343.046875 233.445312 343.875 232.765625 344.640625 232.082031 C 345.410156 231.398438 346.113281 230.710938 346.757812 230.015625 C 347.398438 229.324219 347.980469 228.625 348.496094 227.925781 C 349.011719 227.222656 349.460938 226.519531 349.851562 225.8125 C 350.238281 225.105469 350.5625 224.398438 350.820312 223.6875 C 351.082031 222.972656 351.273438 222.261719 351.40625 221.546875 C 351.535156 220.835938 351.597656 220.121094 351.597656 219.40625 L 351.597656 160.816406 C 351.597656 161.53125 351.535156 162.246094 351.40625 162.960938 C 351.273438 163.671875 351.082031 164.386719 350.820312 165.097656 C 350.5625 165.808594 350.238281 166.515625 349.851562 167.222656 C 349.460938 167.929688 349.011719 168.636719 348.496094 169.335938 C 347.980469 170.039062 347.398438 170.734375 346.757812 171.429688 C 346.113281 172.121094 345.410156 172.808594 344.640625 173.492188 C 343.875 174.179688 343.046875 174.855469 342.15625 175.53125 C 341.265625 176.203125 340.3125 176.871094 339.300781 177.53125 C 338.289062 178.191406 337.21875 178.84375 336.085938 179.488281 C 334.957031 180.136719 333.769531 180.773438 332.523438 181.402344 C 331.277344 182.035156 329.972656 182.65625 328.613281 183.269531 C 327.253906 183.882812 325.839844 184.484375 324.371094 185.082031 C 322.902344 185.675781 321.378906 186.257812 319.804688 186.832031 C 318.230469 187.40625 316.605469 187.96875 314.925781 188.523438 C 313.25 189.074219 311.523438 189.617188 309.746094 190.144531 C 307.972656 190.675781 306.148438 191.191406 304.277344 191.699219 C 302.410156 192.203125 300.496094 192.695312 298.535156 193.175781 C 296.578125 193.65625 294.574219 194.125 292.53125 194.578125 C 290.488281 195.03125 288.402344 195.46875 286.28125 195.894531 C 284.15625 196.320312 281.996094 196.734375 279.796875 197.128906 C 277.597656 197.527344 275.363281 197.910156 273.097656 198.277344 C 270.828125 198.644531 268.527344 198.996094 266.195312 199.332031 C 263.863281 199.671875 261.503906 199.992188 259.113281 200.296875 C 256.722656 200.601562 254.308594 200.890625 251.863281 201.164062 C 249.421875 201.4375 246.953125 201.695312 244.464844 201.9375 C 241.976562 202.179688 239.464844 202.402344 236.9375 202.609375 C 234.40625 202.816406 231.859375 203.007812 229.292969 203.179688 C 226.726562 203.355469 224.148438 203.511719 221.554688 203.652344 C 218.960938 203.789062 216.359375 203.914062 213.742188 204.015625 C 211.128906 204.121094 208.503906 204.210938 205.871094 204.28125 C 203.242188 204.351562 200.605469 204.402344 197.964844 204.4375 C 195.324219 204.472656 192.679688 204.492188 190.035156 204.492188 C 187.390625 204.492188 184.75 204.472656 182.109375 204.4375 C 179.46875 204.402344 176.832031 204.351562 174.199219 204.28125 C 171.570312 204.210938 168.945312 204.121094 166.328125 204.019531 C 163.714844 203.914062 161.109375 203.789062 158.515625 203.652344 C 155.921875 203.511719 153.34375 203.355469 150.78125 203.179688 C 148.214844 203.007812 145.667969 202.816406 143.136719 202.609375 C 140.605469 202.402344 138.097656 202.179688 135.605469 201.9375 C 133.117188 201.695312 130.652344 201.4375 128.207031 201.164062 C 125.765625 200.890625 123.347656 200.601562 120.957031 200.296875 C 118.570312 199.992188 116.207031 199.671875 113.875 199.332031 C 111.542969 198.996094 109.242188 198.644531 106.976562 198.277344 C 104.707031 197.910156 102.472656 197.527344 100.277344 197.128906 C 98.078125 196.734375 95.917969 196.320312 93.792969 195.894531 C 91.667969 195.46875 89.585938 195.03125 87.539062 194.578125 C 85.496094 194.125 83.496094 193.65625 81.535156 193.175781 C 79.578125 192.695312 77.664062 192.203125 75.792969 191.699219 C 73.921875 191.191406 72.101562 190.675781 70.324219 190.144531 C 68.550781 189.617188 66.824219 189.074219 65.144531 188.523438 C 63.46875 187.96875 61.839844 187.40625 60.265625 186.832031 C 58.691406 186.257812 57.167969 185.675781 55.699219 185.082031 C 54.230469 184.484375 52.816406 183.882812 51.457031 183.269531 C 50.097656 182.65625 48.796875 182.035156 47.550781 181.402344 C 46.304688 180.773438 45.113281 180.136719 43.984375 179.488281 C 42.851562 178.84375 41.78125 178.191406 40.769531 177.53125 C 39.757812 176.871094 38.808594 176.203125 37.917969 175.53125 C 37.027344 174.855469 36.195312 174.179688 35.429688 173.496094 C 34.660156 172.808594 33.957031 172.121094 33.3125 171.429688 C 32.671875 170.734375 32.09375 170.039062 31.578125 169.335938 C 31.058594 168.636719 30.609375 167.929688 30.21875 167.222656 C 29.832031 166.515625 29.507812 165.808594 29.25 165.097656 C 28.992188 164.386719 28.796875 163.671875 28.667969 162.960938 C 28.535156 162.246094 28.472656 161.53125 28.472656 160.816406 Z M 28.472656 253.421875 L 28.472656 312.011719 C 28.472656 312.726562 28.535156 313.4375 28.667969 314.152344 C 28.796875 314.867188 28.992188 315.578125 29.25 316.289062 C 29.507812 317.003906 29.832031 317.710938 30.21875 318.417969 C 30.609375 319.125 31.058594 319.828125 31.574219 320.53125 C 32.09375 321.230469 32.671875 321.929688 33.3125 322.621094 C 33.957031 323.316406 34.660156 324.003906 35.429688 324.6875 C 36.195312 325.371094 37.023438 326.050781 37.914062 326.722656 C 38.808594 327.394531 39.757812 328.0625 40.769531 328.722656 C 41.78125 329.382812 42.851562 330.035156 43.984375 330.683594 C 45.113281 331.328125 46.300781 331.96875 47.546875 332.597656 C 48.796875 333.226562 50.097656 333.851562 51.457031 334.460938 C 52.816406 335.074219 54.230469 335.679688 55.699219 336.273438 C 57.167969 336.867188 58.691406 337.453125 60.265625 338.027344 C 61.839844 338.601562 63.46875 339.164062 65.144531 339.714844 C 66.820312 340.269531 68.546875 340.808594 70.324219 341.339844 C 72.101562 341.871094 73.921875 342.386719 75.792969 342.890625 C 77.664062 343.398438 79.578125 343.890625 81.535156 344.371094 C 83.496094 344.851562 85.496094 345.316406 87.539062 345.769531 C 89.585938 346.222656 91.667969 346.664062 93.792969 347.089844 C 95.914062 347.515625 98.078125 347.925781 100.277344 348.324219 C 102.472656 348.71875 104.707031 349.101562 106.976562 349.46875 C 109.242188 349.835938 111.542969 350.191406 113.875 350.527344 C 116.207031 350.863281 118.566406 351.183594 120.957031 351.492188 C 123.347656 351.796875 125.765625 352.085938 128.207031 352.359375 C 130.652344 352.632812 133.117188 352.890625 135.605469 353.132812 C 138.097656 353.371094 140.605469 353.597656 143.136719 353.804688 C 145.667969 354.011719 148.214844 354.203125 150.777344 354.375 C 153.34375 354.546875 155.921875 354.707031 158.515625 354.84375 C 161.109375 354.984375 163.714844 355.105469 166.328125 355.210938 C 168.945312 355.316406 171.570312 355.402344 174.199219 355.472656 C 176.832031 355.542969 179.46875 355.597656 182.109375 355.632812 C 184.75 355.667969 187.390625 355.683594 190.035156 355.683594 C 192.679688 355.683594 195.324219 355.667969 197.964844 355.632812 C 200.605469 355.597656 203.242188 355.542969 205.871094 355.472656 C 208.503906 355.402344 211.128906 355.316406 213.742188 355.210938 C 216.359375 355.105469 218.960938 354.984375 221.554688 354.84375 C 224.148438 354.707031 226.726562 354.546875 229.292969 354.375 C 231.859375 354.203125 234.40625 354.011719 236.9375 353.804688 C 239.464844 353.597656 241.976562 353.371094 244.464844 353.132812 C 246.953125 352.890625 249.421875 352.632812 251.863281 352.359375 C 254.308594 352.085938 256.722656 351.796875 259.113281 351.492188 C 261.503906 351.183594 263.863281 350.863281 266.195312 350.527344 C 268.527344 350.191406 270.828125 349.835938 273.097656 349.46875 C 275.363281 349.101562 277.597656 348.71875 279.796875 348.324219 C 281.996094 347.925781 284.15625 347.515625 286.28125 347.089844 C 288.402344 346.664062 290.488281 346.222656 292.53125 345.769531 C 294.574219 345.316406 296.578125 344.851562 298.535156 344.371094 C 300.496094 343.890625 302.410156 343.398438 304.277344 342.890625 C 306.148438 342.386719 307.972656 341.871094 309.746094 341.339844 C 311.523438 340.808594 313.25 340.269531 314.925781 339.714844 C 316.605469 339.164062 318.230469 338.601562 319.804688 338.027344 C 321.378906 337.453125 322.902344 336.867188 324.371094 336.273438 C 325.839844 335.679688 327.253906 335.074219 328.613281 334.460938 C 329.972656 333.851562 331.277344 333.226562 332.523438 332.597656 C 333.769531 331.96875 334.957031 331.328125 336.085938 330.683594 C 337.21875 330.035156 338.289062 329.382812 339.300781 328.722656 C 340.3125 328.0625 341.265625 327.394531 342.15625 326.722656 C 343.046875 326.050781 343.875 325.371094 344.640625 324.6875 C 345.410156 324.003906 346.113281 323.316406 346.757812 322.621094 C 347.398438 321.929688 347.980469 321.230469 348.496094 320.53125 C 349.011719 319.828125 349.460938 319.125 349.851562 318.417969 C 350.238281 317.710938 350.5625 317.003906 350.820312 316.289062 C 351.082031 315.578125 351.273438 314.867188 351.40625 314.152344 C 351.535156 313.4375 351.597656 312.726562 351.597656 312.011719 L 351.597656 253.421875 C 351.597656 254.136719 351.535156 254.851562 351.40625 255.5625 C 351.273438 256.277344 351.082031 256.992188 350.820312 257.703125 C 350.5625 258.414062 350.238281 259.121094 349.851562 259.828125 C 349.460938 260.535156 349.011719 261.242188 348.496094 261.941406 C 347.980469 262.640625 347.398438 263.339844 346.757812 264.03125 C 346.113281 264.726562 345.410156 265.414062 344.640625 266.097656 C 343.875 266.78125 343.046875 267.460938 342.15625 268.132812 C 341.265625 268.808594 340.3125 269.472656 339.300781 270.132812 C 338.289062 270.792969 337.21875 271.449219 336.085938 272.09375 C 334.957031 272.742188 333.769531 273.378906 332.523438 274.007812 C 331.277344 274.640625 329.972656 275.261719 328.613281 275.875 C 327.253906 276.488281 325.839844 277.089844 324.371094 277.683594 C 322.902344 278.28125 321.378906 278.863281 319.804688 279.4375 C 318.230469 280.011719 316.605469 280.574219 314.925781 281.128906 C 313.25 281.679688 311.523438 282.222656 309.746094 282.75 C 307.972656 283.28125 306.148438 283.796875 304.277344 284.304688 C 302.410156 284.808594 300.496094 285.300781 298.535156 285.78125 C 296.578125 286.261719 294.574219 286.726562 292.53125 287.183594 C 290.488281 287.636719 288.402344 288.074219 286.28125 288.5 C 284.15625 288.925781 281.996094 289.335938 279.796875 289.734375 C 277.597656 290.132812 275.363281 290.515625 273.097656 290.882812 C 270.828125 291.25 268.527344 291.601562 266.195312 291.9375 C 263.863281 292.273438 261.503906 292.597656 259.113281 292.902344 C 256.722656 293.207031 254.308594 293.496094 251.863281 293.769531 C 249.421875 294.042969 246.953125 294.300781 244.464844 294.542969 C 241.976562 294.78125 239.464844 295.007812 236.9375 295.214844 C 234.40625 295.421875 231.859375 295.613281 229.292969 295.785156 C 226.726562 295.960938 224.148438 296.117188 221.554688 296.257812 C 218.960938 296.394531 216.359375 296.519531 213.742188 296.621094 C 211.128906 296.726562 208.503906 296.816406 205.871094 296.886719 C 203.242188 296.953125 200.605469 297.007812 197.964844 297.042969 C 195.324219 297.078125 192.679688 297.09375 190.035156 297.09375 C 187.390625 297.09375 184.75 297.078125 182.109375 297.042969 C 179.46875 297.007812 176.832031 296.953125 174.199219 296.886719 C 171.570312 296.816406 168.945312 296.726562 166.328125 296.621094 C 163.714844 296.519531 161.109375 296.394531 158.515625 296.257812 C 155.921875 296.117188 153.34375 295.960938 150.78125 295.785156 C 148.214844 295.613281 145.667969 295.421875 143.136719 295.214844 C 140.605469 295.007812 138.097656 294.78125 135.605469 294.542969 C 133.117188 294.300781 130.652344 294.042969 128.207031 293.769531 C 125.765625 293.496094 123.347656 293.207031 120.957031 292.902344 C 118.570312 292.597656 116.207031 292.273438 113.875 291.9375 C 111.542969 291.601562 109.242188 291.25 106.976562 290.882812 C 104.707031 290.515625 102.472656 290.132812 100.277344 289.734375 C 98.078125 289.335938 95.917969 288.925781 93.792969 288.5 C 91.667969 288.074219 89.585938 287.636719 87.539062 287.183594 C 85.496094 286.726562 83.496094 286.261719 81.535156 285.78125 C 79.578125 285.300781 77.664062 284.808594 75.792969 284.304688 C 73.921875 283.796875 72.101562 283.28125 70.324219 282.75 C 68.550781 282.222656 66.824219 281.679688 65.144531 281.128906 C 63.46875 280.574219 61.839844 280.011719 60.265625 279.4375 C 58.691406 278.863281 57.167969 278.28125 55.699219 277.683594 C 54.230469 277.089844 52.816406 276.488281 51.457031 275.875 C 50.097656 275.261719 48.796875 274.640625 47.550781 274.007812 C 46.304688 273.378906 45.113281 272.742188 43.984375 272.09375 C 42.851562 271.449219 41.78125 270.792969 40.769531 270.132812 C 39.757812 269.472656 38.808594 268.808594 37.917969 268.132812 C 37.027344 267.460938 36.195312 266.78125 35.429688 266.097656 C 34.660156 265.414062 33.957031 264.726562 33.3125 264.03125 C 32.671875 263.339844 32.09375 262.640625 31.578125 261.941406 C 31.058594 261.242188 30.609375 260.535156 30.21875 259.828125 C 29.832031 259.121094 29.507812 258.414062 29.25 257.703125 C 28.992188 256.992188 28.796875 256.277344 28.667969 255.5625 C 28.535156 254.851562 28.472656 254.136719 28.472656 253.421875 Z M 28.472656 253.421875 " fill-opacity="1" fill-rule="nonzero"/></g><g clip-path="url(#5aecc0ff4c)"><path fill="#7ed957" d="M 28.472656 68.210938 L 28.472656 126.800781 C 28.476562 127.722656 28.585938 128.644531 28.808594 129.566406 C 29.027344 130.488281 29.355469 131.40625 29.789062 132.320312 C 30.226562 133.234375 30.765625 134.144531 31.414062 135.050781 C 32.0625 135.957031 32.816406 136.855469 33.675781 137.75 C 34.535156 138.640625 35.5 139.527344 36.566406 140.402344 C 37.632812 141.28125 38.800781 142.144531 40.070312 143.003906 C 41.34375 143.859375 42.710938 144.703125 44.179688 145.535156 C 45.648438 146.371094 47.210938 147.1875 48.871094 147.996094 C 50.53125 148.800781 52.285156 149.59375 54.128906 150.367188 C 55.976562 151.144531 57.910156 151.90625 59.933594 152.648438 C 61.957031 153.390625 64.066406 154.117188 66.261719 154.820312 C 68.453125 155.527344 70.726562 156.214844 73.082031 156.882812 C 75.4375 157.550781 77.867188 158.199219 80.375 158.824219 C 82.882812 159.453125 85.457031 160.054688 88.105469 160.636719 C 90.753906 161.21875 93.46875 161.777344 96.246094 162.3125 C 99.027344 162.851562 101.867188 163.359375 104.765625 163.847656 L 104.765625 105.257812 C 101.867188 104.773438 99.027344 104.261719 96.246094 103.726562 C 93.46875 103.191406 90.753906 102.632812 88.105469 102.050781 C 85.457031 101.46875 82.882812 100.863281 80.375 100.238281 C 77.867188 99.609375 75.4375 98.964844 73.082031 98.296875 C 70.726562 97.628906 68.453125 96.941406 66.261719 96.234375 C 64.066406 95.527344 61.957031 94.800781 59.933594 94.058594 C 57.910156 93.316406 55.976562 92.554688 54.128906 91.78125 C 52.285156 91.003906 50.53125 90.210938 48.871094 89.40625 C 47.210938 88.601562 45.648438 87.78125 44.179688 86.949219 C 42.710938 86.113281 41.34375 85.269531 40.070312 84.414062 C 38.800781 83.558594 37.632812 82.691406 36.566406 81.816406 C 35.5 80.9375 34.535156 80.054688 33.675781 79.160156 C 32.816406 78.269531 32.0625 77.367188 31.414062 76.460938 C 30.765625 75.558594 30.226562 74.644531 29.789062 73.730469 C 29.355469 72.816406 29.027344 71.898438 28.808594 70.976562 C 28.585938 70.058594 28.476562 69.136719 28.472656 68.210938 Z M 28.472656 160.816406 L 28.472656 219.40625 C 28.476562 220.328125 28.585938 221.25 28.808594 222.171875 C 29.027344 223.089844 29.355469 224.007812 29.789062 224.921875 C 30.226562 225.839844 30.765625 226.75 31.414062 227.65625 C 32.0625 228.5625 32.816406 229.460938 33.675781 230.351562 C 34.535156 231.246094 35.5 232.128906 36.566406 233.007812 C 37.632812 233.882812 38.800781 234.75 40.070312 235.605469 C 41.34375 236.460938 42.710938 237.308594 44.179688 238.140625 C 45.648438 238.972656 47.210938 239.792969 48.871094 240.597656 C 50.53125 241.40625 52.285156 242.195312 54.128906 242.972656 C 55.976562 243.75 57.910156 244.507812 59.933594 245.25 C 61.957031 245.992188 64.066406 246.71875 66.257812 247.425781 C 68.453125 248.132812 70.726562 248.820312 73.082031 249.488281 C 75.4375 250.15625 77.867188 250.800781 80.375 251.429688 C 82.882812 252.054688 85.457031 252.660156 88.105469 253.242188 C 90.753906 253.824219 93.46875 254.382812 96.246094 254.917969 C 99.027344 255.453125 101.867188 255.964844 104.765625 256.453125 L 104.765625 197.863281 C 101.867188 197.375 99.027344 196.863281 96.246094 196.328125 C 93.46875 195.792969 90.753906 195.234375 88.105469 194.652344 C 85.457031 194.070312 82.882812 193.464844 80.375 192.839844 C 77.867188 192.214844 75.4375 191.566406 73.082031 190.898438 C 70.726562 190.230469 68.453125 189.542969 66.261719 188.835938 C 64.066406 188.128906 61.957031 187.40625 59.933594 186.664062 C 57.910156 185.917969 55.976562 185.160156 54.128906 184.382812 C 52.285156 183.609375 50.53125 182.816406 48.871094 182.011719 C 47.210938 181.203125 45.648438 180.382812 44.179688 179.550781 C 42.710938 178.71875 41.34375 177.875 40.070312 177.019531 C 38.800781 176.160156 37.632812 175.292969 36.566406 174.417969 C 35.5 173.542969 34.535156 172.65625 33.675781 171.765625 C 32.816406 170.871094 32.0625 169.972656 31.414062 169.066406 C 30.765625 168.160156 30.226562 167.25 29.789062 166.335938 C 29.355469 165.417969 29.027344 164.5 28.808594 163.582031 C 28.585938 162.660156 28.476562 161.738281 28.472656 160.816406 Z M 28.472656 253.421875 L 28.472656 312.011719 C 28.476562 312.933594 28.585938 313.855469 28.808594 314.773438 C 29.027344 315.695312 29.355469 316.613281 29.789062 317.527344 C 30.226562 318.445312 30.765625 319.355469 31.414062 320.261719 C 32.0625 321.164062 32.816406 322.066406 33.675781 322.957031 C 34.535156 323.851562 35.5 324.734375 36.566406 325.613281 C 37.632812 326.488281 38.800781 327.355469 40.070312 328.210938 C 41.34375 329.066406 42.710938 329.914062 44.179688 330.746094 C 45.648438 331.578125 47.210938 332.398438 48.871094 333.203125 C 50.53125 334.011719 52.285156 334.800781 54.128906 335.578125 C 55.976562 336.351562 57.910156 337.113281 59.933594 337.855469 C 61.957031 338.597656 64.066406 339.324219 66.261719 340.03125 C 68.453125 340.738281 70.726562 341.425781 73.082031 342.09375 C 75.4375 342.761719 77.867188 343.40625 80.375 344.035156 C 82.882812 344.660156 85.457031 345.265625 88.105469 345.847656 C 90.753906 346.429688 93.46875 346.988281 96.246094 347.523438 C 99.027344 348.058594 101.867188 348.570312 104.765625 349.058594 L 104.765625 290.46875 C 101.867188 289.980469 99.027344 289.46875 96.246094 288.933594 C 93.46875 288.398438 90.753906 287.839844 88.105469 287.257812 C 85.457031 286.675781 82.882812 286.070312 80.375 285.445312 C 77.867188 284.820312 75.4375 284.171875 73.082031 283.503906 C 70.726562 282.835938 68.453125 282.148438 66.261719 281.441406 C 64.066406 280.734375 61.957031 280.011719 59.933594 279.265625 C 57.910156 278.523438 55.976562 277.765625 54.128906 276.988281 C 52.285156 276.210938 50.53125 275.421875 48.871094 274.613281 C 47.210938 273.808594 45.648438 272.988281 44.179688 272.15625 C 42.710938 271.324219 41.34375 270.480469 40.070312 269.621094 C 38.800781 268.765625 37.632812 267.898438 36.566406 267.023438 C 35.5 266.148438 34.535156 265.261719 33.675781 264.371094 C 32.816406 263.476562 32.0625 262.578125 31.414062 261.671875 C 30.765625 260.765625 30.226562 259.855469 29.789062 258.941406 C 29.355469 258.023438 29.027344 257.105469 28.808594 256.1875 C 28.585938 255.265625 28.476562 254.34375 28.472656 253.421875 Z M 28.472656 253.421875 " fill-opacity="1" fill-rule="nonzero"/></g><g clip-path="url(#a7289c5364)"><path fill="#00bf63" d="M 351.597656 68.210938 C 351.582031 70.15625 351.089844 72.085938 350.117188 74.011719 C 349.148438 75.933594 347.707031 77.832031 345.800781 79.707031 C 343.894531 81.578125 341.535156 83.40625 338.722656 85.195312 C 335.914062 86.980469 332.675781 88.710938 329.015625 90.378906 L 329.015625 148.96875 C 332.675781 147.296875 335.914062 145.570312 338.722656 143.78125 C 341.535156 141.996094 343.894531 140.164062 345.800781 138.292969 C 347.707031 136.421875 349.148438 134.523438 350.117188 132.601562 C 351.089844 130.675781 351.582031 128.742188 351.597656 126.800781 Z M 351.597656 160.816406 C 351.582031 162.757812 351.089844 164.691406 350.117188 166.613281 C 349.148438 168.539062 347.707031 170.4375 345.800781 172.308594 C 343.894531 174.179688 341.535156 176.011719 338.722656 177.796875 C 335.914062 179.585938 332.675781 181.3125 329.015625 182.984375 L 329.015625 241.570312 C 332.675781 239.902344 335.914062 238.171875 338.722656 236.386719 C 341.535156 234.597656 343.894531 232.769531 345.800781 230.898438 C 347.707031 229.027344 349.148438 227.128906 350.117188 225.203125 C 351.089844 223.28125 351.582031 221.347656 351.597656 219.40625 Z M 351.597656 253.421875 C 351.582031 255.363281 351.089844 257.296875 350.117188 259.21875 C 349.148438 261.144531 347.707031 263.042969 345.800781 264.914062 C 343.894531 266.785156 341.535156 268.617188 338.722656 270.402344 C 335.914062 272.1875 332.675781 273.917969 329.015625 275.589844 L 329.015625 334.175781 C 332.675781 332.507812 335.914062 330.777344 338.722656 328.992188 C 341.535156 327.203125 343.894531 325.375 345.800781 323.503906 C 347.707031 321.628906 349.148438 319.730469 350.117188 317.808594 C 351.089844 315.882812 351.582031 313.953125 351.597656 312.011719 Z M 351.597656 253.421875 " fill-opacity="1" fill-rule="nonzero"/></g><g clip-path="url(#a4ceff1ba2)"><g clip-path="url(#0ab0f9ff10)"><path fill="#ffffff" d="M 10.792969 346.039062 L 14.542969 346.039062 L 14.542969 349.789062 L 10.792969 349.789062 Z M 10.792969 346.039062 " fill-opacity="1" fill-rule="nonzero"/></g></g></svg>