<svg xmlns="http://www.w3.org/2000/svg" xmlns:xlink="http://www.w3.org/1999/xlink" width="500" zoomAndPan="magnify"
    viewBox="0 0 375 374.999991" height="500" preserveAspectRatio="xMidYMid meet" version="1.0">
    <defs>
        <clipPath id="8cbcf15b89">
            <path d="M 194 16.140625 L 347.609375 16.140625 L 347.609375 116 L 194 116 Z M 194 16.140625 "
                clip-rule="nonzero" />
        </clipPath>
        <clipPath id="cce2a9e758">
            <path d="M 27.359375 97 L 181 97 L 181 197 L 27.359375 197 Z M 27.359375 97 " clip-rule="nonzero" />
        </clipPath>
        <clipPath id="1e96efa84f">
            <path d="M 194 178 L 347.609375 178 L 347.609375 278 L 194 278 Z M 194 178 " clip-rule="nonzero" />
        </clipPath>
        <clipPath id="1ed48ed24f">
            <path d="M 27.359375 259 L 181 259 L 181 358.890625 L 27.359375 358.890625 Z M 27.359375 259 "
                clip-rule="nonzero" />
        </clipPath>
    </defs>
    <g clip-path="url(#8cbcf15b89)">
        <path fill="#c1ff72"
            d="M 346.355469 16.140625 L 228.125 16.140625 C 227.851562 16.140625 227.578125 16.210938 227.371094 16.414062 L 209.414062 32.320312 L 195.707031 32.320312 C 195.089844 32.320312 194.609375 32.800781 194.609375 33.417969 C 194.609375 34.035156 195.089844 34.511719 195.707031 34.511719 L 209.347656 34.511719 L 227.03125 52.816406 L 227.03125 114.511719 C 227.03125 115.128906 227.507812 115.609375 228.125 115.609375 L 346.355469 115.609375 C 346.972656 115.609375 347.449219 115.128906 347.449219 114.511719 L 347.449219 17.238281 C 347.449219 16.621094 346.972656 16.140625 346.355469 16.140625 Z M 345.257812 113.414062 L 229.222656 113.414062 L 229.222656 52.335938 C 229.222656 52.0625 229.085938 51.789062 228.949219 51.582031 L 211.472656 33.417969 L 228.605469 18.265625 L 345.324219 18.265625 L 345.324219 113.414062 Z M 343.0625 111.082031 L 231.484375 111.082031 L 231.484375 20.667969 L 343.0625 20.667969 Z M 343.0625 111.082031 "
            fill-opacity="1" fill-rule="nonzero" />
    </g>
    <g clip-path="url(#cce2a9e758)">
        <path fill="#00bf63"
            d="M 179.394531 113.414062 L 165.550781 113.414062 L 147.59375 97.511719 C 147.386719 97.304688 147.113281 97.238281 146.839844 97.238281 L 28.613281 97.238281 C 27.996094 97.238281 27.515625 97.714844 27.515625 98.332031 L 27.515625 195.605469 C 27.515625 196.222656 27.996094 196.703125 28.613281 196.703125 L 146.839844 196.703125 C 147.386719 196.703125 147.867188 196.222656 147.867188 195.675781 L 147.867188 133.980469 L 165.480469 115.675781 L 179.328125 115.675781 C 179.945312 115.675781 180.421875 115.195312 180.421875 114.578125 C 180.421875 113.960938 180.011719 113.414062 179.394531 113.414062 Z M 146.015625 132.746094 C 145.8125 132.949219 145.742188 133.226562 145.742188 133.5 L 145.742188 194.507812 L 29.707031 194.507812 L 29.707031 99.429688 L 146.429688 99.429688 L 163.5625 114.578125 Z M 31.96875 101.761719 L 143.550781 101.761719 L 143.550781 192.109375 L 31.96875 192.109375 Z M 31.96875 101.761719 "
            fill-opacity="1" fill-rule="nonzero" />
    </g>
    <g clip-path="url(#1e96efa84f)">
        <path fill="#00bf63"
            d="M 346.355469 178.332031 L 228.125 178.332031 C 227.851562 178.332031 227.578125 178.398438 227.371094 178.605469 L 209.414062 194.507812 L 195.707031 194.507812 C 195.089844 194.507812 194.609375 194.988281 194.609375 195.605469 C 194.609375 196.222656 195.089844 196.703125 195.707031 196.703125 L 209.347656 196.703125 L 227.03125 215.003906 L 227.03125 276.699219 C 227.03125 277.316406 227.507812 277.796875 228.125 277.796875 L 346.355469 277.796875 C 346.972656 277.796875 347.449219 277.316406 347.449219 276.699219 L 347.449219 179.429688 C 347.449219 178.8125 346.972656 178.332031 346.355469 178.332031 Z M 345.257812 275.605469 L 229.292969 275.605469 L 229.292969 214.527344 C 229.292969 214.25 229.152344 213.976562 229.015625 213.769531 L 211.539062 195.605469 L 228.675781 180.457031 L 345.394531 180.457031 L 345.394531 275.605469 Z M 343.0625 273.273438 L 231.484375 273.273438 L 231.484375 182.855469 L 343.0625 182.855469 Z M 343.0625 273.273438 "
            fill-opacity="1" fill-rule="nonzero" />
    </g>
    <g clip-path="url(#1ed48ed24f)">
        <path fill="#c1ff72"
            d="M 31.96875 263.949219 L 143.550781 263.949219 L 143.550781 354.300781 L 31.96875 354.300781 Z M 180.492188 276.699219 C 180.492188 277.316406 180.011719 277.796875 179.394531 277.796875 L 165.621094 277.796875 L 147.9375 296.101562 L 147.9375 357.796875 C 147.9375 358.34375 147.457031 358.824219 146.910156 358.890625 L 28.613281 358.890625 C 27.996094 358.890625 27.515625 358.410156 27.515625 357.796875 L 27.515625 260.523438 C 27.515625 259.90625 27.996094 259.425781 28.613281 259.425781 L 146.839844 259.425781 C 147.113281 259.425781 147.386719 259.496094 147.59375 259.699219 L 165.480469 275.605469 L 179.394531 275.605469 C 180.011719 275.605469 180.492188 276.082031 180.492188 276.699219 Z M 163.5625 276.835938 L 146.429688 261.6875 L 29.707031 261.6875 L 29.707031 356.765625 L 145.675781 356.765625 L 145.675781 295.757812 C 145.675781 295.484375 145.8125 295.207031 145.949219 295.003906 Z M 163.5625 276.835938 "
            fill-opacity="1" fill-rule="nonzero" />
    </g>
    <path fill="#00bf63"
        d="M 187.550781 28.550781 C 190.222656 28.550781 192.417969 30.742188 192.417969 33.417969 C 192.417969 36.089844 190.222656 38.285156 187.550781 38.285156 C 184.878906 38.285156 182.683594 36.089844 182.683594 33.417969 C 182.683594 30.742188 184.878906 28.550781 187.550781 28.550781 Z M 187.550781 28.550781 "
        fill-opacity="1" fill-rule="nonzero" />
    <path fill="#00bf63"
        d="M 187.550781 109.644531 C 190.222656 109.644531 192.417969 111.835938 192.417969 114.511719 C 192.417969 117.183594 190.222656 119.378906 187.550781 119.378906 C 184.878906 119.378906 182.683594 117.183594 182.683594 114.511719 C 182.683594 111.835938 184.878906 109.644531 187.550781 109.644531 Z M 187.550781 109.644531 "
        fill-opacity="1" fill-rule="nonzero" />
    <path fill="#00bf63"
        d="M 187.550781 190.738281 C 190.222656 190.738281 192.417969 192.933594 192.417969 195.605469 C 192.417969 198.277344 190.222656 200.472656 187.550781 200.472656 C 184.878906 200.472656 182.683594 198.277344 182.683594 195.605469 C 182.683594 192.933594 184.878906 190.738281 187.550781 190.738281 Z M 187.550781 190.738281 "
        fill-opacity="1" fill-rule="nonzero" />
    <path fill="#00bf63"
        d="M 196.804688 195.675781 C 196.804688 195.675781 196.804688 195.605469 196.804688 195.675781 C 196.804688 190.875 193.238281 186.96875 188.648438 186.421875 L 188.648438 123.765625 C 193.238281 123.21875 196.804688 119.308594 196.804688 114.578125 C 196.804688 109.851562 193.238281 105.941406 188.648438 105.394531 L 188.648438 42.671875 C 193.238281 42.121094 196.804688 38.214844 196.804688 33.484375 C 196.804688 28.34375 192.625 24.230469 187.550781 24.230469 C 182.480469 24.230469 178.300781 28.34375 178.300781 33.417969 C 178.300781 38.144531 181.863281 42.054688 186.523438 42.601562 L 186.523438 105.257812 C 181.929688 105.804688 178.300781 109.710938 178.300781 114.441406 C 178.300781 119.171875 181.863281 123.078125 186.523438 123.628906 L 186.523438 186.28125 C 181.929688 186.832031 178.300781 190.738281 178.300781 195.46875 C 178.300781 200.199219 181.863281 204.105469 186.523438 204.652344 L 186.523438 267.308594 C 181.929688 267.855469 178.300781 271.765625 178.300781 276.496094 C 178.300781 281.636719 182.480469 285.75 187.550781 285.75 C 192.691406 285.75 196.804688 281.566406 196.804688 276.496094 C 196.804688 271.765625 193.238281 267.855469 188.648438 267.308594 L 188.648438 204.652344 C 193.238281 204.3125 196.804688 200.402344 196.804688 195.675781 Z M 180.492188 33.417969 C 180.492188 29.507812 183.644531 26.355469 187.621094 26.355469 C 191.527344 26.355469 194.679688 29.507812 194.679688 33.417969 C 194.679688 37.324219 191.527344 40.476562 187.550781 40.476562 C 183.644531 40.546875 180.492188 37.324219 180.492188 33.417969 Z M 180.492188 114.511719 C 180.492188 110.605469 183.644531 107.449219 187.621094 107.449219 C 191.527344 107.449219 194.679688 110.605469 194.679688 114.511719 C 194.679688 118.417969 191.527344 121.503906 187.6875 121.570312 C 187.6875 121.570312 187.621094 121.570312 187.621094 121.570312 C 187.550781 121.570312 187.550781 121.570312 187.550781 121.570312 C 183.578125 121.570312 180.492188 118.417969 180.492188 114.511719 Z M 180.492188 195.605469 C 180.492188 191.699219 183.644531 188.546875 187.621094 188.546875 C 191.527344 188.546875 194.679688 191.699219 194.679688 195.605469 C 194.679688 199.511719 191.527344 202.667969 187.550781 202.667969 C 183.644531 202.734375 180.492188 199.511719 180.492188 195.605469 Z M 194.609375 276.699219 C 194.609375 280.609375 191.457031 283.828125 187.484375 283.828125 C 183.578125 283.828125 180.421875 280.675781 180.421875 276.699219 C 180.421875 272.792969 183.578125 269.640625 187.550781 269.640625 C 191.457031 269.640625 194.609375 272.792969 194.609375 276.699219 Z M 194.609375 276.699219 "
        fill-opacity="1" fill-rule="nonzero" />
    <path fill="#00bf63"
        d="M 187.550781 271.832031 C 190.222656 271.832031 192.417969 274.027344 192.417969 276.699219 C 192.417969 279.375 190.222656 281.566406 187.550781 281.566406 C 184.878906 281.566406 182.683594 279.375 182.683594 276.699219 C 182.683594 274.027344 184.878906 271.832031 187.550781 271.832031 Z M 187.550781 271.832031 "
        fill-opacity="1" fill-rule="nonzero" />
</svg>