<svg xmlns="http://www.w3.org/2000/svg" xmlns:xlink="http://www.w3.org/1999/xlink" width="50" zoomAndPan="magnify" viewBox="0 0 37.5 37.499999" height="50" preserveAspectRatio="xMidYMid meet" version="1.0"><defs><clipPath id="64144f6f91"><path d="M 0.832031 0.832031 L 17 0.832031 L 17 19 L 0.832031 19 Z M 0.832031 0.832031 " clip-rule="nonzero"/></clipPath><clipPath id="e101ef9e13"><path d="M 20 18 L 36.359375 18 L 36.359375 36.359375 L 20 36.359375 Z M 20 18 " clip-rule="nonzero"/></clipPath><clipPath id="191adba22e"><path d="M 0.832031 5 L 17 5 L 17 9 L 0.832031 9 Z M 0.832031 5 " clip-rule="nonzero"/></clipPath><clipPath id="9ded4be734"><path d="M 20 23 L 36.359375 23 L 36.359375 27 L 20 27 Z M 20 23 " clip-rule="nonzero"/></clipPath></defs><path fill="#c1ff72" d="M 8.558594 15.542969 C 9.238281 15.542969 9.789062 16.097656 9.789062 16.777344 L 9.789062 27.050781 L 21.707031 27.050781 C 22.390625 27.050781 22.941406 27.601562 22.941406 28.28125 C 22.941406 28.964844 22.390625 29.515625 21.707031 29.515625 L 8.558594 29.515625 C 7.875 29.515625 7.324219 28.964844 7.324219 28.28125 L 7.324219 16.777344 C 7.324219 16.097656 7.875 15.542969 8.558594 15.542969 Z M 8.558594 15.542969 " fill-opacity="1" fill-rule="evenodd"/><path fill="#c1ff72" d="M 22.765625 22.71875 C 23.117188 23.300781 22.925781 24.058594 22.34375 24.410156 L 15.886719 28.28125 L 22.34375 32.15625 C 22.925781 32.507812 23.117188 33.265625 22.765625 33.847656 C 22.414062 34.433594 21.65625 34.621094 21.074219 34.273438 L 12.855469 29.339844 C 12.484375 29.117188 12.257812 28.714844 12.257812 28.28125 C 12.257812 27.851562 12.484375 27.449219 12.855469 27.226562 L 21.074219 22.292969 C 21.65625 21.945312 22.414062 22.132812 22.765625 22.71875 Z M 22.765625 22.71875 " fill-opacity="1" fill-rule="evenodd"/><path fill="#c1ff72" d="M 4.039062 21.707031 C 4.039062 21.027344 4.589844 20.476562 5.269531 20.476562 L 11.84375 20.476562 C 12.527344 20.476562 13.078125 21.027344 13.078125 21.707031 C 13.078125 22.390625 12.527344 22.941406 11.84375 22.941406 L 5.269531 22.941406 C 4.589844 22.941406 4.039062 22.390625 4.039062 21.707031 Z M 4.039062 21.707031 " fill-opacity="1" fill-rule="evenodd"/><g clip-path="url(#64144f6f91)"><path fill="#1ed266" d="M 1.984375 0.75 C 1.300781 0.75 0.75 1.300781 0.75 1.984375 L 0.75 16.777344 C 0.75 17.457031 1.300781 18.007812 1.984375 18.007812 L 15.132812 18.007812 C 15.8125 18.007812 16.367188 17.457031 16.367188 16.777344 L 16.367188 1.984375 C 16.367188 1.300781 15.8125 0.75 15.132812 0.75 Z M 1.984375 0.75 " fill-opacity="1" fill-rule="nonzero"/></g><g clip-path="url(#e101ef9e13)"><path fill="#1ed266" d="M 21.707031 18.832031 C 21.027344 18.832031 20.476562 19.382812 20.476562 20.0625 L 20.476562 34.859375 C 20.476562 35.539062 21.027344 36.089844 21.707031 36.089844 L 34.859375 36.089844 C 35.539062 36.089844 36.089844 35.539062 36.089844 34.859375 L 36.089844 20.0625 C 36.089844 19.382812 35.539062 18.832031 34.859375 18.832031 Z M 21.707031 18.832031 " fill-opacity="1" fill-rule="nonzero"/></g><g clip-path="url(#191adba22e)"><path fill="#c1ff72" d="M 0.75 5.679688 L 16.367188 5.679688 L 16.367188 8.148438 L 0.75 8.148438 Z M 0.75 5.679688 " fill-opacity="1" fill-rule="evenodd"/></g><g clip-path="url(#9ded4be734)"><path fill="#c1ff72" d="M 20.476562 23.761719 L 36.089844 23.761719 L 36.089844 26.226562 L 20.476562 26.226562 Z M 20.476562 23.761719 " fill-opacity="1" fill-rule="evenodd"/></g></svg>