<svg xmlns="http://www.w3.org/2000/svg" xmlns:xlink="http://www.w3.org/1999/xlink" width="500" zoomAndPan="magnify" viewBox="0 0 375 374.999991" height="500" preserveAspectRatio="xMidYMid meet" version="1.0"><defs><clipPath id="c9d4704847"><path d="M 11.738281 12 L 337 12 L 337 127 L 11.738281 127 Z M 11.738281 12 " clip-rule="nonzero"/></clipPath><clipPath id="0b0d26c2d7"><path d="M 168 135 L 363.488281 135 L 363.488281 336 L 168 336 Z M 168 135 " clip-rule="nonzero"/></clipPath><clipPath id="f29faae4e1"><path d="M 11.738281 251 L 153 251 L 153 363.488281 L 11.738281 363.488281 Z M 11.738281 251 " clip-rule="nonzero"/></clipPath></defs><g clip-path="url(#c9d4704847)"><path fill="#00bf63" d="M 11.632812 119.183594 C 11.632812 119.652344 11.679688 120.113281 11.769531 120.570312 C 11.859375 121.03125 11.996094 121.472656 12.175781 121.90625 C 12.351562 122.335938 12.570312 122.746094 12.832031 123.132812 C 13.089844 123.523438 13.386719 123.882812 13.714844 124.210938 C 14.046875 124.542969 14.40625 124.835938 14.792969 125.097656 C 15.179688 125.355469 15.589844 125.574219 16.023438 125.753906 C 16.453125 125.929688 16.898438 126.066406 17.355469 126.15625 C 17.8125 126.25 18.273438 126.292969 18.742188 126.292969 L 153.554688 126.292969 C 154.023438 126.292969 154.484375 126.25 154.941406 126.15625 C 155.398438 126.066406 155.84375 125.929688 156.273438 125.753906 C 156.707031 125.574219 157.117188 125.355469 157.503906 125.097656 C 157.890625 124.835938 158.25 124.542969 158.582031 124.210938 C 158.910156 123.882812 159.207031 123.523438 159.464844 123.132812 C 159.726562 122.746094 159.945312 122.335938 160.121094 121.90625 C 160.300781 121.472656 160.4375 121.03125 160.527344 120.570312 C 160.617188 120.113281 160.664062 119.652344 160.664062 119.183594 L 160.664062 77.492188 L 298.214844 76.710938 L 298.214844 102.160156 L 286.625 90.574219 C 286.296875 90.246094 285.9375 89.949219 285.546875 89.691406 C 285.160156 89.433594 284.75 89.214844 284.320312 89.035156 C 283.886719 88.859375 283.441406 88.722656 282.984375 88.632812 C 282.527344 88.542969 282.066406 88.5 281.597656 88.5 C 281.132812 88.5 280.671875 88.542969 280.214844 88.636719 C 279.753906 88.726562 279.3125 88.863281 278.878906 89.039062 C 278.449219 89.21875 278.039062 89.4375 277.652344 89.699219 C 277.265625 89.957031 276.90625 90.25 276.574219 90.582031 C 276.246094 90.910156 275.953125 91.269531 275.691406 91.660156 C 275.433594 92.046875 275.214844 92.457031 275.035156 92.886719 C 274.855469 93.316406 274.722656 93.761719 274.628906 94.21875 C 274.539062 94.675781 274.492188 95.140625 274.492188 95.605469 C 274.492188 96.070312 274.539062 96.535156 274.628906 96.992188 C 274.71875 97.449219 274.851562 97.894531 275.03125 98.324219 C 275.207031 98.757812 275.425781 99.164062 275.6875 99.554688 C 275.945312 99.941406 276.238281 100.300781 276.566406 100.632812 L 300.273438 124.339844 C 300.605469 124.667969 300.964844 124.964844 301.351562 125.222656 C 301.742188 125.484375 302.148438 125.703125 302.582031 125.882812 C 303.011719 126.0625 303.457031 126.195312 303.914062 126.285156 C 304.375 126.378906 304.835938 126.421875 305.304688 126.421875 C 305.769531 126.421875 306.234375 126.378906 306.691406 126.285156 C 307.148438 126.195312 307.59375 126.0625 308.027344 125.882812 C 308.457031 125.703125 308.867188 125.484375 309.253906 125.222656 C 309.644531 124.964844 310.003906 124.667969 310.332031 124.339844 L 334.039062 100.632812 C 334.371094 100.300781 334.664062 99.941406 334.925781 99.554688 C 335.183594 99.164062 335.402344 98.757812 335.582031 98.324219 C 335.761719 97.894531 335.894531 97.449219 335.988281 96.992188 C 336.078125 96.53125 336.121094 96.070312 336.121094 95.601562 C 336.121094 95.136719 336.078125 94.671875 335.984375 94.214844 C 335.894531 93.757812 335.761719 93.3125 335.582031 92.882812 C 335.402344 92.449219 335.183594 92.039062 334.925781 91.652344 C 334.664062 91.261719 334.371094 90.902344 334.039062 90.574219 C 333.710938 90.242188 333.351562 89.949219 332.960938 89.6875 C 332.574219 89.429688 332.164062 89.210938 331.730469 89.03125 C 331.300781 88.851562 330.855469 88.71875 330.398438 88.628906 C 329.941406 88.535156 329.476562 88.492188 329.011719 88.492188 C 328.542969 88.492188 328.082031 88.535156 327.621094 88.628906 C 327.164062 88.71875 326.71875 88.851562 326.289062 89.03125 C 325.855469 89.210938 325.449219 89.429688 325.058594 89.6875 C 324.671875 89.949219 324.3125 90.242188 323.980469 90.574219 L 312.429688 102.054688 L 312.429688 69.460938 C 312.429688 68.515625 312.25 67.601562 311.886719 66.726562 C 311.523438 65.851562 311.003906 65.082031 310.332031 64.414062 C 309.640625 63.773438 308.855469 63.277344 307.980469 62.921875 C 307.105469 62.566406 306.195312 62.375 305.25 62.351562 L 160.664062 63.277344 L 160.664062 19.347656 C 160.664062 18.878906 160.617188 18.417969 160.527344 17.960938 C 160.4375 17.5 160.300781 17.058594 160.121094 16.625 C 159.945312 16.195312 159.726562 15.785156 159.464844 15.398438 C 159.207031 15.007812 158.910156 14.648438 158.582031 14.320312 C 158.25 13.988281 157.890625 13.695312 157.503906 13.4375 C 157.117188 13.175781 156.707031 12.957031 156.273438 12.777344 C 155.84375 12.601562 155.398438 12.464844 154.941406 12.375 C 154.484375 12.285156 154.023438 12.238281 153.554688 12.238281 L 18.742188 12.238281 C 18.273438 12.238281 17.8125 12.285156 17.355469 12.375 C 16.898438 12.464844 16.453125 12.601562 16.023438 12.777344 C 15.589844 12.957031 15.179688 13.175781 14.792969 13.4375 C 14.40625 13.695312 14.046875 13.988281 13.714844 14.320312 C 13.386719 14.648438 13.089844 15.007812 12.832031 15.398438 C 12.570312 15.785156 12.351562 16.195312 12.175781 16.625 C 11.996094 17.058594 11.859375 17.5 11.769531 17.960938 C 11.679688 18.417969 11.632812 18.878906 11.632812 19.347656 Z M 11.632812 119.183594 " fill-opacity="1" fill-rule="nonzero"/></g><g clip-path="url(#0b0d26c2d7)"><path fill="#00bf63" d="M 363.007812 142.820312 C 363.007812 142.355469 362.960938 141.890625 362.871094 141.433594 C 362.78125 140.976562 362.644531 140.53125 362.464844 140.101562 C 362.289062 139.667969 362.066406 139.261719 361.808594 138.871094 C 361.550781 138.484375 361.253906 138.125 360.925781 137.792969 C 360.59375 137.464844 360.234375 137.167969 359.847656 136.910156 C 359.460938 136.652344 359.050781 136.433594 358.617188 136.253906 C 358.1875 136.074219 357.742188 135.941406 357.285156 135.847656 C 356.828125 135.757812 356.367188 135.710938 355.898438 135.710938 L 224.390625 135.710938 C 223.925781 135.710938 223.460938 135.757812 223.003906 135.847656 C 222.546875 135.941406 222.101562 136.074219 221.671875 136.253906 C 221.238281 136.433594 220.828125 136.652344 220.441406 136.910156 C 220.054688 137.167969 219.695312 137.464844 219.363281 137.792969 C 219.035156 138.125 218.738281 138.484375 218.480469 138.871094 C 218.222656 139.261719 218.003906 139.667969 217.824219 140.101562 C 217.644531 140.53125 217.511719 140.976562 217.417969 141.433594 C 217.328125 141.890625 217.28125 142.355469 217.28125 142.820312 L 217.28125 232.53125 C 217.28125 232.996094 217.328125 233.460938 217.417969 233.917969 C 217.511719 234.375 217.644531 234.820312 217.824219 235.25 C 218.003906 235.683594 218.222656 236.089844 218.480469 236.480469 C 218.738281 236.867188 219.035156 237.226562 219.363281 237.558594 C 219.695312 237.886719 220.054688 238.179688 220.441406 238.441406 C 220.828125 238.699219 221.238281 238.917969 221.671875 239.097656 C 222.101562 239.277344 222.546875 239.410156 223.003906 239.503906 C 223.460938 239.59375 223.925781 239.640625 224.390625 239.640625 L 298.214844 239.640625 L 298.214844 298.746094 L 192.332031 297.859375 L 203.953125 286.234375 C 204.285156 285.90625 204.582031 285.546875 204.839844 285.15625 C 205.101562 284.769531 205.320312 284.359375 205.5 283.925781 C 205.679688 283.496094 205.816406 283.050781 205.90625 282.59375 C 206 282.132812 206.042969 281.671875 206.042969 281.203125 C 206.042969 280.738281 206 280.273438 205.910156 279.816406 C 205.816406 279.355469 205.683594 278.910156 205.503906 278.480469 C 205.324219 278.046875 205.105469 277.636719 204.847656 277.25 C 204.585938 276.859375 204.292969 276.5 203.960938 276.167969 C 203.628906 275.839844 203.269531 275.542969 202.882812 275.285156 C 202.492188 275.023438 202.082031 274.804688 201.652344 274.625 C 201.21875 274.449219 200.773438 274.3125 200.316406 274.222656 C 199.855469 274.132812 199.394531 274.085938 198.925781 274.085938 C 198.460938 274.085938 197.996094 274.132812 197.539062 274.222656 C 197.078125 274.316406 196.636719 274.453125 196.203125 274.628906 C 195.773438 274.808594 195.363281 275.03125 194.972656 275.289062 C 194.585938 275.550781 194.226562 275.84375 193.894531 276.175781 L 170.1875 299.988281 C 169.53125 300.652344 169.027344 301.414062 168.667969 302.273438 C 168.3125 303.136719 168.132812 304.035156 168.128906 304.964844 C 168.125 305.90625 168.304688 306.808594 168.660156 307.675781 C 169.019531 308.542969 169.527344 309.3125 170.1875 309.976562 L 193.894531 333.683594 C 194.226562 334.015625 194.585938 334.308594 194.972656 334.570312 C 195.363281 334.828125 195.773438 335.046875 196.203125 335.226562 C 196.632812 335.40625 197.078125 335.539062 197.539062 335.632812 C 197.996094 335.722656 198.457031 335.769531 198.925781 335.769531 C 199.390625 335.769531 199.855469 335.722656 200.3125 335.632812 C 200.769531 335.539062 201.214844 335.40625 201.648438 335.226562 C 202.078125 335.046875 202.488281 334.828125 202.875 334.570312 C 203.265625 334.308594 203.625 334.015625 203.953125 333.683594 C 204.285156 333.355469 204.578125 332.996094 204.839844 332.605469 C 205.097656 332.21875 205.316406 331.808594 205.496094 331.378906 C 205.675781 330.945312 205.808594 330.5 205.902344 330.042969 C 205.992188 329.585938 206.039062 329.121094 206.039062 328.65625 C 206.039062 328.1875 205.992188 327.726562 205.902344 327.269531 C 205.808594 326.808594 205.675781 326.363281 205.496094 325.933594 C 205.316406 325.5 205.097656 325.09375 204.839844 324.703125 C 204.578125 324.316406 204.285156 323.957031 203.953125 323.625 L 192.4375 312.074219 L 305.25 312.890625 C 306.183594 312.886719 307.078125 312.707031 307.941406 312.351562 C 308.800781 311.992188 309.5625 311.488281 310.226562 310.832031 C 310.90625 310.164062 311.429688 309.394531 311.796875 308.519531 C 312.167969 307.644531 312.355469 306.734375 312.359375 305.785156 L 312.359375 239.640625 L 355.898438 239.640625 C 356.367188 239.640625 356.828125 239.59375 357.285156 239.503906 C 357.742188 239.410156 358.1875 239.277344 358.617188 239.097656 C 359.050781 238.917969 359.460938 238.699219 359.847656 238.441406 C 360.234375 238.179688 360.59375 237.886719 360.925781 237.558594 C 361.253906 237.226562 361.550781 236.867188 361.808594 236.480469 C 362.066406 236.089844 362.289062 235.683594 362.464844 235.25 C 362.644531 234.820312 362.78125 234.375 362.871094 233.917969 C 362.960938 233.460938 363.007812 232.996094 363.007812 232.53125 Z M 363.007812 142.820312 " fill-opacity="1" fill-rule="nonzero"/></g><g clip-path="url(#f29faae4e1)"><path fill="#00bf63" d="M 11.632812 356.003906 C 11.632812 356.472656 11.679688 356.933594 11.769531 357.390625 C 11.859375 357.851562 11.996094 358.292969 12.175781 358.726562 C 12.351562 359.15625 12.570312 359.566406 12.832031 359.953125 C 13.089844 360.34375 13.386719 360.703125 13.714844 361.03125 C 14.046875 361.363281 14.40625 361.65625 14.792969 361.914062 C 15.179688 362.175781 15.589844 362.394531 16.023438 362.574219 C 16.453125 362.75 16.898438 362.886719 17.355469 362.976562 C 17.8125 363.066406 18.273438 363.113281 18.742188 363.113281 L 145.34375 363.113281 C 145.8125 363.113281 146.273438 363.066406 146.730469 362.976562 C 147.1875 362.886719 147.632812 362.75 148.066406 362.574219 C 148.496094 362.394531 148.90625 362.175781 149.292969 361.914062 C 149.683594 361.65625 150.039062 361.363281 150.371094 361.03125 C 150.699219 360.703125 150.996094 360.34375 151.253906 359.953125 C 151.515625 359.566406 151.734375 359.15625 151.910156 358.726562 C 152.089844 358.292969 152.226562 357.851562 152.316406 357.390625 C 152.40625 356.933594 152.453125 356.472656 152.453125 356.003906 L 152.453125 258.761719 C 152.453125 258.292969 152.40625 257.832031 152.316406 257.375 C 152.226562 256.917969 152.089844 256.472656 151.910156 256.039062 C 151.734375 255.609375 151.515625 255.199219 151.253906 254.8125 C 150.996094 254.421875 150.699219 254.0625 150.371094 253.734375 C 150.039062 253.402344 149.683594 253.109375 149.292969 252.851562 C 148.90625 252.589844 148.496094 252.371094 148.066406 252.195312 C 147.632812 252.015625 147.1875 251.878906 146.730469 251.789062 C 146.273438 251.699219 145.8125 251.652344 145.34375 251.652344 L 18.742188 251.652344 C 18.273438 251.652344 17.8125 251.699219 17.355469 251.789062 C 16.898438 251.878906 16.453125 252.015625 16.023438 252.195312 C 15.589844 252.371094 15.179688 252.589844 14.792969 252.851562 C 14.40625 253.109375 14.046875 253.402344 13.714844 253.734375 C 13.386719 254.0625 13.089844 254.421875 12.832031 254.8125 C 12.570312 255.199219 12.351562 255.609375 12.175781 256.039062 C 11.996094 256.472656 11.859375 256.917969 11.769531 257.375 C 11.679688 257.832031 11.632812 258.292969 11.632812 258.761719 Z M 11.632812 356.003906 " fill-opacity="1" fill-rule="nonzero"/></g></svg>