<svg xmlns="http://www.w3.org/2000/svg" xmlns:xlink="http://www.w3.org/1999/xlink" width="500" zoomAndPan="magnify"
    viewBox="0 0 375 374.999991" height="500" preserveAspectRatio="xMidYMid meet" version="1.0">
    <defs>
        <clipPath id="a8af02dd3a">
            <path
                d="M 7.335938 7.335938 L 362.835938 7.335938 L 362.835938 362.835938 L 7.335938 362.835938 Z M 7.335938 7.335938 "
                clip-rule="nonzero" />
        </clipPath>
        <clipPath id="282bf12dc1">
            <path d="M 283 80 L 362.835938 80 L 362.835938 106 L 283 106 Z M 283 80 " clip-rule="nonzero" />
        </clipPath>
        <clipPath id="d87be87fae">
            <path d="M 283 289 L 362.835938 289 L 362.835938 314 L 283 314 Z M 283 289 " clip-rule="nonzero" />
        </clipPath>
    </defs>
    <g clip-path="url(#a8af02dd3a)">
        <path fill="#00bf63"
            d="M 362.835938 344.449219 L 362.835938 356.707031 C 362.835938 360.082031 360.082031 362.835938 356.707031 362.835938 L 19.59375 362.835938 C 12.816406 362.835938 7.335938 357.351562 7.335938 350.578125 L 7.335938 13.464844 C 7.335938 10.089844 10.089844 7.335938 13.464844 7.335938 L 25.722656 7.335938 C 29.097656 7.335938 31.851562 10.089844 31.851562 13.464844 L 31.851562 332.1875 C 31.851562 335.566406 34.605469 338.316406 37.980469 338.316406 L 356.707031 338.316406 C 360.082031 338.316406 362.835938 341.070312 362.835938 344.449219 "
            fill-opacity="1" fill-rule="nonzero" />
    </g>
    <path fill="#7ed957"
        d="M 258.636719 74.757812 L 185.085938 74.757812 C 178.308594 74.757812 172.828125 69.273438 172.828125 62.5 C 172.828125 55.722656 178.308594 50.242188 185.085938 50.242188 L 258.636719 50.242188 C 265.414062 50.242188 270.894531 55.722656 270.894531 62.5 C 270.894531 69.273438 265.414062 74.757812 258.636719 74.757812 "
        fill-opacity="1" fill-rule="nonzero" />
    <g clip-path="url(#282bf12dc1)">
        <path fill="#7ed957"
            d="M 350.578125 105.402344 L 295.414062 105.402344 C 288.636719 105.402344 283.152344 99.921875 283.152344 93.144531 C 283.152344 86.371094 288.636719 80.886719 295.414062 80.886719 L 350.578125 80.886719 C 357.351562 80.886719 362.835938 86.371094 362.835938 93.144531 C 362.835938 99.921875 357.351562 105.402344 350.578125 105.402344 "
            fill-opacity="1" fill-rule="nonzero" />
    </g>
    <path fill="#7ed957"
        d="M 215.730469 203.472656 L 142.179688 203.472656 C 135.40625 203.472656 129.921875 197.992188 129.921875 191.214844 C 129.921875 184.4375 135.40625 178.957031 142.179688 178.957031 L 215.730469 178.957031 C 222.507812 178.957031 227.992188 184.4375 227.992188 191.214844 C 227.992188 197.992188 222.507812 203.472656 215.730469 203.472656 "
        fill-opacity="1" fill-rule="nonzero" />
    <path fill="#7ed957"
        d="M 307.671875 234.121094 L 252.507812 234.121094 C 245.730469 234.121094 240.25 228.636719 240.25 221.859375 C 240.25 215.085938 245.730469 209.601562 252.507812 209.601562 L 307.671875 209.601562 C 314.449219 209.601562 319.929688 215.085938 319.929688 221.859375 C 319.929688 228.636719 314.449219 234.121094 307.671875 234.121094 "
        fill-opacity="1" fill-rule="nonzero" />
    <path fill="#00bf63"
        d="M 215.730469 136.050781 L 105.402344 136.050781 C 98.628906 136.050781 93.144531 130.566406 93.144531 123.792969 C 93.144531 117.015625 98.628906 111.535156 105.402344 111.535156 L 215.730469 111.535156 C 222.507812 111.535156 227.992188 117.015625 227.992188 123.792969 C 227.992188 130.566406 222.507812 136.050781 215.730469 136.050781 "
        fill-opacity="1" fill-rule="nonzero" />
    <path fill="#00bf63"
        d="M 307.671875 166.699219 L 252.507812 166.699219 C 245.730469 166.699219 240.25 161.214844 240.25 154.4375 C 240.25 147.664062 245.730469 142.179688 252.507812 142.179688 L 307.671875 142.179688 C 314.449219 142.179688 319.929688 147.664062 319.929688 154.4375 C 319.929688 161.214844 314.449219 166.699219 307.671875 166.699219 "
        fill-opacity="1" fill-rule="nonzero" />
    <path fill="#7ed957"
        d="M 142.179688 44.109375 L 68.628906 44.109375 C 61.851562 44.109375 56.371094 38.628906 56.371094 31.851562 C 56.371094 25.078125 61.851562 19.59375 68.628906 19.59375 L 142.179688 19.59375 C 148.957031 19.59375 154.4375 25.078125 154.4375 31.851562 C 154.4375 38.628906 148.957031 44.109375 142.179688 44.109375 "
        fill-opacity="1" fill-rule="nonzero" />
    <path fill="#00bf63"
        d="M 258.636719 283.152344 L 185.085938 283.152344 C 178.308594 283.152344 172.828125 277.671875 172.828125 270.894531 C 172.828125 264.121094 178.308594 258.636719 185.085938 258.636719 L 258.636719 258.636719 C 265.414062 258.636719 270.894531 264.121094 270.894531 270.894531 C 270.894531 277.671875 265.414062 283.152344 258.636719 283.152344 "
        fill-opacity="1" fill-rule="nonzero" />
    <g clip-path="url(#d87be87fae)">
        <path fill="#00bf63"
            d="M 350.578125 313.800781 L 295.414062 313.800781 C 288.636719 313.800781 283.152344 308.316406 283.152344 301.542969 C 283.152344 294.765625 288.636719 289.285156 295.414062 289.285156 L 350.578125 289.285156 C 357.351562 289.285156 362.835938 294.765625 362.835938 301.542969 C 362.835938 308.316406 357.351562 313.800781 350.578125 313.800781 "
            fill-opacity="1" fill-rule="nonzero" />
    </g>
    <path fill="#00bf63"
        d="M 142.179688 252.507812 L 68.628906 252.507812 C 61.851562 252.507812 56.371094 247.023438 56.371094 240.25 C 56.371094 233.472656 61.851562 227.992188 68.628906 227.992188 L 142.179688 227.992188 C 148.957031 227.992188 154.4375 233.472656 154.4375 240.25 C 154.4375 247.023438 148.957031 252.507812 142.179688 252.507812 "
        fill-opacity="1" fill-rule="nonzero" />
</svg>