<svg xmlns="http://www.w3.org/2000/svg" xmlns:xlink="http://www.w3.org/1999/xlink" width="500" zoomAndPan="magnify"
    viewBox="0 0 375 374.999991" height="500" preserveAspectRatio="xMidYMid meet" version="1.0">
    <defs>
        <clipPath id="6002473e90">
            <path d="M 13.511719 13.511719 L 123 13.511719 L 123 123 L 13.511719 123 Z M 13.511719 13.511719 "
                clip-rule="nonzero" />
        </clipPath>
        <clipPath id="0d1c90460f">
            <path d="M 13.511719 252 L 123 252 L 123 361.511719 L 13.511719 361.511719 Z M 13.511719 252 "
                clip-rule="nonzero" />
        </clipPath>
        <clipPath id="6a32adc874">
            <path d="M 252 165 L 361.511719 165 L 361.511719 275 L 252 275 Z M 252 165 " clip-rule="nonzero" />
        </clipPath>
    </defs>
    <path fill="#00bf63"
        d="M 307.136719 231.011719 L 163.585938 231.011719 C 104.859375 231.011719 57.011719 183.160156 57.011719 122.261719 L 57.011719 80.933594 L 78.761719 80.933594 L 78.761719 122.261719 C 78.761719 170.109375 115.734375 209.261719 163.585938 209.261719 L 307.136719 209.261719 Z M 307.136719 231.011719 "
        fill-opacity="1" fill-rule="nonzero" />
    <path fill="#00bf63"
        d="M 57.011719 67.886719 L 78.761719 67.886719 L 78.761719 307.136719 L 57.011719 307.136719 Z M 57.011719 67.886719 "
        fill-opacity="1" fill-rule="nonzero" />
    <path fill="#c1ff72"
        d="M 67.886719 24.386719 C 66.460938 24.386719 65.039062 24.457031 63.621094 24.59375 C 62.203125 24.734375 60.796875 24.945312 59.398438 25.222656 C 58 25.5 56.621094 25.84375 55.257812 26.257812 C 53.894531 26.671875 52.554688 27.152344 51.238281 27.695312 C 49.921875 28.242188 48.636719 28.851562 47.378906 29.523438 C 46.125 30.195312 44.902344 30.925781 43.71875 31.714844 C 42.535156 32.507812 41.390625 33.355469 40.289062 34.257812 C 39.1875 35.164062 38.132812 36.117188 37.125 37.125 C 36.117188 38.132812 35.164062 39.1875 34.257812 40.289062 C 33.355469 41.390625 32.507812 42.535156 31.714844 43.71875 C 30.925781 44.902344 30.195312 46.125 29.523438 47.378906 C 28.851562 48.636719 28.242188 49.921875 27.695312 51.238281 C 27.152344 52.554688 26.671875 53.894531 26.257812 55.257812 C 25.84375 56.621094 25.5 58 25.222656 59.398438 C 24.945312 60.796875 24.734375 62.203125 24.59375 63.621094 C 24.457031 65.039062 24.386719 66.460938 24.386719 67.886719 C 24.386719 69.308594 24.457031 70.730469 24.59375 72.148438 C 24.734375 73.566406 24.945312 74.972656 25.222656 76.371094 C 25.5 77.769531 25.84375 79.148438 26.257812 80.511719 C 26.671875 81.875 27.152344 83.214844 27.695312 84.53125 C 28.242188 85.847656 28.851562 87.136719 29.523438 88.390625 C 30.195312 89.648438 30.925781 90.867188 31.714844 92.054688 C 32.507812 93.238281 33.355469 94.378906 34.257812 95.480469 C 35.164062 96.582031 36.117188 97.636719 37.125 98.644531 C 38.132812 99.652344 39.1875 100.609375 40.289062 101.511719 C 41.390625 102.414062 42.535156 103.261719 43.71875 104.054688 C 44.902344 104.847656 46.125 105.578125 47.378906 106.25 C 48.636719 106.921875 49.921875 107.527344 51.238281 108.074219 C 52.554688 108.621094 53.894531 109.097656 55.257812 109.511719 C 56.621094 109.925781 58 110.273438 59.398438 110.550781 C 60.796875 110.828125 62.203125 111.035156 63.621094 111.175781 C 65.039062 111.316406 66.460938 111.386719 67.886719 111.386719 C 69.308594 111.386719 70.730469 111.316406 72.148438 111.175781 C 73.566406 111.035156 74.972656 110.828125 76.371094 110.550781 C 77.769531 110.273438 79.148438 109.925781 80.511719 109.511719 C 81.875 109.097656 83.214844 108.621094 84.53125 108.074219 C 85.847656 107.527344 87.136719 106.921875 88.390625 106.25 C 89.648438 105.578125 90.867188 104.847656 92.054688 104.054688 C 93.238281 103.261719 94.378906 102.414062 95.480469 101.511719 C 96.582031 100.609375 97.636719 99.652344 98.644531 98.644531 C 99.652344 97.636719 100.609375 96.582031 101.511719 95.480469 C 102.414062 94.378906 103.261719 93.238281 104.054688 92.054688 C 104.847656 90.867188 105.578125 89.648438 106.25 88.390625 C 106.921875 87.136719 107.527344 85.847656 108.074219 84.53125 C 108.621094 83.214844 109.097656 81.875 109.511719 80.511719 C 109.925781 79.148438 110.273438 77.769531 110.550781 76.371094 C 110.828125 74.972656 111.035156 73.566406 111.175781 72.148438 C 111.316406 70.730469 111.386719 69.308594 111.386719 67.886719 C 111.386719 66.460938 111.316406 65.039062 111.175781 63.621094 C 111.035156 62.203125 110.828125 60.796875 110.550781 59.398438 C 110.273438 58 109.925781 56.621094 109.511719 55.257812 C 109.097656 53.894531 108.621094 52.554688 108.074219 51.238281 C 107.527344 49.921875 106.921875 48.636719 106.25 47.378906 C 105.578125 46.125 104.847656 44.902344 104.054688 43.71875 C 103.261719 42.535156 102.414062 41.390625 101.511719 40.289062 C 100.609375 39.1875 99.652344 38.132812 98.644531 37.125 C 97.636719 36.117188 96.582031 35.164062 95.480469 34.257812 C 94.378906 33.355469 93.238281 32.507812 92.054688 31.714844 C 90.867188 30.925781 89.648438 30.195312 88.390625 29.523438 C 87.136719 28.851562 85.847656 28.242188 84.53125 27.695312 C 83.214844 27.152344 81.875 26.671875 80.511719 26.257812 C 79.148438 25.84375 77.769531 25.5 76.371094 25.222656 C 74.972656 24.945312 73.566406 24.734375 72.148438 24.59375 C 70.730469 24.457031 69.308594 24.386719 67.886719 24.386719 Z M 67.886719 24.386719 "
        fill-opacity="1" fill-rule="nonzero" />
    <g clip-path="url(#6002473e90)">
        <path fill="#00bf63"
            d="M 67.886719 35.261719 C 85.285156 35.261719 100.511719 50.484375 100.511719 67.886719 C 100.511719 85.285156 85.285156 100.511719 67.886719 100.511719 C 50.484375 100.511719 35.261719 85.285156 35.261719 67.886719 C 35.261719 50.484375 50.484375 35.261719 67.886719 35.261719 M 67.886719 13.511719 C 37.433594 13.511719 13.511719 37.433594 13.511719 67.886719 C 13.511719 98.335938 37.433594 122.261719 67.886719 122.261719 C 98.335938 122.261719 122.261719 98.335938 122.261719 67.886719 C 122.261719 37.433594 98.335938 13.511719 67.886719 13.511719 Z M 67.886719 13.511719 "
            fill-opacity="1" fill-rule="nonzero" />
    </g>
    <path fill="#c1ff72"
        d="M 67.886719 263.636719 C 66.460938 263.636719 65.039062 263.707031 63.621094 263.84375 C 62.203125 263.984375 60.796875 264.191406 59.398438 264.472656 C 58 264.75 56.621094 265.09375 55.257812 265.507812 C 53.894531 265.921875 52.554688 266.402344 51.238281 266.945312 C 49.921875 267.492188 48.636719 268.101562 47.378906 268.773438 C 46.125 269.445312 44.902344 270.175781 43.71875 270.964844 C 42.535156 271.757812 41.390625 272.605469 40.289062 273.507812 C 39.1875 274.414062 38.132812 275.367188 37.125 276.375 C 36.117188 277.382812 35.164062 278.4375 34.257812 279.539062 C 33.355469 280.640625 32.507812 281.785156 31.714844 282.96875 C 30.925781 284.152344 30.195312 285.375 29.523438 286.628906 C 28.851562 287.886719 28.242188 289.171875 27.695312 290.488281 C 27.152344 291.804688 26.671875 293.144531 26.257812 294.507812 C 25.84375 295.871094 25.5 297.25 25.222656 298.648438 C 24.945312 300.046875 24.734375 301.453125 24.59375 302.871094 C 24.457031 304.289062 24.386719 305.710938 24.386719 307.136719 C 24.386719 308.558594 24.457031 309.980469 24.59375 311.398438 C 24.734375 312.816406 24.945312 314.222656 25.222656 315.621094 C 25.5 317.019531 25.84375 318.398438 26.257812 319.761719 C 26.671875 321.125 27.152344 322.464844 27.695312 323.78125 C 28.242188 325.097656 28.851562 326.382812 29.523438 327.640625 C 30.195312 328.898438 30.925781 330.117188 31.714844 331.304688 C 32.507812 332.488281 33.355469 333.628906 34.257812 334.730469 C 35.164062 335.832031 36.117188 336.886719 37.125 337.894531 C 38.132812 338.902344 39.1875 339.859375 40.289062 340.761719 C 41.390625 341.664062 42.535156 342.511719 43.71875 343.304688 C 44.902344 344.097656 46.125 344.828125 47.378906 345.5 C 48.636719 346.171875 49.921875 346.777344 51.238281 347.324219 C 52.554688 347.871094 53.894531 348.347656 55.257812 348.761719 C 56.621094 349.175781 58 349.523438 59.398438 349.800781 C 60.796875 350.078125 62.203125 350.285156 63.621094 350.425781 C 65.039062 350.566406 66.460938 350.636719 67.886719 350.636719 C 69.308594 350.636719 70.730469 350.566406 72.148438 350.425781 C 73.566406 350.285156 74.972656 350.078125 76.371094 349.800781 C 77.769531 349.523438 79.148438 349.175781 80.511719 348.761719 C 81.875 348.347656 83.214844 347.871094 84.53125 347.324219 C 85.847656 346.777344 87.136719 346.171875 88.390625 345.5 C 89.648438 344.828125 90.867188 344.097656 92.054688 343.304688 C 93.238281 342.511719 94.378906 341.664062 95.480469 340.761719 C 96.582031 339.859375 97.636719 338.902344 98.644531 337.894531 C 99.652344 336.886719 100.609375 335.832031 101.511719 334.730469 C 102.414062 333.628906 103.261719 332.488281 104.054688 331.304688 C 104.847656 330.117188 105.578125 328.898438 106.25 327.640625 C 106.921875 326.382812 107.527344 325.097656 108.074219 323.78125 C 108.621094 322.464844 109.097656 321.125 109.511719 319.761719 C 109.925781 318.398438 110.273438 317.019531 110.550781 315.621094 C 110.828125 314.222656 111.035156 312.816406 111.175781 311.398438 C 111.316406 309.980469 111.386719 308.558594 111.386719 307.136719 C 111.386719 305.710938 111.316406 304.289062 111.175781 302.871094 C 111.035156 301.453125 110.828125 300.046875 110.550781 298.648438 C 110.273438 297.25 109.925781 295.871094 109.511719 294.507812 C 109.097656 293.144531 108.621094 291.804688 108.074219 290.488281 C 107.527344 289.171875 106.921875 287.886719 106.25 286.628906 C 105.578125 285.375 104.847656 284.152344 104.054688 282.96875 C 103.261719 281.785156 102.414062 280.640625 101.511719 279.539062 C 100.609375 278.4375 99.652344 277.382812 98.644531 276.375 C 97.636719 275.367188 96.582031 274.414062 95.480469 273.507812 C 94.378906 272.605469 93.238281 271.757812 92.054688 270.964844 C 90.867188 270.175781 89.648438 269.445312 88.390625 268.773438 C 87.136719 268.101562 85.847656 267.492188 84.53125 266.945312 C 83.214844 266.402344 81.875 265.921875 80.511719 265.507812 C 79.148438 265.09375 77.769531 264.75 76.371094 264.472656 C 74.972656 264.191406 73.566406 263.984375 72.148438 263.84375 C 70.730469 263.707031 69.308594 263.636719 67.886719 263.636719 Z M 67.886719 263.636719 "
        fill-opacity="1" fill-rule="nonzero" />
    <g clip-path="url(#0d1c90460f)">
        <path fill="#00bf63"
            d="M 67.886719 274.511719 C 85.285156 274.511719 100.511719 289.734375 100.511719 307.136719 C 100.511719 324.535156 85.285156 339.761719 67.886719 339.761719 C 50.484375 339.761719 35.261719 324.535156 35.261719 307.136719 C 35.261719 289.734375 50.484375 274.511719 67.886719 274.511719 M 67.886719 252.761719 C 37.433594 252.761719 13.511719 276.683594 13.511719 307.136719 C 13.511719 337.585938 37.433594 361.511719 67.886719 361.511719 C 98.335938 361.511719 122.261719 337.585938 122.261719 307.136719 C 122.261719 276.683594 98.335938 252.761719 67.886719 252.761719 Z M 67.886719 252.761719 "
            fill-opacity="1" fill-rule="nonzero" />
    </g>
    <path fill="#c1ff72"
        d="M 307.136719 176.636719 C 305.710938 176.636719 304.289062 176.707031 302.871094 176.84375 C 301.453125 176.984375 300.046875 177.195312 298.648438 177.472656 C 297.25 177.75 295.871094 178.09375 294.507812 178.507812 C 293.144531 178.921875 291.804688 179.402344 290.488281 179.945312 C 289.171875 180.492188 287.886719 181.101562 286.628906 181.773438 C 285.375 182.445312 284.152344 183.175781 282.96875 183.964844 C 281.785156 184.757812 280.640625 185.605469 279.539062 186.507812 C 278.4375 187.414062 277.382812 188.367188 276.375 189.375 C 275.367188 190.382812 274.414062 191.4375 273.507812 192.539062 C 272.605469 193.640625 271.757812 194.785156 270.964844 195.96875 C 270.175781 197.152344 269.445312 198.375 268.773438 199.628906 C 268.101562 200.886719 267.492188 202.171875 266.945312 203.488281 C 266.402344 204.804688 265.921875 206.144531 265.507812 207.507812 C 265.09375 208.871094 264.75 210.25 264.472656 211.648438 C 264.191406 213.046875 263.984375 214.453125 263.84375 215.871094 C 263.707031 217.289062 263.636719 218.710938 263.636719 220.136719 C 263.636719 221.558594 263.707031 222.980469 263.84375 224.398438 C 263.984375 225.816406 264.191406 227.222656 264.472656 228.621094 C 264.75 230.019531 265.09375 231.398438 265.507812 232.761719 C 265.921875 234.125 266.402344 235.464844 266.945312 236.78125 C 267.492188 238.097656 268.101562 239.382812 268.773438 240.640625 C 269.445312 241.898438 270.175781 243.117188 270.964844 244.304688 C 271.757812 245.488281 272.605469 246.628906 273.507812 247.730469 C 274.414062 248.832031 275.367188 249.886719 276.375 250.894531 C 277.382812 251.902344 278.4375 252.859375 279.539062 253.761719 C 280.640625 254.664062 281.785156 255.511719 282.96875 256.304688 C 284.152344 257.097656 285.375 257.828125 286.628906 258.5 C 287.886719 259.171875 289.171875 259.777344 290.488281 260.324219 C 291.804688 260.871094 293.144531 261.347656 294.507812 261.761719 C 295.871094 262.175781 297.25 262.523438 298.648438 262.800781 C 300.046875 263.078125 301.453125 263.285156 302.871094 263.425781 C 304.289062 263.566406 305.710938 263.636719 307.136719 263.636719 C 308.558594 263.636719 309.980469 263.566406 311.398438 263.425781 C 312.816406 263.285156 314.222656 263.078125 315.621094 262.800781 C 317.019531 262.523438 318.398438 262.175781 319.761719 261.761719 C 321.125 261.347656 322.464844 260.871094 323.78125 260.324219 C 325.097656 259.777344 326.382812 259.171875 327.640625 258.5 C 328.898438 257.828125 330.117188 257.097656 331.304688 256.304688 C 332.488281 255.511719 333.628906 254.664062 334.730469 253.761719 C 335.832031 252.859375 336.886719 251.902344 337.894531 250.894531 C 338.902344 249.886719 339.859375 248.832031 340.761719 247.730469 C 341.664062 246.628906 342.511719 245.488281 343.304688 244.304688 C 344.097656 243.117188 344.828125 241.898438 345.5 240.640625 C 346.171875 239.382812 346.777344 238.097656 347.324219 236.78125 C 347.871094 235.464844 348.347656 234.125 348.761719 232.761719 C 349.175781 231.398438 349.523438 230.019531 349.800781 228.621094 C 350.078125 227.222656 350.285156 225.816406 350.425781 224.398438 C 350.566406 222.980469 350.636719 221.558594 350.636719 220.136719 C 350.636719 218.710938 350.566406 217.289062 350.425781 215.871094 C 350.285156 214.453125 350.078125 213.046875 349.800781 211.648438 C 349.523438 210.25 349.175781 208.871094 348.761719 207.507812 C 348.347656 206.144531 347.871094 204.804688 347.324219 203.488281 C 346.777344 202.171875 346.171875 200.886719 345.5 199.628906 C 344.828125 198.375 344.097656 197.152344 343.304688 195.96875 C 342.511719 194.785156 341.664062 193.640625 340.761719 192.539062 C 339.859375 191.4375 338.902344 190.382812 337.894531 189.375 C 336.886719 188.367188 335.832031 187.414062 334.730469 186.507812 C 333.628906 185.605469 332.488281 184.757812 331.304688 183.964844 C 330.117188 183.175781 328.898438 182.445312 327.640625 181.773438 C 326.382812 181.101562 325.097656 180.492188 323.78125 179.945312 C 322.464844 179.402344 321.125 178.921875 319.761719 178.507812 C 318.398438 178.09375 317.019531 177.75 315.621094 177.472656 C 314.222656 177.195312 312.816406 176.984375 311.398438 176.84375 C 309.980469 176.707031 308.558594 176.636719 307.136719 176.636719 Z M 307.136719 176.636719 "
        fill-opacity="1" fill-rule="nonzero" />
    <g clip-path="url(#6a32adc874)">
        <path fill="#00bf63"
            d="M 307.136719 187.511719 C 324.535156 187.511719 339.761719 202.734375 339.761719 220.136719 C 339.761719 237.535156 324.535156 252.761719 307.136719 252.761719 C 289.734375 252.761719 274.511719 237.535156 274.511719 220.136719 C 274.511719 202.734375 289.734375 187.511719 307.136719 187.511719 M 307.136719 165.761719 C 276.683594 165.761719 252.761719 189.683594 252.761719 220.136719 C 252.761719 250.585938 276.683594 274.511719 307.136719 274.511719 C 337.585938 274.511719 361.511719 250.585938 361.511719 220.136719 C 361.511719 189.683594 337.585938 165.761719 307.136719 165.761719 Z M 307.136719 165.761719 "
            fill-opacity="1" fill-rule="nonzero" />
    </g>
</svg>