<svg xmlns="http://www.w3.org/2000/svg" xmlns:xlink="http://www.w3.org/1999/xlink" width="500" zoomAndPan="magnify"
    viewBox="0 0 375 374.999991" height="500" preserveAspectRatio="xMidYMid meet" version="1.0">
    <defs>
        <clipPath id="bfad793016">
            <path
                d="M 11.269531 18.761719 L 363.769531 18.761719 L 363.769531 356.261719 L 11.269531 356.261719 Z M 11.269531 18.761719 "
                clip-rule="nonzero" />
        </clipPath>
    </defs>
    <g clip-path="url(#bfad793016)">
        <path fill="#00bf63"
            d="M 326.933594 165.5 C 309.894531 165.5 295.667969 177.214844 291.558594 192.980469 L 260.539062 191.351562 C 259.617188 172.109375 251.429688 154.785156 238.429688 142.210938 L 281.164062 88.078125 C 286.121094 90.582031 291.648438 92.128906 297.582031 92.128906 C 317.816406 92.128906 334.269531 75.679688 334.269531 55.445312 C 334.269531 35.210938 317.816406 18.761719 297.582031 18.761719 C 277.347656 18.761719 260.894531 35.210938 260.894531 55.445312 C 260.894531 64.4375 264.269531 72.578125 269.660156 78.964844 L 226.890625 133.140625 C 215.496094 125.84375 202.035156 121.476562 187.519531 121.476562 C 168.476562 121.476562 151.269531 128.953125 138.210938 140.886719 L 79.671875 88.507812 C 82.847656 83.078125 84.796875 76.847656 84.796875 70.117188 C 84.796875 49.886719 68.34375 33.433594 48.109375 33.433594 C 27.875 33.433594 11.421875 49.886719 11.421875 70.117188 C 11.421875 90.351562 27.875 106.804688 48.109375 106.804688 C 56.300781 106.804688 63.792969 104.011719 69.902344 99.460938 L 128.398438 151.792969 C 119.535156 163.917969 114.144531 178.71875 114.144531 194.847656 C 114.144531 209.355469 118.515625 222.8125 125.8125 234.214844 L 71.628906 276.980469 C 65.242188 271.59375 57.105469 268.21875 48.109375 268.21875 C 27.875 268.21875 11.421875 284.667969 11.421875 304.902344 C 11.421875 325.136719 27.875 341.585938 48.109375 341.585938 C 68.34375 341.585938 84.796875 325.136719 84.796875 304.902344 C 84.796875 298.96875 83.25 293.449219 80.742188 288.484375 L 134.875 245.746094 C 148.226562 259.550781 166.851562 268.21875 187.519531 268.21875 C 199.574219 268.21875 210.792969 265.011719 220.84375 259.835938 L 242.574219 293.421875 C 235.78125 300.082031 231.546875 309.332031 231.546875 319.574219 C 231.546875 339.808594 247.996094 356.261719 268.230469 356.261719 C 288.46875 356.261719 304.917969 339.808594 304.917969 319.574219 C 304.917969 299.339844 288.46875 282.890625 268.230469 282.890625 C 263.519531 282.890625 259.054688 283.859375 254.917969 285.480469 L 233.148438 251.847656 C 247.15625 240.605469 256.910156 224.515625 259.765625 205.996094 L 290.792969 207.625 C 293.449219 225.265625 308.558594 238.867188 326.933594 238.867188 C 347.167969 238.867188 363.617188 222.417969 363.617188 202.183594 C 363.617188 181.949219 347.167969 165.5 326.933594 165.5 "
            fill-opacity="1" fill-rule="nonzero" />
    </g>
</svg>