<svg xmlns="http://www.w3.org/2000/svg" xmlns:xlink="http://www.w3.org/1999/xlink" width="500" zoomAndPan="magnify"
    viewBox="0 0 375 374.999991" height="500" preserveAspectRatio="xMidYMid meet" version="1.0">
    <defs>
        <clipPath id="f2e7b3feac">
            <path d="M 22 19.789062 L 182 19.789062 L 182 264 L 22 264 Z M 22 19.789062 " clip-rule="nonzero" />
        </clipPath>
        <clipPath id="5dca52e33a">
            <path d="M 49 197 L 331 197 L 331 355.039062 L 49 355.039062 Z M 49 197 " clip-rule="nonzero" />
        </clipPath>
        <clipPath id="8d8937878b">
            <path d="M 199 19.789062 L 358.269531 19.789062 L 358.269531 264 L 199 264 Z M 199 19.789062 "
                clip-rule="nonzero" />
        </clipPath>
    </defs>
    <g clip-path="url(#f2e7b3feac)">
        <path fill="#7ed957"
            d="M 181.035156 182.023438 L 181.035156 19.789062 C 153.894531 21.046875 130.484375 28.0625 106.214844 42.054688 C 67.363281 64.453125 39.578125 100.621094 27.964844 143.890625 C 17.148438 184.207031 21.582031 226.199219 40.382812 263.125 L 167.683594 189.726562 L 181.035156 182.023438 "
            fill-opacity="1" fill-rule="nonzero" />
    </g>
    <g clip-path="url(#5dca52e33a)">
        <path fill="#c1ff72"
            d="M 49.5 278.960938 C 64.160156 301.8125 81.941406 318.554688 106.214844 332.542969 C 131.746094 347.257812 160.722656 355.039062 190.019531 355.039062 C 246.847656 355.039062 299.984375 326.105469 330.832031 278.945312 L 190.183594 197.847656 L 49.5 278.960938 "
            fill-opacity="1" fill-rule="nonzero" />
    </g>
    <g clip-path="url(#8d8937878b)">
        <path fill="#00bf63"
            d="M 199.328125 19.832031 L 199.328125 182.023438 L 340.015625 263.140625 C 352.496094 239.042969 358.121094 215.285156 358.121094 187.300781 C 358.121094 97.882812 287.695312 24.589844 199.328125 19.832031 "
            fill-opacity="1" fill-rule="nonzero" />
    </g>
</svg>