<svg xmlns="http://www.w3.org/2000/svg" xmlns:xlink="http://www.w3.org/1999/xlink" width="500" zoomAndPan="magnify"
    viewBox="0 0 375 374.999991" height="500" preserveAspectRatio="xMidYMid meet" version="1.0">
    <defs>
        <clipPath id="a58edad454">
            <path d="M 11 20 L 365.707031 20 L 365.707031 356.53125 L 11 356.53125 Z M 11 20 " clip-rule="nonzero" />
        </clipPath>
    </defs>
    <path fill="#7ed957"
        d="M 284.039062 165.261719 L 284.039062 130.488281 L 179.628906 130.488281 C 218.085938 130.488281 249.238281 161.613281 249.238281 200.039062 L 249.238281 246.40625 L 272.4375 246.40625 L 220.234375 298.570312 L 168.027344 246.40625 L 191.230469 246.40625 L 191.230469 211.632812 C 191.230469 198.824219 180.847656 188.449219 168.027344 188.449219 L 86.820312 188.449219 C 106.019531 188.449219 121.625 204.039062 121.625 223.222656 L 121.625 315.960938 L 139.027344 315.960938 L 104.222656 350.738281 L 69.417969 315.960938 L 86.820312 315.960938 L 86.820312 234.816406 C 86.820312 228.441406 81.601562 223.222656 75.21875 223.222656 L 28.8125 223.222656 C 22.433594 223.222656 17.214844 218.007812 17.214844 211.632812 L 17.214844 72.527344 C 17.214844 66.152344 22.433594 60.933594 28.8125 60.933594 L 284.039062 60.933594 L 284.039062 26.160156 L 359.449219 95.710938 Z M 284.039062 165.261719 "
        fill-opacity="1" fill-rule="nonzero" />
    <path fill="#c1ff72"
        d="M 46.214844 78.324219 L 46.214844 205.835938 C 46.214844 215.441406 38.425781 223.222656 28.8125 223.222656 C 22.433594 223.222656 17.214844 218.007812 17.214844 211.632812 L 17.214844 72.527344 C 17.214844 66.152344 22.433594 60.933594 28.8125 60.933594 C 38.425781 60.933594 46.214844 68.71875 46.214844 78.324219 Z M 46.214844 78.324219 "
        fill-opacity="1" fill-rule="nonzero" />
    <path fill="#00bf63"
        d="M 272.4375 246.40625 L 220.234375 298.570312 L 168.027344 246.40625 Z M 139.027344 315.960938 L 104.222656 350.738281 L 69.417969 315.960938 Z M 359.449219 95.710938 L 284.039062 165.261719 L 284.039062 26.160156 Z M 359.449219 95.710938 "
        fill-opacity="1" fill-rule="nonzero" />
    <g clip-path="url(#a58edad454)">
        <path fill="#00bf63"
            d="M 363.378906 91.449219 L 287.972656 21.898438 C 286.277344 20.332031 283.820312 19.925781 281.714844 20.847656 C 279.601562 21.769531 278.238281 23.855469 278.238281 26.160156 L 278.238281 55.136719 L 28.8125 55.136719 C 19.21875 55.136719 11.414062 62.941406 11.414062 72.527344 L 11.414062 211.632812 C 11.414062 221.21875 19.21875 229.019531 28.8125 229.019531 L 75.21875 229.019531 C 78.414062 229.019531 81.019531 231.621094 81.019531 234.816406 L 81.019531 310.164062 L 69.417969 310.164062 C 67.074219 310.164062 64.957031 311.578125 64.058594 313.742188 C 63.160156 315.90625 63.660156 318.402344 65.316406 320.058594 L 100.121094 354.835938 C 101.253906 355.964844 102.738281 356.53125 104.222656 356.53125 C 105.707031 356.53125 107.191406 355.964844 108.324219 354.835938 L 143.125 320.058594 C 144.785156 318.402344 145.285156 315.90625 144.386719 313.742188 C 143.484375 311.578125 141.367188 310.164062 139.027344 310.164062 L 127.425781 310.164062 L 127.425781 223.222656 C 127.425781 211.878906 122.742188 201.609375 115.214844 194.242188 L 168.027344 194.242188 C 177.621094 194.242188 185.429688 202.046875 185.429688 211.632812 L 185.429688 240.613281 L 168.027344 240.613281 C 165.683594 240.613281 163.566406 242.027344 162.667969 244.1875 C 161.769531 246.355469 162.269531 248.847656 163.925781 250.503906 L 216.132812 302.671875 C 218.402344 304.9375 222.066406 304.9375 224.335938 302.671875 L 276.539062 250.503906 C 278.199219 248.847656 278.699219 246.355469 277.796875 244.1875 C 276.898438 242.027344 274.78125 240.613281 272.4375 240.613281 L 255.035156 240.613281 L 255.035156 200.039062 C 255.035156 173.226562 240.949219 149.644531 219.78125 136.28125 L 278.238281 136.28125 L 278.238281 165.261719 C 278.238281 167.5625 279.601562 169.652344 281.714844 170.574219 C 283.824219 171.5 286.277344 171.082031 287.972656 169.523438 L 363.378906 99.972656 C 364.570312 98.871094 365.246094 97.328125 365.246094 95.710938 C 365.246094 94.09375 364.570312 92.550781 363.378906 91.449219 Z M 289.839844 152.023438 L 289.839844 130.488281 C 289.839844 127.289062 287.242188 124.691406 284.039062 124.691406 L 179.628906 124.691406 C 176.425781 124.691406 173.828125 127.289062 173.828125 130.488281 C 173.828125 133.6875 176.425781 136.28125 179.628906 136.28125 C 214.808594 136.28125 243.4375 164.886719 243.4375 200.039062 L 243.4375 246.40625 C 243.4375 249.605469 246.035156 252.203125 249.238281 252.203125 L 258.4375 252.203125 L 220.234375 290.375 L 182.03125 252.203125 L 191.230469 252.203125 C 194.433594 252.203125 197.03125 249.605469 197.03125 246.40625 L 197.03125 211.632812 C 197.03125 195.652344 184.019531 182.652344 168.027344 182.652344 L 86.820312 182.652344 C 83.617188 182.652344 81.019531 185.246094 81.019531 188.449219 C 81.019531 191.648438 83.617188 194.242188 86.820312 194.242188 C 102.8125 194.242188 115.824219 207.242188 115.824219 223.222656 L 115.824219 315.960938 C 115.824219 319.160156 118.421875 321.757812 121.625 321.757812 L 125.023438 321.757812 L 104.222656 342.539062 L 83.421875 321.757812 L 86.820312 321.757812 C 90.023438 321.757812 92.621094 319.160156 92.621094 315.960938 L 92.621094 234.816406 C 92.621094 225.230469 84.8125 217.425781 75.21875 217.425781 L 28.8125 217.425781 C 25.617188 217.425781 23.015625 214.824219 23.015625 211.632812 L 23.015625 72.527344 C 23.015625 69.332031 25.617188 66.730469 28.8125 66.730469 L 284.039062 66.730469 C 287.242188 66.730469 289.839844 64.132812 289.839844 60.933594 L 289.839844 39.394531 L 350.898438 95.710938 Z M 289.839844 152.023438 "
            fill-opacity="1" fill-rule="nonzero" />
    </g>
    <path fill="#00bf63"
        d="M 156.425781 124.691406 L 133.226562 124.691406 C 130.023438 124.691406 127.425781 127.289062 127.425781 130.488281 C 127.425781 133.6875 130.023438 136.28125 133.226562 136.28125 L 156.425781 136.28125 C 159.628906 136.28125 162.226562 133.6875 162.226562 130.488281 C 162.226562 127.289062 159.628906 124.691406 156.425781 124.691406 Z M 52.015625 107.304688 L 40.414062 107.304688 C 37.214844 107.304688 34.613281 109.898438 34.613281 113.097656 C 34.613281 116.296875 37.214844 118.894531 40.414062 118.894531 L 52.015625 118.894531 C 55.21875 118.894531 57.816406 116.296875 57.816406 113.097656 C 57.816406 109.898438 55.21875 107.304688 52.015625 107.304688 Z M 52.015625 136.28125 L 40.414062 136.28125 C 37.214844 136.28125 34.613281 138.878906 34.613281 142.078125 C 34.613281 145.277344 37.214844 147.875 40.414062 147.875 L 52.015625 147.875 C 55.21875 147.875 57.816406 145.277344 57.816406 142.078125 C 57.816406 138.878906 55.21875 136.28125 52.015625 136.28125 Z M 52.015625 78.324219 L 40.414062 78.324219 C 37.214844 78.324219 34.613281 80.917969 34.613281 84.117188 C 34.613281 87.316406 37.214844 89.914062 40.414062 89.914062 L 52.015625 89.914062 C 55.21875 89.914062 57.816406 87.316406 57.816406 84.117188 C 57.816406 80.917969 55.21875 78.324219 52.015625 78.324219 Z M 52.015625 165.261719 L 40.414062 165.261719 C 37.214844 165.261719 34.613281 167.859375 34.613281 171.058594 C 34.613281 174.257812 37.214844 176.855469 40.414062 176.855469 L 52.015625 176.855469 C 55.21875 176.855469 57.816406 174.257812 57.816406 171.058594 C 57.816406 167.859375 55.21875 165.261719 52.015625 165.261719 Z M 52.015625 194.242188 L 40.414062 194.242188 C 37.214844 194.242188 34.613281 196.839844 34.613281 200.039062 C 34.613281 203.238281 37.214844 205.835938 40.414062 205.835938 L 52.015625 205.835938 C 55.21875 205.835938 57.816406 203.238281 57.816406 200.039062 C 57.816406 196.839844 55.21875 194.242188 52.015625 194.242188 Z M 52.015625 194.242188 "
        fill-opacity="1" fill-rule="nonzero" />
</svg>