<svg xmlns="http://www.w3.org/2000/svg" xmlns:xlink="http://www.w3.org/1999/xlink" width="50" zoomAndPan="magnify" viewBox="0 0 37.5 37.499999" height="50" preserveAspectRatio="xMidYMid meet" version="1.0"><defs><clipPath id="6e16c4b446"><path d="M 8 10 L 11 10 L 11 34.007812 L 8 34.007812 Z M 8 10 " clip-rule="nonzero"/></clipPath><clipPath id="4217300e89"><path d="M 8 10 L 10 10 L 10 34.007812 L 8 34.007812 Z M 8 10 " clip-rule="nonzero"/></clipPath><clipPath id="c703495bce"><path d="M 2.921875 2.921875 L 17 2.921875 L 17 13 L 2.921875 13 Z M 2.921875 2.921875 " clip-rule="nonzero"/></clipPath><clipPath id="067e8d7fde"><path d="M 2.921875 2.921875 L 10 2.921875 L 10 13 L 2.921875 13 Z M 2.921875 2.921875 " clip-rule="nonzero"/></clipPath><clipPath id="89b921484a"><path d="M 23 21 L 32 21 L 32 34.007812 L 23 34.007812 Z M 23 21 " clip-rule="nonzero"/></clipPath><clipPath id="f5dcb331da"><path d="M 23 21 L 28 21 L 28 34.007812 L 23 34.007812 Z M 23 21 " clip-rule="nonzero"/></clipPath><clipPath id="eab5506f00"><path d="M 20 2.921875 L 34.007812 2.921875 L 34.007812 13 L 20 13 Z M 20 2.921875 " clip-rule="nonzero"/></clipPath><clipPath id="5056b928b8"><path d="M 20 2.921875 L 28 2.921875 L 28 13 L 20 13 Z M 20 2.921875 " clip-rule="nonzero"/></clipPath></defs><path fill="#c1ff72" d="M 27.121094 10.097656 C 27.722656 10.097656 28.210938 10.582031 28.210938 11.183594 L 28.210938 22.777344 C 28.210938 23.375 27.722656 23.863281 27.121094 23.863281 C 26.523438 23.863281 26.035156 23.375 26.035156 22.777344 L 26.035156 11.183594 C 26.035156 10.582031 26.523438 10.097656 27.121094 10.097656 Z M 27.121094 10.097656 " fill-opacity="1" fill-rule="evenodd"/><path fill="#c1ff72" d="M 27.121094 10.097656 C 26.523438 10.097656 26.035156 10.582031 26.035156 11.183594 L 26.035156 22.777344 C 26.035156 23.375 26.523438 23.863281 27.121094 23.863281 Z M 27.121094 10.097656 " fill-opacity="1" fill-rule="evenodd"/><path fill="#c1ff72" d="M 11.546875 22.777344 C 11.546875 22.175781 12.03125 21.6875 12.632812 21.6875 L 21.328125 21.6875 C 21.925781 21.6875 22.414062 22.175781 22.414062 22.777344 C 22.414062 23.375 21.925781 23.863281 21.328125 23.863281 L 12.632812 23.863281 C 12.03125 23.863281 11.546875 23.375 11.546875 22.777344 Z M 11.546875 22.777344 " fill-opacity="1" fill-rule="evenodd"/><path fill="#c1ff72" d="M 16.9375 18.382812 C 17.359375 17.960938 18.046875 17.960938 18.472656 18.382812 L 22.09375 22.007812 C 22.519531 22.433594 22.519531 23.121094 22.09375 23.542969 L 18.472656 27.167969 C 18.046875 27.589844 17.359375 27.589844 16.9375 27.167969 C 16.511719 26.742188 16.511719 26.054688 16.9375 25.628906 L 19.789062 22.777344 L 16.9375 19.921875 C 16.511719 19.496094 16.511719 18.808594 16.9375 18.382812 Z M 16.9375 18.382812 " fill-opacity="1" fill-rule="evenodd"/><g clip-path="url(#6e16c4b446)"><path fill="#c1ff72" d="M 9.734375 10.097656 C 10.335938 10.097656 10.820312 10.582031 10.820312 11.183594 L 10.820312 15.53125 C 10.820312 16.128906 10.335938 16.617188 9.734375 16.617188 C 9.132812 16.617188 8.648438 16.128906 8.648438 15.53125 L 8.648438 11.183594 C 8.648438 10.582031 9.132812 10.097656 9.734375 10.097656 Z M 9.734375 21.6875 C 10.335938 21.6875 10.820312 22.175781 10.820312 22.777344 L 10.820312 32.917969 C 10.820312 33.519531 10.335938 34.007812 9.734375 34.007812 C 9.132812 34.007812 8.648438 33.519531 8.648438 32.917969 L 8.648438 22.777344 C 8.648438 22.175781 9.132812 21.6875 9.734375 21.6875 Z M 9.734375 21.6875 " fill-opacity="1" fill-rule="evenodd"/></g><g clip-path="url(#4217300e89)"><path fill="#c1ff72" d="M 9.734375 21.6875 C 9.132812 21.6875 8.648438 22.175781 8.648438 22.777344 L 8.648438 32.917969 C 8.648438 33.519531 9.132812 34.007812 9.734375 34.007812 Z M 9.734375 10.097656 C 9.132812 10.097656 8.648438 10.582031 8.648438 11.183594 L 8.648438 15.53125 C 8.648438 16.128906 9.132812 16.617188 9.734375 16.617188 Z M 9.734375 10.097656 " fill-opacity="1" fill-rule="evenodd"/></g><path fill="#00bf63" d="M 6.835938 14.445312 C 6.234375 14.445312 5.75 14.929688 5.75 15.53125 L 5.75 22.777344 C 5.75 23.375 6.234375 23.863281 6.835938 23.863281 L 12.632812 23.863281 C 13.234375 23.863281 13.71875 23.375 13.71875 22.777344 L 13.71875 15.53125 C 13.71875 14.929688 13.234375 14.445312 12.632812 14.445312 Z M 6.835938 14.445312 " fill-opacity="1" fill-rule="nonzero"/><path fill="#00bf63" d="M 9.734375 14.445312 L 9.734375 23.863281 L 6.835938 23.863281 C 6.234375 23.863281 5.75 23.375 5.75 22.777344 L 5.75 15.53125 C 5.75 14.929688 6.234375 14.445312 6.835938 14.445312 Z M 9.734375 14.445312 " fill-opacity="1" fill-rule="evenodd"/><g clip-path="url(#c703495bce)"><path fill="#00bf63" d="M 3.9375 2.851562 C 3.335938 2.851562 2.851562 3.335938 2.851562 3.9375 L 2.851562 11.183594 C 2.851562 11.785156 3.335938 12.269531 3.9375 12.269531 L 15.53125 12.269531 C 16.128906 12.269531 16.617188 11.785156 16.617188 11.183594 L 16.617188 3.9375 C 16.617188 3.335938 16.128906 2.851562 15.53125 2.851562 Z M 3.9375 2.851562 " fill-opacity="1" fill-rule="nonzero"/></g><g clip-path="url(#067e8d7fde)"><path fill="#00bf63" d="M 9.734375 2.851562 L 9.734375 12.269531 L 3.9375 12.269531 C 3.335938 12.269531 2.851562 11.785156 2.851562 11.183594 L 2.851562 3.9375 C 2.851562 3.335938 3.335938 2.851562 3.9375 2.851562 Z M 9.734375 2.851562 " fill-opacity="1" fill-rule="evenodd"/></g><g clip-path="url(#89b921484a)"><path fill="#00bf63" d="M 24.226562 21.6875 C 23.625 21.6875 23.136719 22.175781 23.136719 22.777344 L 23.136719 32.917969 C 23.136719 33.519531 23.625 34.007812 24.226562 34.007812 L 30.019531 34.007812 C 30.621094 34.007812 31.109375 33.519531 31.109375 32.917969 L 31.109375 22.777344 C 31.109375 22.175781 30.621094 21.6875 30.019531 21.6875 Z M 24.226562 21.6875 " fill-opacity="1" fill-rule="nonzero"/></g><g clip-path="url(#f5dcb331da)"><path fill="#00bf63" d="M 27.121094 21.6875 L 27.121094 34.007812 L 24.226562 34.007812 C 23.625 34.007812 23.136719 33.519531 23.136719 32.917969 L 23.136719 22.777344 C 23.136719 22.175781 23.625 21.6875 24.226562 21.6875 Z M 27.121094 21.6875 " fill-opacity="1" fill-rule="evenodd"/></g><g clip-path="url(#eab5506f00)"><path fill="#00bf63" d="M 21.328125 2.851562 C 20.726562 2.851562 20.238281 3.335938 20.238281 3.9375 L 20.238281 11.183594 C 20.238281 11.785156 20.726562 12.269531 21.328125 12.269531 L 32.917969 12.269531 C 33.519531 12.269531 34.007812 11.785156 34.007812 11.183594 L 34.007812 3.9375 C 34.007812 3.335938 33.519531 2.851562 32.917969 2.851562 Z M 21.328125 2.851562 " fill-opacity="1" fill-rule="nonzero"/></g><g clip-path="url(#5056b928b8)"><path fill="#00bf63" d="M 27.121094 2.851562 L 27.121094 12.269531 L 21.328125 12.269531 C 20.726562 12.269531 20.238281 11.785156 20.238281 11.183594 L 20.238281 3.9375 C 20.238281 3.335938 20.726562 2.851562 21.328125 2.851562 Z M 27.121094 2.851562 " fill-opacity="1" fill-rule="evenodd"/></g></svg>