<svg xmlns="http://www.w3.org/2000/svg" xmlns:xlink="http://www.w3.org/1999/xlink" width="500" zoomAndPan="magnify"
    viewBox="0 0 375 374.999991" height="500" preserveAspectRatio="xMidYMid meet" version="1.0">
    <defs>
        <clipPath id="7c544035d4">
            <path d="M 17.066406 20 L 357.566406 20 L 357.566406 106 L 17.066406 106 Z M 17.066406 20 "
                clip-rule="nonzero" />
        </clipPath>
    </defs>
    <g clip-path="url(#7c544035d4)">
        <path fill="#00bf63"
            d="M 332.738281 105.738281 L 41.894531 105.738281 C 28.203125 105.738281 17.066406 94.601562 17.066406 80.910156 L 17.066406 45.441406 C 17.066406 31.75 28.203125 20.613281 41.894531 20.613281 L 332.738281 20.613281 C 346.429688 20.613281 357.566406 31.75 357.566406 45.441406 L 357.566406 80.910156 C 357.566406 94.601562 346.429688 105.738281 332.738281 105.738281 Z M 41.894531 41.894531 C 39.9375 41.894531 38.347656 43.484375 38.347656 45.441406 L 38.347656 80.910156 C 38.347656 82.867188 39.9375 84.457031 41.894531 84.457031 L 332.738281 84.457031 C 334.695312 84.457031 336.285156 82.867188 336.285156 80.910156 L 336.285156 45.441406 C 336.285156 43.484375 334.695312 41.894531 332.738281 41.894531 Z M 41.894531 41.894531 "
            fill-opacity="1" fill-rule="nonzero" />
    </g>
    <path fill="#00bf63"
        d="M 73.816406 354.019531 C 50.351562 354.019531 31.253906 334.921875 31.253906 311.457031 C 31.253906 287.992188 50.351562 268.894531 73.816406 268.894531 C 97.28125 268.894531 116.378906 287.992188 116.378906 311.457031 C 116.378906 334.921875 97.28125 354.019531 73.816406 354.019531 Z M 73.816406 290.175781 C 62.082031 290.175781 52.535156 299.722656 52.535156 311.457031 C 52.535156 323.191406 62.082031 332.738281 73.816406 332.738281 C 85.550781 332.738281 95.097656 323.191406 95.097656 311.457031 C 95.097656 299.722656 85.550781 290.175781 73.816406 290.175781 Z M 73.816406 290.175781 "
        fill-opacity="1" fill-rule="nonzero" />
    <path fill="#00bf63"
        d="M 187.316406 354.019531 C 163.851562 354.019531 144.753906 334.921875 144.753906 311.457031 C 144.753906 287.992188 163.851562 268.894531 187.316406 268.894531 C 210.78125 268.894531 229.878906 287.992188 229.878906 311.457031 C 229.878906 334.921875 210.78125 354.019531 187.316406 354.019531 Z M 187.316406 290.175781 C 175.582031 290.175781 166.035156 299.722656 166.035156 311.457031 C 166.035156 323.191406 175.582031 332.738281 187.316406 332.738281 C 199.050781 332.738281 208.597656 323.191406 208.597656 311.457031 C 208.597656 299.722656 199.050781 290.175781 187.316406 290.175781 Z M 187.316406 290.175781 "
        fill-opacity="1" fill-rule="nonzero" />
    <path fill="#00bf63"
        d="M 300.816406 354.019531 C 277.351562 354.019531 258.253906 334.921875 258.253906 311.457031 C 258.253906 287.992188 277.351562 268.894531 300.816406 268.894531 C 324.28125 268.894531 343.378906 287.992188 343.378906 311.457031 C 343.378906 334.921875 324.28125 354.019531 300.816406 354.019531 Z M 300.816406 290.175781 C 289.082031 290.175781 279.535156 299.722656 279.535156 311.457031 C 279.535156 323.191406 289.082031 332.738281 300.816406 332.738281 C 312.550781 332.738281 322.097656 323.191406 322.097656 311.457031 C 322.097656 299.722656 312.550781 290.175781 300.816406 290.175781 Z M 300.816406 290.175781 "
        fill-opacity="1" fill-rule="nonzero" />
    <path fill="#00bf63"
        d="M 105.738281 197.957031 L 41.894531 197.957031 C 36.019531 197.957031 31.253906 193.191406 31.253906 187.316406 C 31.253906 181.441406 36.019531 176.675781 41.894531 176.675781 L 105.738281 176.675781 C 111.613281 176.675781 116.378906 181.441406 116.378906 187.316406 C 116.378906 193.191406 111.613281 197.957031 105.738281 197.957031 Z M 105.738281 197.957031 "
        fill-opacity="1" fill-rule="nonzero" />
    <path fill="#00bf63"
        d="M 219.238281 197.957031 L 155.394531 197.957031 C 149.519531 197.957031 144.753906 193.191406 144.753906 187.316406 C 144.753906 181.441406 149.519531 176.675781 155.394531 176.675781 L 219.238281 176.675781 C 225.113281 176.675781 229.878906 181.441406 229.878906 187.316406 C 229.878906 193.191406 225.113281 197.957031 219.238281 197.957031 Z M 219.238281 197.957031 "
        fill-opacity="1" fill-rule="nonzero" />
    <path fill="#00bf63"
        d="M 332.738281 197.957031 L 268.894531 197.957031 C 263.019531 197.957031 258.253906 193.191406 258.253906 187.316406 C 258.253906 181.441406 263.019531 176.675781 268.894531 176.675781 L 332.738281 176.675781 C 338.613281 176.675781 343.378906 181.441406 343.378906 187.316406 C 343.378906 193.191406 338.613281 197.957031 332.738281 197.957031 Z M 332.738281 197.957031 "
        fill-opacity="1" fill-rule="nonzero" />
    <path fill="#00bf63"
        d="M 105.738281 155.394531 L 41.894531 155.394531 C 36.019531 155.394531 31.253906 150.628906 31.253906 144.753906 C 31.253906 138.878906 36.019531 134.113281 41.894531 134.113281 L 105.738281 134.113281 C 111.613281 134.113281 116.378906 138.878906 116.378906 144.753906 C 116.378906 150.628906 111.613281 155.394531 105.738281 155.394531 Z M 105.738281 155.394531 "
        fill-opacity="1" fill-rule="nonzero" />
    <path fill="#00bf63"
        d="M 219.238281 155.394531 L 155.394531 155.394531 C 149.519531 155.394531 144.753906 150.628906 144.753906 144.753906 C 144.753906 138.878906 149.519531 134.113281 155.394531 134.113281 L 219.238281 134.113281 C 225.113281 134.113281 229.878906 138.878906 229.878906 144.753906 C 229.878906 150.628906 225.113281 155.394531 219.238281 155.394531 Z M 219.238281 155.394531 "
        fill-opacity="1" fill-rule="nonzero" />
    <path fill="#00bf63"
        d="M 332.738281 155.394531 L 268.894531 155.394531 C 263.019531 155.394531 258.253906 150.628906 258.253906 144.753906 C 258.253906 138.878906 263.019531 134.113281 268.894531 134.113281 L 332.738281 134.113281 C 338.613281 134.113281 343.378906 138.878906 343.378906 144.753906 C 343.378906 150.628906 338.613281 155.394531 332.738281 155.394531 Z M 332.738281 155.394531 "
        fill-opacity="1" fill-rule="nonzero" />
    <path fill="#00bf63"
        d="M 105.738281 240.519531 L 41.894531 240.519531 C 36.019531 240.519531 31.253906 235.753906 31.253906 229.878906 C 31.253906 224.003906 36.019531 219.238281 41.894531 219.238281 L 105.738281 219.238281 C 111.613281 219.238281 116.378906 224.003906 116.378906 229.878906 C 116.378906 235.753906 111.613281 240.519531 105.738281 240.519531 Z M 105.738281 240.519531 "
        fill-opacity="1" fill-rule="nonzero" />
    <path fill="#00bf63"
        d="M 219.238281 240.519531 L 155.394531 240.519531 C 149.519531 240.519531 144.753906 235.753906 144.753906 229.878906 C 144.753906 224.003906 149.519531 219.238281 155.394531 219.238281 L 219.238281 219.238281 C 225.113281 219.238281 229.878906 224.003906 229.878906 229.878906 C 229.878906 235.753906 225.113281 240.519531 219.238281 240.519531 Z M 219.238281 240.519531 "
        fill-opacity="1" fill-rule="nonzero" />
    <path fill="#00bf63"
        d="M 332.738281 240.519531 L 268.894531 240.519531 C 263.019531 240.519531 258.253906 235.753906 258.253906 229.878906 C 258.253906 224.003906 263.019531 219.238281 268.894531 219.238281 L 332.738281 219.238281 C 338.613281 219.238281 343.378906 224.003906 343.378906 229.878906 C 343.378906 235.753906 338.613281 240.519531 332.738281 240.519531 Z M 332.738281 240.519531 "
        fill-opacity="1" fill-rule="nonzero" />
</svg>