<svg xmlns="http://www.w3.org/2000/svg" xmlns:xlink="http://www.w3.org/1999/xlink" width="500" zoomAndPan="magnify"
    viewBox="0 0 375 374.999991" height="500" preserveAspectRatio="xMidYMid meet" version="1.0">
    <defs>
        <clipPath id="992c6176d3">
            <path d="M 4.480469 131.679688 L 104 131.679688 L 104 217 L 4.480469 217 Z M 4.480469 131.679688 "
                clip-rule="nonzero" />
        </clipPath>
        <clipPath id="92f02a52d5">
            <path d="M 181 131.679688 L 281 131.679688 L 281 217 L 181 217 Z M 181 131.679688 " clip-rule="nonzero" />
        </clipPath>
        <clipPath id="b177280221">
            <path d="M 269 157 L 368.980469 157 L 368.980469 242.679688 L 269 242.679688 Z M 269 157 "
                clip-rule="nonzero" />
        </clipPath>
        <clipPath id="27e32d4b02">
            <path d="M 92 157 L 192 157 L 192 242.679688 L 92 242.679688 Z M 92 157 " clip-rule="nonzero" />
        </clipPath>
    </defs>
    <g clip-path="url(#992c6176d3)">
        <path fill="#00bf63"
            d="M 57.300781 135.117188 C 57.300781 136.929688 55.882812 138.410156 54.089844 138.503906 L 54.089844 157.769531 L 84.308594 157.769531 L 103.683594 187.167969 L 84.308594 216.566406 L 54.089844 216.566406 L 54.089844 216.773438 L 53.726562 216.773438 L 53.726562 216.566406 L 4.546875 216.566406 L 23.917969 187.167969 L 4.546875 157.769531 L 53.726562 157.769531 L 53.726562 138.503906 C 51.9375 138.410156 50.515625 136.929688 50.515625 135.117188 C 50.515625 133.246094 52.03125 131.730469 53.910156 131.730469 C 55.785156 131.730469 57.300781 133.246094 57.300781 135.117188 Z M 57.300781 135.117188 "
            fill-opacity="1" fill-rule="evenodd" />
    </g>
    <g clip-path="url(#92f02a52d5)">
        <path fill="#00bf63"
            d="M 230.410156 131.683594 L 230.414062 131.734375 C 228.621094 131.828125 227.199219 133.304688 227.199219 135.117188 C 227.199219 136.960938 228.667969 138.457031 230.503906 138.507812 L 230.757812 157.769531 L 181.230469 157.769531 L 200.601562 187.167969 L 181.230469 216.566406 L 231.535156 216.566406 L 231.539062 216.777344 L 231.902344 216.773438 L 231.902344 216.566406 L 260.984375 216.566406 L 280.355469 187.167969 L 260.984375 157.769531 L 231.121094 157.769531 L 230.867188 138.496094 C 232.617188 138.359375 233.988281 136.902344 233.988281 135.117188 C 233.988281 133.308594 232.566406 131.832031 230.777344 131.734375 L 230.777344 131.679688 Z M 230.410156 131.683594 "
            fill-opacity="1" fill-rule="evenodd" />
    </g>
    <g clip-path="url(#b177280221)">
        <path fill="#c1ff72"
            d="M 318.660156 242.6875 L 318.660156 242.601562 C 317.011719 242.367188 315.746094 240.957031 315.746094 239.246094 C 315.746094 237.550781 316.988281 236.152344 318.617188 235.898438 L 318.492188 216.597656 L 269.777344 216.597656 L 289.160156 187.199219 L 269.777344 157.800781 L 318.113281 157.800781 L 318.109375 157.59375 L 318.476562 157.589844 L 318.476562 157.800781 L 349.542969 157.800781 L 368.914062 187.199219 L 349.542969 216.597656 L 318.855469 216.597656 L 318.980469 235.863281 C 319.035156 235.859375 319.085938 235.859375 319.140625 235.859375 C 321.019531 235.859375 322.535156 237.375 322.535156 239.246094 C 322.535156 241.121094 321.019531 242.636719 319.140625 242.636719 C 319.101562 242.636719 319.0625 242.636719 319.023438 242.632812 L 319.023438 242.683594 Z M 318.660156 242.6875 "
            fill-opacity="1" fill-rule="evenodd" />
    </g>
    <g clip-path="url(#27e32d4b02)">
        <path fill="#c1ff72"
            d="M 141.855469 242.683594 L 141.855469 242.628906 C 140.0625 242.535156 138.644531 241.058594 138.644531 239.246094 C 138.644531 237.433594 140.0625 235.957031 141.855469 235.863281 L 141.855469 216.597656 L 92.671875 216.597656 L 112.046875 187.199219 L 92.671875 157.800781 L 141.855469 157.800781 L 141.855469 157.589844 L 142.21875 157.589844 L 142.21875 157.800781 L 172.417969 157.800781 L 191.808594 187.199219 L 172.417969 216.597656 L 142.21875 216.597656 L 142.21875 235.863281 C 144.011719 235.957031 145.429688 237.433594 145.429688 239.246094 C 145.429688 241.058594 144.011719 242.535156 142.21875 242.628906 L 142.21875 242.683594 Z M 141.855469 242.683594 "
            fill-opacity="1" fill-rule="evenodd" />
    </g>
</svg>