<svg xmlns="http://www.w3.org/2000/svg" xmlns:xlink="http://www.w3.org/1999/xlink" width="500" zoomAndPan="magnify" viewBox="0 0 375 374.999991" height="500" preserveAspectRatio="xMidYMid meet" version="1.0"><defs><clipPath id="24e8d9485c"><path d="M 2.304688 1.316406 L 375 1.316406 L 375 374.011719 L 2.304688 374.011719 Z M 2.304688 1.316406 " clip-rule="nonzero"/></clipPath><clipPath id="58091bdd63"><path d="M 188.652344 1.316406 C 85.734375 1.316406 2.304688 84.75 2.304688 187.664062 C 2.304688 290.582031 85.734375 374.011719 188.652344 374.011719 C 291.570312 374.011719 375 290.582031 375 187.664062 C 375 84.75 291.570312 1.316406 188.652344 1.316406 Z M 188.652344 1.316406 " clip-rule="nonzero"/></clipPath><clipPath id="d8a0965c76"><path d="M 0 96.984375 L 375 96.984375 L 375 278.484375 L 0 278.484375 Z M 0 96.984375 " clip-rule="nonzero"/></clipPath><clipPath id="60b078bd2a"><path d="M 0 101.230469 L 200.769531 101.230469 L 200.769531 273.769531 L 0 273.769531 Z M 0 101.230469 " clip-rule="nonzero"/></clipPath><clipPath id="23f989a38e"><path d="M 200.769531 187.5 L 150.578125 273.769531 L 50.191406 273.769531 L 0 187.5 L 50.191406 101.230469 L 150.578125 101.230469 Z M 200.769531 187.5 " clip-rule="nonzero"/></clipPath></defs><g clip-path="url(#24e8d9485c)"><g clip-path="url(#58091bdd63)"><path fill="#ffffff" d="M 2.304688 1.316406 L 375 1.316406 L 375 374.011719 L 2.304688 374.011719 Z M 2.304688 1.316406 " fill-opacity="1" fill-rule="nonzero"/></g></g><g clip-path="url(#d8a0965c76)"><path fill="#c1ff72" d="M 229.664062 96.984375 L 197.839844 97.023438 L 181.964844 124.601562 L 197.910156 152.140625 L 229.730469 152.101562 L 234.878906 143.160156 L 330.140625 143.160156 C 339.722656 143.160156 347.433594 135.449219 347.433594 125.867188 L 347.433594 123.257812 C 347.433594 113.675781 339.722656 105.964844 330.140625 105.964844 L 234.863281 105.964844 Z M 149.027344 101.875 L 50.027344 101.996094 L 0.632812 187.792969 L 50.238281 273.46875 L 149.238281 273.347656 L 198.632812 187.550781 Z M 256.625 160.09375 L 224.800781 160.132812 L 208.921875 187.710938 L 224.867188 215.25 L 256.691406 215.210938 L 261.839844 206.269531 L 357.097656 206.269531 C 366.679688 206.269531 374.394531 198.554688 374.394531 188.976562 L 374.394531 186.367188 C 374.394531 176.785156 366.679688 169.074219 357.097656 169.074219 L 261.824219 169.074219 Z M 229.664062 223.199219 L 197.839844 223.238281 L 181.964844 250.820312 L 197.910156 278.359375 L 229.730469 278.320312 L 234.878906 269.378906 L 330.140625 269.378906 C 339.722656 269.378906 347.433594 261.664062 347.433594 252.082031 L 347.433594 249.476562 C 347.433594 239.894531 339.722656 232.179688 330.140625 232.179688 L 234.863281 232.179688 Z M 229.664062 223.199219 " fill-opacity="1" fill-rule="nonzero"/></g><g clip-path="url(#60b078bd2a)"><g clip-path="url(#23f989a38e)"><path fill="#00bf63" d="M 0 101.230469 L 200.769531 101.230469 L 200.769531 273.769531 L 0 273.769531 Z M 0 101.230469 " fill-opacity="1" fill-rule="nonzero"/></g></g></svg>