<svg xmlns="http://www.w3.org/2000/svg" xmlns:xlink="http://www.w3.org/1999/xlink" width="500" zoomAndPan="magnify"
    viewBox="0 0 375 374.999991" height="500" preserveAspectRatio="xMidYMid meet" version="1.0">
    <defs>
        <clipPath id="245dc6f014">
            <path d="M 9.230469 160 L 89 160 L 89 257 L 9.230469 257 Z M 9.230469 160 " clip-rule="nonzero" />
        </clipPath>
    </defs>
    <g clip-path="url(#245dc6f014)">
        <path fill="#00bf63"
            d="M 73.496094 207.085938 C 75.136719 204.621094 76.382812 201.972656 77.230469 199.136719 C 78.078125 196.300781 78.488281 193.402344 78.46875 190.445312 C 78.46875 189.464844 78.421875 188.492188 78.324219 187.519531 C 78.230469 186.546875 78.085938 185.578125 77.894531 184.621094 C 77.703125 183.664062 77.46875 182.714844 77.183594 181.78125 C 76.898438 180.84375 76.570312 179.925781 76.199219 179.023438 C 75.824219 178.117188 75.40625 177.238281 74.945312 176.375 C 74.484375 175.511719 73.984375 174.675781 73.441406 173.863281 C 72.898438 173.050781 72.316406 172.265625 71.699219 171.507812 C 71.078125 170.753906 70.421875 170.03125 69.730469 169.339844 C 69.042969 168.648438 68.320312 167.992188 67.5625 167.371094 C 66.808594 166.753906 66.023438 166.171875 65.210938 165.628906 C 64.398438 165.085938 63.5625 164.582031 62.703125 164.121094 C 61.839844 163.660156 60.957031 163.242188 60.054688 162.871094 C 59.152344 162.496094 58.234375 162.167969 57.300781 161.882812 C 56.367188 161.597656 55.417969 161.363281 54.460938 161.171875 C 53.503906 160.980469 52.539062 160.835938 51.566406 160.742188 C 50.59375 160.644531 49.617188 160.597656 48.640625 160.597656 C 47.664062 160.597656 46.691406 160.644531 45.71875 160.742188 C 44.746094 160.835938 43.78125 160.980469 42.824219 161.171875 C 41.867188 161.363281 40.917969 161.597656 39.984375 161.882812 C 39.050781 162.167969 38.132812 162.496094 37.230469 162.871094 C 36.324219 163.242188 35.445312 163.660156 34.582031 164.121094 C 33.722656 164.582031 32.882812 165.085938 32.070312 165.628906 C 31.261719 166.171875 30.476562 166.753906 29.722656 167.371094 C 28.964844 167.992188 28.242188 168.648438 27.550781 169.339844 C 26.863281 170.03125 26.207031 170.753906 25.585938 171.507812 C 24.96875 172.265625 24.386719 173.050781 23.84375 173.863281 C 23.300781 174.675781 22.800781 175.511719 22.339844 176.375 C 21.878906 177.238281 21.460938 178.117188 21.085938 179.023438 C 20.714844 179.925781 20.382812 180.84375 20.101562 181.78125 C 19.816406 182.714844 19.582031 183.664062 19.390625 184.621094 C 19.199219 185.578125 19.054688 186.546875 18.960938 187.519531 C 18.863281 188.492188 18.816406 189.464844 18.816406 190.445312 C 18.820312 193.363281 19.242188 196.21875 20.089844 199.011719 C 20.9375 201.808594 22.167969 204.417969 23.789062 206.847656 C 22.667969 207.59375 21.597656 208.402344 20.578125 209.28125 C 19.5625 210.15625 18.597656 211.09375 17.695312 212.089844 C 16.792969 213.085938 15.953125 214.132812 15.179688 215.230469 C 14.40625 216.332031 13.703125 217.472656 13.070312 218.660156 C 12.4375 219.847656 11.878906 221.070312 11.398438 222.324219 C 10.914062 223.578125 10.511719 224.859375 10.1875 226.164062 C 9.867188 227.472656 9.625 228.792969 9.464844 230.125 C 9.300781 231.460938 9.226562 232.800781 9.230469 234.148438 L 9.230469 256.769531 L 21.066406 256.769531 L 21.066406 234.148438 C 21.070312 233.199219 21.136719 232.253906 21.265625 231.316406 C 21.398438 230.375 21.59375 229.449219 21.851562 228.535156 C 22.109375 227.621094 22.425781 226.730469 22.804688 225.859375 C 23.183594 224.992188 23.621094 224.152344 24.113281 223.339844 C 24.605469 222.53125 25.152344 221.757812 25.75 221.019531 C 26.347656 220.285156 26.996094 219.59375 27.6875 218.945312 C 28.378906 218.296875 29.113281 217.699219 29.886719 217.148438 C 30.660156 216.601562 31.46875 216.109375 32.308594 215.671875 L 33.019531 216.085938 L 34.734375 217.03125 L 37.042969 218.097656 L 39.765625 219.105469 L 40.710938 219.105469 C 43.300781 219.859375 45.945312 220.253906 48.640625 220.289062 C 51.339844 220.253906 53.980469 219.859375 56.570312 219.105469 L 57.519531 219.105469 L 60.242188 218.097656 C 61.019531 217.804688 61.769531 217.449219 62.488281 217.03125 L 64.265625 216.085938 L 64.976562 215.671875 C 65.816406 216.109375 66.625 216.601562 67.398438 217.148438 C 68.171875 217.699219 68.90625 218.296875 69.597656 218.945312 C 70.289062 219.59375 70.9375 220.285156 71.535156 221.019531 C 72.132812 221.757812 72.679688 222.53125 73.171875 223.339844 C 73.664062 224.152344 74.101562 224.992188 74.480469 225.859375 C 74.859375 226.730469 75.175781 227.621094 75.433594 228.535156 C 75.691406 229.449219 75.886719 230.375 76.015625 231.316406 C 76.148438 232.253906 76.214844 233.199219 76.21875 234.148438 L 76.21875 256.769531 L 88.054688 256.769531 L 88.054688 234.148438 C 88.046875 232.8125 87.960938 231.484375 87.792969 230.160156 C 87.625 228.835938 87.375 227.527344 87.046875 226.230469 C 86.71875 224.9375 86.3125 223.667969 85.828125 222.425781 C 85.34375 221.183594 84.785156 219.972656 84.152344 218.796875 C 83.519531 217.621094 82.820312 216.488281 82.046875 215.398438 C 81.277344 214.308594 80.441406 213.273438 79.542969 212.285156 C 78.644531 211.296875 77.691406 210.371094 76.679688 209.5 C 75.667969 208.628906 74.605469 207.824219 73.496094 207.085938 Z M 48.640625 172.679688 C 49.578125 172.628906 50.511719 172.65625 51.445312 172.757812 C 52.375 172.855469 53.296875 173.03125 54.199219 173.277344 C 55.105469 173.523438 55.984375 173.835938 56.839844 174.222656 C 57.695312 174.609375 58.511719 175.058594 59.296875 175.574219 C 60.078125 176.089844 60.816406 176.664062 61.511719 177.292969 C 62.203125 177.925781 62.839844 178.609375 63.425781 179.34375 C 64.011719 180.074219 64.535156 180.851562 64.996094 181.667969 C 65.457031 182.484375 65.851562 183.332031 66.179688 184.210938 C 66.507812 185.089844 66.765625 185.988281 66.949219 186.90625 C 67.136719 187.828125 67.246094 188.753906 67.285156 189.691406 C 67.324219 190.628906 67.289062 191.566406 67.179688 192.496094 C 67.070312 193.429688 66.886719 194.34375 66.632812 195.246094 C 66.378906 196.152344 66.054688 197.027344 65.660156 197.878906 C 65.265625 198.730469 64.808594 199.546875 64.285156 200.324219 C 63.761719 201.101562 63.183594 201.835938 62.542969 202.523438 C 61.90625 203.210938 61.214844 203.84375 60.476562 204.417969 C 59.253906 205.414062 57.925781 206.242188 56.488281 206.894531 C 55.054688 207.550781 53.558594 208.011719 52.003906 208.28125 C 50.449219 208.550781 48.886719 208.621094 47.3125 208.488281 C 45.742188 208.355469 44.210938 208.023438 42.722656 207.5 C 40.710938 206.820312 38.898438 205.792969 37.28125 204.417969 C 36.542969 203.84375 35.851562 203.210938 35.214844 202.523438 C 34.574219 201.835938 33.996094 201.101562 33.472656 200.324219 C 32.949219 199.546875 32.492188 198.730469 32.097656 197.878906 C 31.703125 197.027344 31.378906 196.152344 31.125 195.246094 C 30.871094 194.34375 30.6875 193.429688 30.578125 192.496094 C 30.46875 191.566406 30.433594 190.628906 30.472656 189.691406 C 30.511719 188.753906 30.625 187.828125 30.808594 186.90625 C 30.992188 185.988281 31.25 185.089844 31.578125 184.210938 C 31.90625 183.332031 32.300781 182.484375 32.761719 181.667969 C 33.222656 180.851562 33.746094 180.074219 34.332031 179.34375 C 34.917969 178.609375 35.554688 177.925781 36.246094 177.292969 C 36.941406 176.664062 37.679688 176.089844 38.460938 175.574219 C 39.246094 175.058594 40.066406 174.609375 40.917969 174.222656 C 41.773438 173.835938 42.652344 173.523438 43.558594 173.277344 C 44.464844 173.03125 45.382812 172.855469 46.3125 172.757812 C 47.246094 172.65625 48.179688 172.628906 49.117188 172.679688 Z M 48.640625 172.679688 "
            fill-opacity="1" fill-rule="nonzero" />
    </g>
    <path fill="#00bf63"
        d="M 311.449219 130.632812 C 312.890625 132.191406 314.175781 133.867188 315.304688 135.664062 C 316.433594 137.460938 317.382812 139.347656 318.160156 141.324219 C 318.933594 143.300781 319.519531 145.332031 319.914062 147.417969 C 320.304688 149.5 320.503906 151.605469 320.503906 153.726562 L 320.503906 198.734375 L 332.339844 198.734375 L 332.339844 153.726562 C 332.347656 150.691406 332.058594 147.6875 331.472656 144.710938 C 330.886719 141.730469 330.015625 138.839844 328.859375 136.035156 C 327.699219 133.230469 326.277344 130.566406 324.59375 128.042969 C 322.910156 125.519531 320.992188 123.183594 318.847656 121.039062 L 316.421875 118.847656 C 316.742188 117.066406 316.921875 115.269531 316.953125 113.460938 C 316.953125 112.488281 316.90625 111.523438 316.8125 110.558594 C 316.714844 109.59375 316.574219 108.632812 316.386719 107.683594 C 316.195312 106.730469 315.960938 105.792969 315.679688 104.863281 C 315.398438 103.9375 315.074219 103.023438 314.703125 102.128906 C 314.332031 101.234375 313.917969 100.355469 313.460938 99.5 C 313.003906 98.644531 312.503906 97.816406 311.96875 97.007812 C 311.429688 96.203125 310.851562 95.425781 310.238281 94.675781 C 309.621094 93.925781 308.972656 93.207031 308.289062 92.523438 C 307.601562 91.835938 306.886719 91.1875 306.136719 90.570312 C 305.386719 89.957031 304.609375 89.378906 303.804688 88.839844 C 303 88.300781 302.167969 87.804688 301.3125 87.347656 C 300.457031 86.890625 299.582031 86.476562 298.6875 86.105469 C 297.792969 85.734375 296.882812 85.40625 295.953125 85.125 C 295.027344 84.84375 294.089844 84.609375 293.136719 84.417969 C 292.1875 84.230469 291.230469 84.085938 290.265625 83.992188 C 289.300781 83.898438 288.335938 83.851562 287.367188 83.851562 C 286.394531 83.851562 285.429688 83.898438 284.464844 83.992188 C 283.5 84.085938 282.542969 84.230469 281.59375 84.417969 C 280.640625 84.609375 279.703125 84.84375 278.777344 85.125 C 277.847656 85.40625 276.9375 85.734375 276.042969 86.105469 C 275.148438 86.476562 274.273438 86.890625 273.417969 87.347656 C 272.5625 87.804688 271.730469 88.300781 270.925781 88.839844 C 270.121094 89.378906 269.34375 89.957031 268.59375 90.570312 C 267.84375 91.1875 267.128906 91.835938 266.441406 92.523438 C 265.757812 93.207031 265.109375 93.925781 264.492188 94.675781 C 263.878906 95.425781 263.300781 96.203125 262.761719 97.007812 C 262.226562 97.816406 261.726562 98.644531 261.269531 99.5 C 260.8125 100.355469 260.398438 101.234375 260.027344 102.128906 C 259.65625 103.023438 259.332031 103.9375 259.050781 104.863281 C 258.769531 105.792969 258.535156 106.730469 258.34375 107.683594 C 258.15625 108.632812 258.015625 109.59375 257.917969 110.558594 C 257.824219 111.523438 257.777344 112.488281 257.777344 113.460938 C 257.777344 114.761719 257.777344 116.003906 257.777344 117.25 C 256.390625 118.324219 255.070312 119.472656 253.820312 120.699219 C 252.566406 121.921875 251.386719 123.214844 250.28125 124.578125 C 249.175781 125.9375 248.152344 127.355469 247.210938 128.835938 C 246.269531 130.3125 245.414062 131.839844 244.644531 133.414062 C 243.878906 134.992188 243.203125 136.605469 242.621094 138.261719 C 242.039062 139.914062 241.554688 141.597656 241.167969 143.304688 C 240.777344 145.015625 240.488281 146.742188 240.296875 148.484375 C 240.105469 150.226562 240.015625 151.976562 240.023438 153.726562 L 240.023438 228.9375 C 240.019531 230.804688 239.902344 232.664062 239.664062 234.519531 C 239.425781 236.371094 239.074219 238.203125 238.605469 240.011719 C 238.136719 241.820312 237.554688 243.59375 236.863281 245.328125 C 236.171875 247.066406 235.375 248.75 234.46875 250.386719 C 233.566406 252.019531 232.5625 253.589844 231.457031 255.101562 C 230.355469 256.609375 229.164062 258.039062 227.878906 259.398438 C 226.597656 260.753906 225.234375 262.027344 223.789062 263.210938 C 222.34375 264.398438 220.832031 265.488281 219.25 266.480469 C 218.679688 265.304688 218.035156 264.171875 217.3125 263.082031 C 216.589844 261.992188 215.800781 260.953125 214.941406 259.96875 C 214.082031 258.984375 213.160156 258.058594 212.179688 257.195312 C 211.199219 256.332031 210.164062 255.535156 209.078125 254.8125 C 207.992188 254.085938 206.863281 253.433594 205.6875 252.855469 C 204.515625 252.28125 203.308594 251.785156 202.070312 251.367188 C 200.832031 250.949219 199.574219 250.617188 198.289062 250.367188 C 197.007812 250.117188 195.714844 249.953125 194.410156 249.875 C 193.105469 249.796875 191.800781 249.804688 190.496094 249.902344 C 189.195312 249.996094 187.902344 250.175781 186.625 250.441406 C 185.34375 250.707031 184.089844 251.058594 182.855469 251.492188 C 181.621094 251.921875 180.421875 252.433594 179.257812 253.027344 C 178.09375 253.617188 176.96875 254.285156 175.894531 255.023438 C 174.816406 255.765625 173.792969 256.574219 172.824219 257.449219 C 171.851562 258.324219 170.945312 259.261719 170.097656 260.257812 C 169.25 261.253906 168.472656 262.300781 167.765625 263.402344 C 166.535156 262.453125 165.371094 261.429688 164.277344 260.320312 C 162.207031 258.269531 160.355469 256.03125 158.730469 253.609375 C 157.105469 251.1875 155.734375 248.632812 154.617188 245.9375 C 153.5 243.242188 152.65625 240.464844 152.089844 237.605469 C 151.527344 234.742188 151.246094 231.851562 151.257812 228.9375 L 151.257812 151.953125 C 151.265625 148.257812 150.910156 144.59375 150.195312 140.96875 C 149.480469 137.34375 148.417969 133.824219 147.003906 130.410156 C 145.59375 126.992188 143.859375 123.75 141.808594 120.679688 C 139.753906 117.605469 137.421875 114.765625 134.804688 112.15625 C 132.089844 109.542969 129.152344 107.214844 125.988281 105.167969 C 127.03125 102.097656 127.5625 98.9375 127.585938 95.695312 C 127.585938 94.722656 127.539062 93.757812 127.441406 92.792969 C 127.347656 91.828125 127.207031 90.867188 127.015625 89.917969 C 126.828125 88.964844 126.59375 88.027344 126.3125 87.097656 C 126.03125 86.171875 125.703125 85.257812 125.332031 84.363281 C 124.960938 83.464844 124.546875 82.589844 124.089844 81.734375 C 123.636719 80.878906 123.136719 80.050781 122.597656 79.242188 C 122.058594 78.4375 121.484375 77.660156 120.867188 76.910156 C 120.253906 76.160156 119.605469 75.441406 118.917969 74.757812 C 118.234375 74.070312 117.515625 73.421875 116.765625 72.804688 C 116.019531 72.191406 115.242188 71.613281 114.433594 71.074219 C 113.628906 70.535156 112.800781 70.039062 111.945312 69.582031 C 111.089844 69.125 110.214844 68.710938 109.320312 68.339844 C 108.425781 67.96875 107.511719 67.640625 106.585938 67.359375 C 105.660156 67.078125 104.71875 66.84375 103.769531 66.652344 C 102.820312 66.464844 101.859375 66.320312 100.898438 66.226562 C 99.933594 66.132812 98.964844 66.085938 97.996094 66.085938 C 97.027344 66.085938 96.0625 66.132812 95.097656 66.226562 C 94.132812 66.320312 93.175781 66.464844 92.222656 66.652344 C 91.273438 66.84375 90.335938 67.078125 89.40625 67.359375 C 88.480469 67.640625 87.570312 67.96875 86.671875 68.339844 C 85.777344 68.710938 84.902344 69.125 84.046875 69.582031 C 83.195312 70.039062 82.363281 70.535156 81.558594 71.074219 C 80.753906 71.613281 79.976562 72.191406 79.226562 72.804688 C 78.476562 73.421875 77.757812 74.070312 77.074219 74.757812 C 76.390625 75.441406 75.738281 76.160156 75.125 76.910156 C 74.507812 77.660156 73.933594 78.4375 73.394531 79.242188 C 72.855469 80.050781 72.359375 80.878906 71.902344 81.734375 C 71.445312 82.589844 71.03125 83.464844 70.660156 84.363281 C 70.289062 85.257812 69.964844 86.171875 69.683594 87.097656 C 69.402344 88.027344 69.164062 88.964844 68.976562 89.917969 C 68.789062 90.867188 68.644531 91.828125 68.550781 92.792969 C 68.457031 93.757812 68.40625 94.722656 68.40625 95.695312 C 68.40625 97.890625 68.644531 100.0625 69.117188 102.207031 C 66.96875 103.316406 64.898438 104.558594 62.910156 105.933594 C 60.921875 107.308594 59.027344 108.808594 57.234375 110.429688 C 55.4375 112.050781 53.753906 113.78125 52.179688 115.621094 C 50.609375 117.457031 49.164062 119.390625 47.839844 121.417969 C 46.519531 123.441406 45.332031 125.546875 44.28125 127.726562 C 43.230469 129.90625 42.324219 132.144531 41.5625 134.441406 C 40.800781 136.738281 40.191406 139.074219 39.734375 141.449219 C 39.273438 143.824219 38.96875 146.21875 38.820312 148.636719 L 50.65625 149.347656 C 50.777344 147.457031 51.023438 145.582031 51.386719 143.722656 C 51.75 141.863281 52.230469 140.035156 52.828125 138.238281 C 53.425781 136.441406 54.132812 134.691406 54.957031 132.984375 C 55.777344 131.277344 56.703125 129.628906 57.734375 128.042969 C 58.769531 126.453125 59.898438 124.9375 61.121094 123.496094 C 62.347656 122.050781 63.660156 120.691406 65.0625 119.417969 C 66.460938 118.144531 67.933594 116.960938 69.484375 115.875 C 71.035156 114.789062 72.648438 113.804688 74.324219 112.925781 C 74.972656 113.816406 75.664062 114.667969 76.402344 115.480469 C 77.144531 116.292969 77.925781 117.058594 78.75 117.785156 C 79.578125 118.511719 80.441406 119.1875 81.339844 119.816406 C 82.242188 120.445312 83.175781 121.019531 84.140625 121.546875 C 85.105469 122.070312 86.097656 122.539062 87.113281 122.953125 C 88.132812 123.371094 89.167969 123.726562 90.226562 124.023438 C 91.28125 124.324219 92.351562 124.5625 93.4375 124.742188 C 94.519531 124.921875 95.609375 125.039062 96.707031 125.097656 C 97.804688 125.15625 98.902344 125.152344 99.996094 125.089844 C 101.09375 125.023438 102.183594 124.898438 103.265625 124.714844 C 104.347656 124.527344 105.417969 124.285156 106.472656 123.980469 C 107.527344 123.671875 108.5625 123.3125 109.578125 122.890625 C 110.59375 122.472656 111.582031 121.996094 112.542969 121.464844 C 113.507812 120.933594 114.4375 120.351562 115.332031 119.71875 C 116.230469 119.085938 117.089844 118.402344 117.910156 117.671875 C 118.734375 116.945312 119.511719 116.171875 120.246094 115.355469 C 122.554688 116.875 124.683594 118.613281 126.636719 120.566406 C 128.6875 122.628906 130.515625 124.871094 132.117188 127.296875 C 133.722656 129.722656 135.074219 132.285156 136.171875 134.976562 C 137.269531 137.671875 138.089844 140.445312 138.636719 143.304688 C 139.183594 146.160156 139.445312 149.042969 139.421875 151.953125 L 139.421875 228.9375 C 139.414062 232.632812 139.765625 236.292969 140.480469 239.917969 C 141.195312 243.542969 142.261719 247.0625 143.671875 250.480469 C 145.085938 253.894531 146.816406 257.136719 148.871094 260.207031 C 150.921875 263.28125 153.257812 266.121094 155.871094 268.730469 C 158.234375 270.914062 160.757812 272.886719 163.445312 274.652344 C 163.195312 276.183594 163.078125 277.722656 163.09375 279.273438 C 163.09375 280.242188 163.140625 281.210938 163.234375 282.175781 C 163.328125 283.140625 163.472656 284.097656 163.660156 285.046875 C 163.851562 286 164.085938 286.9375 164.367188 287.867188 C 164.648438 288.796875 164.972656 289.707031 165.34375 290.601562 C 165.714844 291.5 166.128906 292.375 166.585938 293.230469 C 167.042969 294.085938 167.539062 294.914062 168.078125 295.722656 C 168.617188 296.527344 169.195312 297.304688 169.808594 298.054688 C 170.421875 298.804688 171.074219 299.523438 171.757812 300.207031 C 172.445312 300.894531 173.160156 301.546875 173.910156 302.160156 C 174.660156 302.777344 175.4375 303.351562 176.242188 303.890625 C 177.046875 304.429688 177.878906 304.929688 178.734375 305.386719 C 179.585938 305.84375 180.460938 306.257812 181.359375 306.628906 C 182.253906 307 183.164062 307.324219 184.089844 307.605469 C 185.019531 307.886719 185.957031 308.125 186.910156 308.3125 C 187.859375 308.5 188.816406 308.644531 189.78125 308.738281 C 190.746094 308.832031 191.710938 308.882812 192.679688 308.882812 C 193.648438 308.882812 194.617188 308.832031 195.582031 308.738281 C 196.546875 308.644531 197.503906 308.5 198.453125 308.3125 C 199.402344 308.125 200.34375 307.886719 201.269531 307.605469 C 202.199219 307.324219 203.109375 307 204.003906 306.628906 C 204.898438 306.257812 205.773438 305.84375 206.628906 305.386719 C 207.484375 304.929688 208.3125 304.429688 209.121094 303.890625 C 209.925781 303.351562 210.703125 302.777344 211.453125 302.160156 C 212.199219 301.546875 212.917969 300.894531 213.601562 300.207031 C 214.289062 299.523438 214.9375 298.804688 215.554688 298.054688 C 216.167969 297.304688 216.746094 296.527344 217.28125 295.722656 C 217.820312 294.914062 218.320312 294.085938 218.777344 293.230469 C 219.234375 292.375 219.648438 291.5 220.015625 290.601562 C 220.386719 289.707031 220.714844 288.796875 220.996094 287.867188 C 221.277344 286.9375 221.511719 286 221.703125 285.046875 C 221.890625 284.097656 222.03125 283.140625 222.128906 282.175781 C 222.222656 281.210938 222.269531 280.242188 222.269531 279.273438 C 222.269531 278.917969 222.269531 278.621094 222.269531 278.265625 C 224.492188 277.078125 226.625 275.742188 228.664062 274.265625 C 230.707031 272.789062 232.640625 271.183594 234.46875 269.445312 C 236.292969 267.707031 237.992188 265.855469 239.566406 263.886719 C 241.144531 261.917969 242.578125 259.855469 243.875 257.691406 C 245.171875 255.53125 246.316406 253.292969 247.3125 250.972656 C 248.308594 248.65625 249.140625 246.285156 249.816406 243.855469 C 250.492188 241.425781 251 238.960938 251.339844 236.464844 C 251.683594 233.96875 251.855469 231.457031 251.859375 228.9375 L 251.859375 153.726562 C 251.855469 151.433594 252.082031 149.160156 252.539062 146.910156 C 252.996094 144.660156 253.675781 142.476562 254.578125 140.363281 C 255.476562 138.253906 256.582031 136.253906 257.886719 134.363281 C 259.191406 132.476562 260.675781 130.738281 262.332031 129.152344 C 262.65625 129.664062 262.992188 130.164062 263.34375 130.65625 C 263.695312 131.148438 264.0625 131.628906 264.445312 132.097656 C 264.824219 132.566406 265.21875 133.023438 265.628906 133.46875 C 266.039062 133.910156 266.460938 134.34375 266.898438 134.761719 C 267.332031 135.179688 267.78125 135.585938 268.242188 135.976562 C 268.703125 136.367188 269.175781 136.746094 269.660156 137.105469 C 270.144531 137.46875 270.636719 137.816406 271.140625 138.148438 C 271.648438 138.480469 272.160156 138.796875 272.6875 139.097656 C 273.210938 139.398438 273.742188 139.683594 274.285156 139.949219 C 274.828125 140.21875 275.375 140.46875 275.933594 140.703125 C 276.488281 140.9375 277.054688 141.152344 277.625 141.351562 C 278.195312 141.550781 278.769531 141.734375 279.351562 141.898438 C 279.933594 142.0625 280.519531 142.207031 281.109375 142.335938 C 281.699219 142.464844 282.292969 142.574219 282.890625 142.667969 C 283.488281 142.757812 284.085938 142.832031 284.6875 142.886719 C 285.289062 142.941406 285.894531 142.980469 286.496094 142.996094 C 287.101562 143.015625 287.707031 143.015625 288.308594 142.996094 C 288.914062 142.976562 289.515625 142.941406 290.117188 142.886719 C 290.71875 142.828125 291.316406 142.753906 291.914062 142.664062 C 292.511719 142.570312 293.105469 142.460938 293.695312 142.332031 C 294.285156 142.203125 294.871094 142.054688 295.453125 141.890625 C 296.035156 141.726562 296.609375 141.542969 297.179688 141.34375 C 297.75 141.140625 298.3125 140.925781 298.871094 140.691406 C 299.429688 140.457031 299.976562 140.203125 300.519531 139.9375 C 301.058594 139.667969 301.59375 139.382812 302.117188 139.082031 C 302.640625 138.78125 303.15625 138.464844 303.660156 138.132812 C 304.164062 137.800781 304.65625 137.453125 305.140625 137.089844 C 305.625 136.726562 306.097656 136.347656 306.558594 135.957031 C 307.015625 135.566406 307.464844 135.160156 307.898438 134.742188 C 308.335938 134.324219 308.757812 133.890625 309.167969 133.445312 C 309.574219 133 309.972656 132.542969 310.351562 132.074219 C 310.734375 131.605469 311.097656 131.125 311.449219 130.632812 Z M 113.382812 104.515625 C 112.605469 105.875 111.667969 107.105469 110.566406 108.214844 C 109.464844 109.324219 108.242188 110.269531 106.890625 111.054688 C 105.539062 111.839844 104.109375 112.4375 102.601562 112.84375 C 101.09375 113.253906 99.558594 113.457031 97.996094 113.460938 C 97.136719 113.453125 96.28125 113.386719 95.429688 113.257812 C 94.582031 113.128906 93.746094 112.9375 92.921875 112.6875 C 92.101562 112.433594 91.300781 112.125 90.523438 111.757812 C 89.746094 111.390625 88.996094 110.96875 88.28125 110.492188 C 87.566406 110.015625 86.886719 109.492188 86.246094 108.917969 C 85.605469 108.339844 85.011719 107.722656 84.460938 107.0625 C 83.910156 106.402344 83.410156 105.703125 82.960938 104.96875 C 82.511719 104.234375 82.121094 103.472656 81.78125 102.679688 C 80.738281 100.46875 80.226562 98.140625 80.242188 95.695312 C 80.242188 95.113281 80.273438 94.53125 80.328125 93.953125 C 80.386719 93.375 80.472656 92.796875 80.585938 92.226562 C 80.699219 91.65625 80.839844 91.09375 81.007812 90.535156 C 81.175781 89.980469 81.371094 89.433594 81.59375 88.894531 C 81.816406 88.359375 82.066406 87.832031 82.339844 87.320312 C 82.613281 86.804688 82.914062 86.308594 83.234375 85.824219 C 83.558594 85.339844 83.902344 84.875 84.273438 84.421875 C 84.640625 83.972656 85.03125 83.542969 85.441406 83.132812 C 85.855469 82.71875 86.285156 82.328125 86.734375 81.960938 C 87.183594 81.589844 87.648438 81.246094 88.132812 80.921875 C 88.617188 80.597656 89.113281 80.300781 89.628906 80.027344 C 90.140625 79.75 90.664062 79.503906 91.203125 79.28125 C 91.738281 79.058594 92.285156 78.863281 92.84375 78.691406 C 93.398438 78.523438 93.960938 78.382812 94.53125 78.269531 C 95.101562 78.15625 95.679688 78.070312 96.257812 78.011719 C 96.835938 77.957031 97.414062 77.929688 97.996094 77.929688 C 98.578125 77.929688 99.15625 77.957031 99.738281 78.011719 C 100.316406 78.070312 100.890625 78.15625 101.460938 78.269531 C 102.03125 78.382812 102.59375 78.523438 103.148438 78.691406 C 103.707031 78.863281 104.253906 79.058594 104.789062 79.28125 C 105.328125 79.503906 105.851562 79.75 106.367188 80.027344 C 106.878906 80.300781 107.375 80.597656 107.859375 80.921875 C 108.34375 81.246094 108.808594 81.589844 109.257812 81.960938 C 109.707031 82.328125 110.140625 82.71875 110.550781 83.132812 C 110.960938 83.542969 111.351562 83.972656 111.71875 84.421875 C 112.089844 84.875 112.433594 85.339844 112.757812 85.824219 C 113.082031 86.308594 113.378906 86.804688 113.652344 87.320312 C 113.925781 87.832031 114.175781 88.359375 114.398438 88.894531 C 114.621094 89.433594 114.816406 89.980469 114.984375 90.535156 C 115.152344 91.09375 115.296875 91.65625 115.410156 92.226562 C 115.523438 92.796875 115.605469 93.375 115.664062 93.953125 C 115.722656 94.53125 115.75 95.113281 115.75 95.695312 C 115.742188 98.84375 114.953125 101.785156 113.382812 104.515625 Z M 192.679688 297.039062 C 192.097656 297.039062 191.519531 297.007812 190.941406 296.953125 C 190.363281 296.894531 189.789062 296.808594 189.21875 296.695312 C 188.648438 296.582031 188.082031 296.441406 187.527344 296.273438 C 186.972656 296.105469 186.425781 295.90625 185.886719 295.683594 C 185.351562 295.460938 184.824219 295.214844 184.3125 294.941406 C 183.800781 294.664062 183.300781 294.367188 182.816406 294.042969 C 182.335938 293.71875 181.867188 293.375 181.417969 293.003906 C 180.96875 292.636719 180.539062 292.246094 180.128906 291.835938 C 179.714844 291.421875 179.328125 290.992188 178.957031 290.542969 C 178.589844 290.09375 178.242188 289.625 177.917969 289.140625 C 177.597656 288.65625 177.296875 288.160156 177.023438 287.648438 C 176.75 287.132812 176.5 286.609375 176.277344 286.070312 C 176.054688 285.53125 175.859375 284.984375 175.691406 284.429688 C 175.523438 283.871094 175.382812 283.308594 175.269531 282.738281 C 175.15625 282.167969 175.070312 281.59375 175.011719 281.011719 C 174.957031 280.433594 174.925781 279.855469 174.925781 279.273438 C 174.910156 277.476562 175.164062 275.71875 175.695312 274 C 175.988281 273.054688 176.359375 272.140625 176.804688 271.257812 C 177.25 270.375 177.765625 269.535156 178.351562 268.738281 C 178.9375 267.941406 179.585938 267.199219 180.296875 266.511719 C 181.003906 265.820312 181.765625 265.199219 182.582031 264.636719 C 183.394531 264.074219 184.25 263.585938 185.144531 263.167969 C 186.042969 262.75 186.964844 262.40625 187.917969 262.144531 C 188.871094 261.878906 189.839844 261.695312 190.824219 261.59375 C 191.808594 261.492188 192.792969 261.472656 193.777344 261.535156 C 194.765625 261.597656 195.742188 261.742188 196.703125 261.96875 C 197.664062 262.195312 198.601562 262.5 199.515625 262.882812 C 200.425781 263.261719 201.300781 263.71875 202.136719 264.246094 C 202.972656 264.777344 203.757812 265.371094 204.496094 266.03125 C 205.230469 266.691406 205.90625 267.40625 206.523438 268.179688 C 207.140625 268.953125 207.691406 269.769531 208.171875 270.636719 C 208.652344 271.5 209.054688 272.398438 209.386719 273.332031 C 209.714844 274.265625 209.96875 275.21875 210.136719 276.191406 C 210.339844 277.210938 210.4375 278.234375 210.433594 279.273438 C 210.433594 279.855469 210.40625 280.433594 210.347656 281.011719 C 210.292969 281.59375 210.207031 282.167969 210.09375 282.738281 C 209.980469 283.308594 209.839844 283.871094 209.667969 284.429688 C 209.5 284.984375 209.304688 285.53125 209.082031 286.070312 C 208.859375 286.609375 208.613281 287.132812 208.339844 287.648438 C 208.0625 288.160156 207.765625 288.65625 207.441406 289.140625 C 207.121094 289.625 206.773438 290.09375 206.40625 290.542969 C 206.035156 290.992188 205.644531 291.421875 205.234375 291.835938 C 204.824219 292.246094 204.394531 292.636719 203.945312 293.003906 C 203.492188 293.375 203.027344 293.71875 202.542969 294.042969 C 202.0625 294.367188 201.5625 294.664062 201.050781 294.941406 C 200.535156 295.214844 200.011719 295.460938 199.476562 295.683594 C 198.9375 295.90625 198.390625 296.105469 197.835938 296.273438 C 197.277344 296.441406 196.714844 296.582031 196.144531 296.695312 C 195.574219 296.808594 195 296.894531 194.421875 296.953125 C 193.84375 297.007812 193.261719 297.039062 192.679688 297.039062 Z M 304.113281 119.382812 C 303.808594 120.242188 303.441406 121.074219 303.007812 121.878906 C 302.574219 122.683594 302.082031 123.449219 301.53125 124.179688 C 300.980469 124.90625 300.378906 125.589844 299.722656 126.222656 C 299.066406 126.859375 298.367188 127.441406 297.621094 127.96875 C 296.875 128.496094 296.09375 128.960938 295.277344 129.367188 C 294.460938 129.773438 293.617188 130.117188 292.746094 130.390625 C 291.875 130.667969 290.988281 130.875 290.085938 131.015625 C 289.183594 131.15625 288.277344 131.226562 287.367188 131.226562 C 286.398438 131.222656 285.441406 131.144531 284.488281 130.984375 C 283.535156 130.828125 282.601562 130.59375 281.683594 130.28125 C 280.769531 129.972656 279.886719 129.589844 279.035156 129.136719 C 278.183594 128.679688 277.371094 128.160156 276.605469 127.570312 C 275.839844 126.984375 275.125 126.339844 274.460938 125.636719 C 273.800781 124.929688 273.199219 124.179688 272.660156 123.375 C 272.121094 122.574219 271.648438 121.734375 271.246094 120.855469 C 270.84375 119.976562 270.515625 119.070312 270.261719 118.136719 C 269.828125 116.609375 269.613281 115.050781 269.613281 113.460938 C 269.613281 112.878906 269.640625 112.296875 269.699219 111.71875 C 269.753906 111.140625 269.839844 110.5625 269.953125 109.992188 C 270.066406 109.421875 270.207031 108.859375 270.375 108.300781 C 270.546875 107.746094 270.742188 107.199219 270.964844 106.660156 C 271.1875 106.125 271.433594 105.597656 271.707031 105.085938 C 271.980469 104.570312 272.28125 104.074219 272.605469 103.589844 C 272.925781 103.105469 273.273438 102.640625 273.640625 102.1875 C 274.011719 101.738281 274.402344 101.308594 274.8125 100.898438 C 275.222656 100.484375 275.652344 100.09375 276.101562 99.726562 C 276.550781 99.355469 277.019531 99.011719 277.503906 98.6875 C 277.984375 98.363281 278.484375 98.066406 278.996094 97.792969 C 279.507812 97.515625 280.035156 97.269531 280.570312 97.046875 C 281.109375 96.824219 281.65625 96.628906 282.210938 96.457031 C 282.769531 96.289062 283.332031 96.148438 283.902344 96.035156 C 284.472656 95.921875 285.046875 95.835938 285.625 95.78125 C 286.203125 95.722656 286.785156 95.695312 287.367188 95.695312 C 287.945312 95.695312 288.527344 95.722656 289.105469 95.78125 C 289.683594 95.835938 290.257812 95.921875 290.828125 96.035156 C 291.398438 96.148438 291.960938 96.289062 292.519531 96.457031 C 293.074219 96.628906 293.621094 96.824219 294.160156 97.046875 C 294.695312 97.269531 295.222656 97.515625 295.734375 97.792969 C 296.246094 98.066406 296.746094 98.363281 297.226562 98.6875 C 297.710938 99.011719 298.179688 99.355469 298.628906 99.726562 C 299.078125 100.09375 299.507812 100.484375 299.917969 100.898438 C 300.328125 101.308594 300.71875 101.738281 301.089844 102.1875 C 301.457031 102.640625 301.804688 103.105469 302.125 103.589844 C 302.449219 104.074219 302.75 104.570312 303.023438 105.085938 C 303.296875 105.597656 303.542969 106.125 303.765625 106.660156 C 303.988281 107.199219 304.183594 107.746094 304.355469 108.300781 C 304.523438 108.859375 304.664062 109.421875 304.777344 109.992188 C 304.890625 110.5625 304.976562 111.140625 305.03125 111.71875 C 305.089844 112.296875 305.117188 112.878906 305.117188 113.460938 C 305.148438 115.496094 304.8125 117.46875 304.113281 119.382812 Z M 304.113281 119.382812 "
        fill-opacity="1" fill-rule="nonzero" />
    <path fill="#00bf63"
        d="M 363.765625 235.035156 C 363.433594 234.027344 362.972656 233.082031 362.382812 232.203125 C 361.789062 231.320312 361.089844 230.539062 360.277344 229.851562 C 359.46875 229.167969 358.582031 228.605469 357.613281 228.167969 C 356.648438 227.730469 355.640625 227.433594 354.589844 227.277344 L 342.753906 225.738281 L 337.191406 214.546875 C 336.722656 213.578125 336.125 212.695312 335.402344 211.898438 C 334.679688 211.101562 333.859375 210.421875 332.941406 209.859375 C 332.023438 209.296875 331.046875 208.875 330.007812 208.597656 C 328.96875 208.316406 327.914062 208.1875 326.835938 208.210938 C 325.804688 208.238281 324.792969 208.402344 323.804688 208.707031 C 322.816406 209.011719 321.886719 209.445312 321.015625 210 C 320.144531 210.558594 319.363281 211.226562 318.675781 211.996094 C 317.984375 212.769531 317.410156 213.617188 316.953125 214.546875 L 311.804688 225.5 L 299.4375 227.277344 C 298.386719 227.429688 297.378906 227.726562 296.410156 228.164062 C 295.441406 228.597656 294.554688 229.160156 293.742188 229.84375 C 292.933594 230.53125 292.230469 231.3125 291.640625 232.195312 C 291.050781 233.078125 290.589844 234.023438 290.265625 235.035156 C 289.90625 236.058594 289.699219 237.109375 289.644531 238.191406 C 289.589844 239.269531 289.691406 240.339844 289.949219 241.390625 C 290.207031 242.441406 290.609375 243.433594 291.15625 244.371094 C 291.703125 245.304688 292.375 246.140625 293.164062 246.878906 L 301.980469 255.230469 L 299.554688 267.429688 C 299.394531 268.464844 299.378906 269.507812 299.503906 270.546875 C 299.632812 271.589844 299.898438 272.597656 300.300781 273.566406 C 300.707031 274.535156 301.238281 275.429688 301.890625 276.25 C 302.542969 277.074219 303.296875 277.792969 304.148438 278.40625 C 305 279.019531 305.917969 279.503906 306.90625 279.863281 C 307.890625 280.222656 308.910156 280.4375 309.957031 280.515625 C 311 280.589844 312.039062 280.523438 313.066406 280.3125 C 314.09375 280.101562 315.074219 279.753906 316.007812 279.273438 L 326.601562 273.351562 L 337.726562 279.273438 C 338.652344 279.765625 339.632812 280.117188 340.660156 280.332031 C 341.6875 280.550781 342.722656 280.617188 343.773438 280.539062 C 344.820312 280.460938 345.835938 280.238281 346.820312 279.871094 C 347.804688 279.503906 348.71875 279.007812 349.5625 278.382812 C 350.417969 277.777344 351.175781 277.066406 351.835938 276.246094 C 352.492188 275.425781 353.023438 274.535156 353.433594 273.566406 C 353.839844 272.597656 354.109375 271.59375 354.234375 270.550781 C 354.359375 269.507812 354.34375 268.464844 354.175781 267.429688 L 351.929688 255.585938 L 360.863281 246.820312 C 361.644531 246.078125 362.304688 245.242188 362.84375 244.3125 C 363.382812 243.382812 363.78125 242.398438 364.039062 241.351562 C 364.292969 240.308594 364.398438 239.25 364.351562 238.175781 C 364.308594 237.101562 364.109375 236.054688 363.765625 235.035156 Z M 343.644531 246.878906 C 343 247.53125 342.449219 248.253906 341.980469 249.039062 C 341.515625 249.828125 341.148438 250.660156 340.886719 251.539062 C 340.625 252.414062 340.472656 253.3125 340.425781 254.226562 C 340.382812 255.140625 340.449219 256.046875 340.625 256.945312 L 342.578125 268.316406 L 332.398438 262.988281 C 331.582031 262.558594 330.726562 262.234375 329.832031 262.015625 C 328.933594 261.792969 328.027344 261.683594 327.101562 261.683594 C 326.179688 261.683594 325.273438 261.792969 324.375 262.015625 C 323.480469 262.234375 322.625 262.558594 321.808594 262.988281 L 311.628906 268.316406 L 313.582031 256.945312 C 313.730469 256.042969 313.769531 255.132812 313.703125 254.222656 C 313.632812 253.308594 313.457031 252.417969 313.171875 251.546875 C 312.890625 250.675781 312.507812 249.847656 312.027344 249.070312 C 311.546875 248.292969 310.976562 247.582031 310.328125 246.9375 L 302.042969 238.882812 L 313.460938 237.226562 C 314.359375 237.109375 315.226562 236.886719 316.066406 236.5625 C 316.910156 236.238281 317.703125 235.816406 318.441406 235.300781 C 319.183594 234.785156 319.855469 234.191406 320.453125 233.515625 C 321.050781 232.839844 321.5625 232.101562 321.984375 231.304688 L 326.957031 220.644531 L 332.164062 231.304688 C 332.589844 232.105469 333.101562 232.847656 333.707031 233.523438 C 334.308594 234.203125 334.984375 234.800781 335.730469 235.316406 C 336.476562 235.828125 337.273438 236.25 338.121094 236.574219 C 338.96875 236.894531 339.84375 237.113281 340.742188 237.226562 L 352.105469 238.882812 Z M 343.644531 246.878906 "
        fill-opacity="1" fill-rule="nonzero" />
</svg>