<svg xmlns="http://www.w3.org/2000/svg" xmlns:xlink="http://www.w3.org/1999/xlink" width="500" zoomAndPan="magnify" viewBox="0 0 375 374.999991" height="500" preserveAspectRatio="xMidYMid meet" version="1.0"><defs><clipPath id="51aeeaa8cf"><path d="M 77.578125 0 L 297.328125 0 L 297.328125 375 L 77.578125 375 Z M 77.578125 0 " clip-rule="nonzero"/></clipPath></defs><g clip-path="url(#51aeeaa8cf)"><path fill="#c1ff72" d="M 206.625 159 L 297.226562 0 L 97.199219 196.800781 L 103.949219 213.300781 L 161.550781 213.300781 L 77.773438 375 L 260.398438 175.425781 L 253.648438 159 Z M 206.625 159 " fill-opacity="1" fill-rule="nonzero"/><path fill="#1ed266" d="M 253.648438 159 L 260.398438 175.5 L 77.773438 375 L 176.851562 213.300781 L 103.949219 213.300781 L 97.199219 196.800781 L 118.949219 196.800781 L 297.226562 0 L 197.175781 175.425781 L 240.226562 175.425781 Z M 253.648438 159 " fill-opacity="1" fill-rule="nonzero"/><path fill="#c1ff72" d="M 190.425781 159 L 253.648438 159 L 77.773438 375 L 170.101562 196.800781 L 97.199219 196.800781 L 297.226562 0 Z M 190.425781 159 " fill-opacity="1" fill-rule="nonzero"/></g></svg>