<svg xmlns="http://www.w3.org/2000/svg" xmlns:xlink="http://www.w3.org/1999/xlink" width="500" zoomAndPan="magnify"
    viewBox="0 0 375 374.999991" height="500" preserveAspectRatio="xMidYMid meet" version="1.0">
    <defs>
        <clipPath id="70d8c20487">
            <path d="M 13.335938 39 L 360 39 L 360 337.5 L 13.335938 337.5 Z M 13.335938 39 " clip-rule="nonzero" />
        </clipPath>
    </defs>
    <g clip-path="url(#70d8c20487)">
        <path fill="#cb6ce6"
            d="M 254.980469 195.929688 C 243.207031 195.929688 233.667969 186.375 233.667969 174.59375 C 233.667969 162.8125 243.207031 153.257812 254.980469 153.257812 C 266.753906 153.257812 276.296875 162.8125 276.296875 174.59375 C 276.296875 186.375 266.753906 195.929688 254.980469 195.929688 Z M 183.933594 195.929688 C 172.160156 195.929688 162.617188 186.375 162.617188 174.59375 C 162.617188 162.8125 172.160156 153.257812 183.933594 153.257812 C 195.707031 153.257812 205.246094 162.8125 205.246094 174.59375 C 205.246094 186.375 195.707031 195.929688 183.933594 195.929688 Z M 112.886719 195.929688 C 101.113281 195.929688 91.570312 186.375 91.570312 174.59375 C 91.570312 162.8125 101.113281 153.257812 112.886719 153.257812 C 124.660156 153.257812 134.203125 162.8125 134.203125 174.59375 C 134.203125 186.375 124.660156 195.929688 112.886719 195.929688 Z M 189.519531 39.425781 C 93.960938 37.539062 15.308594 96.480469 13.839844 171.066406 C 13.328125 196.996094 22.222656 221.402344 38.046875 242.292969 L 38.042969 242.292969 C 65.257812 277.292969 35.554688 337.457031 35.554688 337.457031 L 123.257812 299.652344 C 142.152344 305.628906 162.683594 309.109375 184.199219 309.535156 C 279.753906 311.417969 358.410156 252.480469 359.878906 177.894531 C 361.347656 103.304688 285.074219 41.3125 189.519531 39.425781 "
            fill-opacity="1" fill-rule="evenodd" />
    </g>
</svg>