<svg xmlns="http://www.w3.org/2000/svg" xmlns:xlink="http://www.w3.org/1999/xlink" width="500" zoomAndPan="magnify" viewBox="0 0 375 374.999991" height="500" preserveAspectRatio="xMidYMid meet" version="1.0"><defs><clipPath id="9890a57a0a"><path d="M 138 73 L 238 73 L 238 303.992188 L 138 303.992188 Z M 138 73 " clip-rule="nonzero"/></clipPath></defs><path fill="#cb6ce6" d="M 105.316406 271.140625 C 100.382812 271.140625 97.089844 269.5 93.800781 266.210938 L 27.992188 200.507812 C 21.410156 193.9375 21.410156 184.082031 27.992188 177.511719 L 93.800781 111.808594 C 100.382812 105.238281 110.253906 105.238281 116.835938 111.808594 C 123.414062 118.378906 123.414062 128.234375 116.835938 134.804688 L 62.542969 189.011719 L 116.835938 243.214844 C 123.414062 249.785156 123.414062 259.640625 116.835938 266.210938 C 113.542969 269.5 110.253906 271.140625 105.316406 271.140625 Z M 105.316406 271.140625 " fill-opacity="1" fill-rule="nonzero"/><path fill="#cb6ce6" d="M 269.839844 271.140625 C 264.90625 271.140625 261.613281 269.5 258.324219 266.210938 C 251.742188 259.640625 251.742188 249.785156 258.324219 243.214844 L 312.617188 189.011719 L 258.324219 134.804688 C 251.742188 128.234375 251.742188 118.378906 258.324219 111.808594 C 264.90625 105.238281 274.777344 105.238281 281.355469 111.808594 L 347.167969 177.511719 C 353.746094 184.082031 353.746094 193.9375 347.167969 200.507812 L 281.355469 266.210938 C 278.066406 269.5 274.777344 271.140625 269.839844 271.140625 Z M 269.839844 271.140625 " fill-opacity="1" fill-rule="nonzero"/><g clip-path="url(#9890a57a0a)"><path fill="#cb6ce6" d="M 154.675781 303.992188 C 153.027344 303.992188 151.382812 303.992188 149.738281 302.351562 C 141.511719 299.066406 136.578125 290.851562 139.867188 280.996094 L 205.675781 83.882812 C 208.96875 75.671875 217.191406 70.742188 227.066406 74.027344 C 235.289062 77.3125 240.226562 85.527344 236.9375 95.382812 L 171.125 292.496094 C 167.835938 299.066406 161.253906 303.992188 154.675781 303.992188 Z M 154.675781 303.992188 " fill-opacity="1" fill-rule="nonzero"/></g></svg>