<svg xmlns="http://www.w3.org/2000/svg" xmlns:xlink="http://www.w3.org/1999/xlink" width="40" zoomAndPan="magnify" viewBox="0 0 30 30.000001" height="40" preserveAspectRatio="xMidYMid meet" version="1.0"><defs><clipPath id="73e9310baf"><path d="M 0.484375 3.429688 L 29.515625 3.429688 L 29.515625 25.707031 L 0.484375 25.707031 Z M 0.484375 3.429688 " clip-rule="nonzero"/></clipPath></defs><g clip-path="url(#73e9310baf)"><path fill="#ff3131" d="M 29.234375 22.539062 C 29.414062 22.710938 29.515625 22.953125 29.515625 23.203125 C 29.515625 23.457031 29.414062 23.695312 29.234375 23.871094 L 27.710938 25.425781 C 27.539062 25.609375 27.300781 25.707031 27.046875 25.707031 C 26.796875 25.707031 26.558594 25.609375 26.382812 25.425781 L 22.535156 21.566406 L 18.691406 25.425781 C 18.519531 25.609375 18.277344 25.707031 18.027344 25.707031 C 17.777344 25.707031 17.535156 25.609375 17.363281 25.425781 L 15.84375 23.898438 C 15.660156 23.726562 15.558594 23.484375 15.558594 23.230469 C 15.558594 22.980469 15.660156 22.738281 15.84375 22.566406 L 19.6875 18.6875 L 15.84375 14.828125 C 15.660156 14.652344 15.558594 14.414062 15.558594 14.164062 C 15.558594 13.910156 15.660156 13.667969 15.84375 13.496094 L 17.363281 11.941406 C 17.535156 11.757812 17.777344 11.65625 18.027344 11.65625 C 18.277344 11.65625 18.519531 11.757812 18.691406 11.941406 L 22.527344 15.800781 L 26.382812 11.941406 C 26.558594 11.757812 26.796875 11.65625 27.046875 11.65625 C 27.300781 11.65625 27.539062 11.757812 27.710938 11.941406 L 29.234375 13.464844 C 29.414062 13.640625 29.515625 13.878906 29.515625 14.132812 C 29.515625 14.386719 29.414062 14.625 29.234375 14.796875 L 25.382812 18.6875 Z M 1.492188 7.476562 L 22.984375 7.476562 C 23.542969 7.476562 23.992188 7.023438 23.992188 6.464844 L 23.992188 4.441406 C 23.992188 3.882812 23.542969 3.429688 22.984375 3.429688 L 1.492188 3.429688 C 0.933594 3.429688 0.484375 3.882812 0.484375 4.441406 L 0.484375 6.464844 C 0.488281 7.019531 0.9375 7.472656 1.492188 7.476562 Z M 14.082031 18.300781 L 1.492188 18.300781 C 0.933594 18.300781 0.484375 18.753906 0.484375 19.3125 L 0.484375 21.335938 C 0.484375 21.894531 0.933594 22.347656 1.492188 22.347656 L 10.960938 22.347656 C 11.40625 22.34375 11.835938 22.164062 12.152344 21.851562 L 14.535156 19.449219 C 14.722656 19.257812 14.777344 18.964844 14.671875 18.714844 C 14.566406 18.464844 14.324219 18.304688 14.058594 18.300781 Z M 1.492188 14.882812 L 9.46875 14.882812 C 9.914062 14.886719 10.335938 14.710938 10.648438 14.394531 L 13.078125 11.996094 C 13.277344 11.804688 13.339844 11.515625 13.238281 11.257812 C 13.132812 11 12.882812 10.835938 12.609375 10.839844 L 1.492188 10.839844 C 1.222656 10.839844 0.964844 10.949219 0.773438 11.140625 C 0.585938 11.335938 0.480469 11.597656 0.484375 11.867188 L 0.484375 13.890625 C 0.484375 14.449219 0.933594 14.902344 1.492188 14.902344 Z M 1.492188 7.476562 L 22.984375 7.476562 C 23.542969 7.476562 23.992188 7.023438 23.992188 6.464844 L 23.992188 4.441406 C 23.992188 3.882812 23.542969 3.429688 22.984375 3.429688 L 1.492188 3.429688 C 0.933594 3.429688 0.484375 3.882812 0.484375 4.441406 L 0.484375 6.464844 C 0.488281 7.019531 0.9375 7.472656 1.492188 7.476562 " fill-opacity="1" fill-rule="nonzero"/></g></svg>