<svg xmlns="http://www.w3.org/2000/svg" xmlns:xlink="http://www.w3.org/1999/xlink" width="500" zoomAndPan="magnify" viewBox="0 0 375 374.999991" height="500" preserveAspectRatio="xMidYMid meet" version="1.0"><path fill="#ff3131" d="M 125.558594 315.847656 C 131.695312 315.847656 136.71875 310.824219 136.71875 304.6875 L 136.71875 178.570312 C 136.71875 172.433594 131.695312 167.410156 125.558594 167.410156 C 119.417969 167.410156 114.398438 172.433594 114.398438 178.570312 L 114.398438 304.6875 C 114.398438 310.824219 119.417969 315.847656 125.558594 315.847656 Z M 125.558594 315.847656 " fill-opacity="1" fill-rule="nonzero"/><path fill="#ff3131" d="M 187.5 315.847656 C 193.636719 315.847656 198.660156 310.824219 198.660156 304.6875 L 198.660156 178.570312 C 198.660156 172.433594 193.636719 167.410156 187.5 167.410156 C 181.363281 167.410156 176.339844 172.433594 176.339844 178.570312 L 176.339844 304.6875 C 176.339844 310.824219 181.363281 315.847656 187.5 315.847656 Z M 187.5 315.847656 " fill-opacity="1" fill-rule="nonzero"/><path fill="#ff3131" d="M 249.441406 315.847656 C 255.582031 315.847656 260.601562 310.824219 260.601562 304.6875 L 260.601562 178.570312 C 260.601562 172.433594 255.582031 167.410156 249.441406 167.410156 C 243.304688 167.410156 238.28125 172.433594 238.28125 178.570312 L 238.28125 304.6875 C 238.28125 310.824219 243.304688 315.847656 249.441406 315.847656 Z M 249.441406 315.847656 " fill-opacity="1" fill-rule="nonzero"/><path fill="#ff3131" d="M 351.003906 88.726562 C 351.003906 65.847656 332.589844 47.433594 309.710938 47.433594 L 253.90625 47.433594 L 253.90625 33.480469 C 253.90625 15.066406 238.839844 0 220.425781 0 L 154.574219 0 C 136.160156 0 121.09375 15.066406 121.09375 33.480469 L 121.09375 47.433594 L 65.289062 47.433594 C 42.410156 47.433594 23.996094 65.847656 23.996094 88.726562 C 23.996094 106.585938 35.15625 121.652344 51.339844 127.789062 L 51.339844 341.519531 C 51.339844 359.933594 66.40625 375 84.820312 375 L 290.738281 375 C 309.152344 375 324.21875 359.933594 324.21875 341.519531 L 324.21875 127.789062 C 339.84375 122.210938 351.003906 106.585938 351.003906 88.726562 Z M 301.339844 341.519531 C 301.339844 347.65625 296.316406 352.679688 290.179688 352.679688 L 84.820312 352.679688 C 78.683594 352.679688 73.660156 347.65625 73.660156 341.519531 L 73.660156 130.582031 L 301.898438 130.582031 L 301.898438 341.519531 Z M 309.710938 108.257812 L 65.289062 108.257812 C 54.6875 108.257812 46.316406 99.886719 46.316406 89.285156 C 46.316406 78.683594 54.6875 70.3125 65.289062 70.3125 L 132.253906 70.3125 C 138.394531 70.3125 143.414062 65.289062 143.414062 59.152344 L 143.414062 34.039062 C 143.414062 27.902344 148.4375 22.878906 154.574219 22.878906 L 220.425781 22.878906 C 226.5625 22.878906 231.585938 27.902344 231.585938 34.039062 L 231.585938 59.152344 C 231.585938 65.289062 236.605469 70.3125 242.746094 70.3125 L 309.710938 70.3125 C 320.3125 70.3125 328.683594 78.683594 328.683594 89.285156 C 328.683594 99.332031 320.3125 108.257812 309.710938 108.257812 Z M 309.710938 108.257812 " fill-opacity="1" fill-rule="nonzero"/></svg>