<svg xmlns="http://www.w3.org/2000/svg" xmlns:xlink="http://www.w3.org/1999/xlink" width="500" zoomAndPan="magnify" viewBox="0 0 375 374.999991" height="500" preserveAspectRatio="xMidYMid meet" version="1.0"><defs><clipPath id="4ed2208408"><path d="M 96.820312 0 L 278.320312 0 L 278.320312 374.996094 L 96.820312 374.996094 Z M 96.820312 0 " clip-rule="nonzero"/></clipPath><clipPath id="5f47abe374"><path d="M 96.820312 174.042969 L 273.605469 174.042969 L 273.605469 374.996094 L 96.820312 374.996094 Z M 96.820312 174.042969 " clip-rule="nonzero"/></clipPath><clipPath id="f32b7469ca"><path d="M 185.210938 174.226562 L 273.605469 224.421875 L 273.605469 324.804688 L 185.210938 374.996094 L 96.820312 324.804688 L 96.820312 224.421875 Z M 185.210938 174.226562 " clip-rule="nonzero"/></clipPath><clipPath id="5888a9e606"><path d="M 128.25 225 L 240.75 225 L 240.75 337.5 L 128.25 337.5 Z M 128.25 225 " clip-rule="nonzero"/></clipPath><clipPath id="1f2c0b2f29"><path d="M 184.5 337.5 L 128.25 281.25 L 156.375 281.25 L 156.375 225 L 212.625 225 L 212.625 281.25 L 240.75 281.25 Z M 184.5 337.5 " clip-rule="nonzero"/></clipPath></defs><g clip-path="url(#4ed2208408)"><path fill="#c1ff72" d="M 96.820312 145.332031 L 96.859375 177.15625 L 124.4375 193.035156 L 151.976562 177.089844 L 151.9375 145.265625 L 142.996094 140.117188 L 142.996094 44.859375 C 142.996094 35.277344 135.285156 27.5625 125.703125 27.5625 L 123.09375 27.5625 C 113.515625 27.5625 105.800781 35.277344 105.800781 44.859375 L 105.800781 140.132812 Z M 101.710938 225.96875 L 101.832031 324.96875 L 187.628906 374.363281 L 273.304688 324.757812 L 273.183594 225.757812 L 187.386719 176.363281 Z M 159.929688 118.375 L 159.96875 150.199219 L 187.546875 166.074219 L 215.085938 150.128906 L 215.046875 118.308594 L 206.105469 113.160156 L 206.105469 17.898438 C 206.105469 8.316406 198.394531 0.605469 188.8125 0.605469 L 186.203125 0.605469 C 176.621094 0.605469 168.910156 8.316406 168.910156 17.898438 L 168.910156 113.175781 Z M 223.039062 145.332031 L 223.078125 177.15625 L 250.65625 193.035156 L 278.195312 177.089844 L 278.15625 145.265625 L 269.214844 140.117188 L 269.214844 44.859375 C 269.214844 35.277344 261.5 27.5625 251.921875 27.5625 L 249.3125 27.5625 C 239.730469 27.5625 232.019531 35.277344 232.019531 44.859375 L 232.019531 140.132812 Z M 223.039062 145.332031 " fill-opacity="1" fill-rule="nonzero"/></g><g clip-path="url(#5f47abe374)"><g clip-path="url(#f32b7469ca)"><path fill="#00bf63" d="M 96.820312 374.996094 L 96.820312 174.042969 L 273.605469 174.042969 L 273.605469 374.996094 Z M 96.820312 374.996094 " fill-opacity="1" fill-rule="nonzero"/></g></g><g clip-path="url(#5888a9e606)"><g clip-path="url(#1f2c0b2f29)"><path fill="#c1ff72" d="M 128.25 225 L 240.75 225 L 240.75 337.5 L 128.25 337.5 Z M 128.25 225 " fill-opacity="1" fill-rule="nonzero"/></g></g></svg>