<svg xmlns="http://www.w3.org/2000/svg" xmlns:xlink="http://www.w3.org/1999/xlink" width="500" zoomAndPan="magnify" viewBox="0 0 375 374.999991" height="500" preserveAspectRatio="xMidYMid meet" version="1.0"><path fill="#1ed266" d="M 187.378906 374.921875 C 178.644531 374.921875 169.902344 374.292969 161.175781 373.03125 C 136.90625 369.523438 113.878906 361.261719 92.726562 348.476562 C 71.574219 335.691406 53.554688 319.140625 39.167969 299.285156 C 25.277344 280.109375 15.347656 258.683594 9.65625 235.59375 C 3.964844 212.507812 2.796875 188.921875 6.183594 165.488281 C 9.695312 141.21875 17.953125 118.1875 30.738281 97.035156 C 48.894531 67 75.058594 42.96875 106.410156 27.53125 C 136.914062 12.511719 170.902344 6.246094 204.691406 9.417969 C 211.609375 10.066406 216.691406 16.199219 216.042969 23.121094 C 215.394531 30.039062 209.261719 35.125 202.339844 34.472656 C 173.183594 31.734375 143.855469 37.140625 117.523438 50.105469 C 90.5 63.414062 67.9375 84.140625 52.273438 110.054688 C 41.238281 128.304688 34.109375 148.167969 31.085938 169.085938 C 28.164062 189.296875 29.175781 209.648438 34.085938 229.574219 C 39 249.496094 47.5625 267.984375 59.542969 284.523438 C 71.941406 301.636719 87.488281 315.910156 105.742188 326.945312 C 123.992188 337.980469 143.855469 345.105469 164.773438 348.132812 C 184.984375 351.050781 205.335938 350.042969 225.261719 345.132812 C 245.183594 340.21875 263.671875 331.652344 280.210938 319.671875 C 297.324219 307.273438 311.597656 291.730469 322.632812 273.476562 C 335.433594 252.296875 342.933594 229.144531 344.917969 204.667969 C 346.816406 181.316406 343.390625 157.363281 335.019531 135.398438 C 332.546875 128.90625 335.804688 121.636719 342.292969 119.160156 C 348.785156 116.6875 356.054688 119.945312 358.53125 126.4375 C 368.230469 151.878906 372.195312 179.636719 370 206.699219 C 368.875 220.535156 366.164062 234.25 361.9375 247.460938 C 357.589844 261.042969 351.609375 274.175781 344.167969 286.488281 C 331.382812 307.640625 314.832031 325.660156 294.972656 340.046875 C 275.796875 353.9375 254.371094 363.863281 231.285156 369.558594 C 216.792969 373.128906 202.101562 374.917969 187.378906 374.917969 Z M 187.378906 374.921875 " fill-opacity="1" fill-rule="nonzero"/><path fill="#1ed266" d="M 141.953125 292.597656 C 135.566406 292.597656 129.300781 290.503906 124.152344 286.550781 C 117.472656 281.417969 113.332031 273.660156 112.785156 265.25 L 110.507812 230.027344 C 109.976562 221.824219 112.367188 213.664062 117.242188 207.046875 L 258.054688 15.84375 C 267.609375 2.863281 285.945312 0.0820312 298.921875 9.640625 L 339.589844 39.585938 C 345.875 44.214844 349.984375 51.015625 351.152344 58.734375 C 352.324219 66.453125 350.421875 74.167969 345.792969 80.453125 L 205.285156 271.246094 C 200.105469 278.277344 192.535156 283.089844 183.972656 284.792969 L 147.664062 292.027344 C 145.769531 292.402344 143.855469 292.589844 141.957031 292.589844 Z M 281.589844 29.113281 C 280.339844 29.113281 279.105469 29.6875 278.3125 30.769531 L 137.5 221.972656 C 136.136719 223.828125 135.46875 226.113281 135.617188 228.40625 L 137.894531 263.628906 C 137.996094 265.230469 138.929688 266.175781 139.476562 266.59375 C 140.023438 267.011719 141.171875 267.671875 142.746094 267.355469 L 179.054688 260.128906 C 181.453125 259.648438 183.574219 258.300781 185.019531 256.332031 L 325.527344 65.542969 C 326.398438 64.363281 326.371094 63.144531 326.273438 62.519531 C 326.179688 61.898438 325.847656 60.726562 324.664062 59.855469 L 284 29.90625 C 283.273438 29.375 282.429688 29.117188 281.589844 29.117188 Z M 281.589844 29.113281 " fill-opacity="1" fill-rule="nonzero"/><path fill="#1ed266" d="M 313.164062 110.792969 C 310.570312 110.792969 307.960938 109.996094 305.710938 108.34375 L 246.523438 64.753906 C 240.929688 60.632812 239.734375 52.757812 243.855469 47.164062 C 247.976562 41.570312 255.851562 40.371094 261.445312 44.492188 L 320.632812 88.082031 C 326.226562 92.203125 327.425781 100.078125 323.304688 105.671875 C 320.835938 109.019531 317.023438 110.792969 313.164062 110.792969 Z M 313.164062 110.792969 " fill-opacity="1" fill-rule="nonzero"/></svg>