<svg xmlns="http://www.w3.org/2000/svg" xmlns:xlink="http://www.w3.org/1999/xlink" width="500" zoomAndPan="magnify" viewBox="0 0 375 374.999991" height="500" preserveAspectRatio="xMidYMid meet" version="1.0"><defs><clipPath id="4a80bd1345"><path d="M 7.304688 363.3125 L 11.054688 363.3125 L 11.054688 367.0625 L 7.304688 367.0625 Z M 7.304688 363.3125 " clip-rule="nonzero"/></clipPath><clipPath id="c63ba2024d"><path d="M 9.179688 363.3125 C 10.214844 363.3125 11.054688 364.152344 11.054688 365.1875 C 11.054688 366.226562 10.214844 367.0625 9.179688 367.0625 C 8.144531 367.0625 7.304688 366.226562 7.304688 365.1875 C 7.304688 364.152344 8.144531 363.3125 9.179688 363.3125 Z M 9.179688 363.3125 " clip-rule="nonzero"/></clipPath></defs><path fill="#003399" d="M 375 187.5 C 375 291.054688 291.054688 375 187.5 375 C 83.945312 375 0 291.054688 0 187.5 C 0 83.945312 83.945312 0 187.5 0 C 291.054688 0 375 83.945312 375 187.5 Z M 375 187.5 " fill-opacity="1" fill-rule="nonzero"/><path fill="#ffcc00" d="M 209.726562 42.273438 L 195.992188 52.253906 L 201.238281 68.40625 L 187.5 58.421875 L 173.761719 68.40625 L 179.007812 52.253906 L 165.273438 42.273438 L 182.253906 42.273438 L 187.5 26.125 L 192.746094 42.273438 Z M 192.746094 322.742188 L 187.5 306.59375 L 182.253906 322.742188 L 165.273438 322.742188 L 179.007812 332.722656 L 173.761719 348.875 L 187.5 338.890625 L 201.238281 348.875 L 195.992188 332.722656 L 209.726562 322.742188 Z M 52.511719 182.507812 L 47.265625 166.359375 L 42.019531 182.507812 L 25.039062 182.507812 L 38.773438 192.488281 L 33.527344 208.640625 L 47.265625 198.65625 L 61.003906 208.640625 L 55.757812 192.488281 L 69.492188 182.507812 Z M 122.628906 61.0625 L 117.382812 44.914062 L 112.136719 61.0625 L 95.15625 61.0625 L 108.890625 71.042969 L 103.644531 87.195312 L 117.382812 77.210938 L 131.121094 87.195312 L 125.875 71.042969 L 139.609375 61.0625 Z M 71.300781 112.390625 L 66.054688 96.242188 L 60.804688 112.390625 L 43.824219 112.390625 L 57.5625 122.375 L 52.316406 138.523438 L 66.054688 128.542969 L 79.792969 138.523438 L 74.542969 122.371094 L 88.28125 112.390625 Z M 71.300781 252.625 L 66.054688 236.476562 L 60.804688 252.625 L 43.824219 252.625 L 57.5625 262.609375 L 52.316406 278.757812 L 66.054688 268.777344 L 79.792969 278.757812 L 74.542969 262.605469 L 88.28125 252.625 Z M 122.628906 303.957031 L 117.382812 287.808594 L 112.136719 303.957031 L 95.15625 303.957031 L 108.890625 313.9375 L 103.644531 330.089844 L 117.382812 320.105469 L 131.121094 330.089844 L 125.875 313.9375 L 139.609375 303.957031 Z M 332.980469 182.507812 L 327.734375 166.359375 L 322.488281 182.507812 L 305.507812 182.507812 L 319.242188 192.488281 L 313.996094 208.640625 L 327.734375 198.65625 L 341.472656 208.640625 L 336.226562 192.488281 L 349.960938 182.507812 Z M 262.863281 61.0625 L 257.617188 44.914062 L 252.371094 61.0625 L 235.390625 61.0625 L 249.125 71.042969 L 243.878906 87.195312 L 257.617188 77.210938 L 271.355469 87.195312 L 266.109375 71.042969 L 279.84375 61.0625 Z M 314.195312 112.390625 L 308.945312 96.242188 L 303.699219 112.390625 L 286.71875 112.390625 L 300.457031 122.371094 L 295.207031 138.523438 L 308.945312 128.542969 L 322.683594 138.523438 L 317.4375 122.375 L 331.175781 112.390625 Z M 314.195312 252.625 L 308.945312 236.476562 L 303.699219 252.625 L 286.71875 252.625 L 300.457031 262.605469 L 295.207031 278.757812 L 308.945312 268.777344 L 322.683594 278.757812 L 317.4375 262.609375 L 331.175781 252.625 Z M 262.863281 303.957031 L 257.617188 287.808594 L 252.371094 303.957031 L 235.390625 303.957031 L 249.125 313.9375 L 243.878906 330.089844 L 257.617188 320.105469 L 271.355469 330.089844 L 266.109375 313.9375 L 279.84375 303.957031 Z M 262.863281 303.957031 " fill-opacity="1" fill-rule="nonzero"/><path fill="#ffffff" d="M 238.351562 163.808594 L 238.351562 145.929688 C 238.351562 122.308594 219.132812 103.089844 195.511719 103.089844 L 176.59375 103.089844 C 152.96875 103.089844 133.753906 122.308594 133.753906 145.929688 L 133.753906 163.808594 C 125.402344 165.753906 119.175781 173.226562 119.175781 182.167969 L 119.175781 243.464844 C 119.175781 253.886719 127.625 262.332031 138.046875 262.332031 L 234.058594 262.332031 C 244.480469 262.332031 252.925781 253.886719 252.925781 243.464844 L 252.925781 182.167969 C 252.925781 173.226562 246.699219 165.753906 238.351562 163.808594 Z M 194.769531 217.460938 L 194.769531 236.195312 C 194.769531 241.039062 190.84375 244.964844 186 244.964844 C 181.15625 244.964844 177.230469 241.039062 177.230469 236.195312 L 177.230469 217.394531 C 171.589844 214.28125 167.769531 208.28125 167.769531 201.382812 C 167.769531 191.285156 175.953125 183.097656 186.050781 183.097656 C 196.148438 183.097656 204.335938 191.285156 204.335938 201.382812 C 204.335938 208.324219 200.46875 214.363281 194.769531 217.460938 Z M 224.320312 163.300781 L 147.785156 163.300781 L 147.785156 145.929688 C 147.785156 130.046875 160.707031 117.125 176.59375 117.125 L 195.511719 117.125 C 211.398438 117.125 224.320312 130.046875 224.320312 145.929688 Z M 224.320312 163.300781 " fill-opacity="1" fill-rule="nonzero"/><g clip-path="url(#4a80bd1345)"><g clip-path="url(#c63ba2024d)"><path fill="#ffffff" d="M 7.304688 363.3125 L 11.054688 363.3125 L 11.054688 367.0625 L 7.304688 367.0625 Z M 7.304688 363.3125 " fill-opacity="1" fill-rule="nonzero"/></g></g></svg>