<svg xmlns="http://www.w3.org/2000/svg" xmlns:xlink="http://www.w3.org/1999/xlink" width="500" zoomAndPan="magnify" viewBox="0 0 375 374.999991" height="500" preserveAspectRatio="xMidYMid meet" version="1.0"><defs><clipPath id="499f4ac33b"><path d="M 0 27.023438 L 371 27.023438 L 371 345 L 0 345 Z M 0 27.023438 " clip-rule="nonzero"/></clipPath><clipPath id="a602fcfb0b"><path d="M 29 27.023438 L 308 27.023438 L 308 162 L 29 162 Z M 29 27.023438 " clip-rule="nonzero"/></clipPath></defs><g clip-path="url(#499f4ac33b)"><path fill="#f3bbc1" d="M 249.261719 114.039062 C 249.257812 114.03125 249.257812 114.027344 249.253906 114.019531 C 249.285156 113.9375 249.332031 113.859375 249.363281 113.777344 C 249.328125 113.863281 249.296875 113.953125 249.261719 114.039062 Z M 335.144531 192.640625 L 290.574219 174.714844 L 291.355469 161.210938 C 291.355469 161.210938 306.1875 142.820312 307.722656 128.925781 C 309.226562 115.347656 302.644531 103.214844 287.996094 100.078125 C 273.351562 96.9375 254.421875 97.121094 250.171875 107.847656 C 249.464844 109.628906 249.457031 111.257812 249.832031 112.730469 C 250.355469 114.761719 251.632812 116.472656 253 117.792969 C 252.804688 118.910156 252.632812 119.957031 252.46875 120.820312 C 251.917969 123.71875 247.386719 126.480469 243.742188 128.128906 C 241.664062 129.070312 241.390625 131.976562 242.84375 133.730469 L 244.789062 136.257812 C 245.882812 137.683594 246.335938 139.5 246.035156 141.269531 L 244.460938 150.519531 C 243.960938 153.457031 245.699219 156.308594 248.535156 157.210938 L 255.839844 159.125 C 258.746094 159.886719 260.742188 162.558594 260.648438 165.5625 L 260.367188 174.714844 L 214.742188 194.554688 C 206.566406 198.289062 191.679688 227.390625 178.734375 256.574219 L 153.976562 212.421875 L 153.714844 212.503906 C 153.203125 209.121094 152.789062 206.347656 152.65625 205.34375 C 151.867188 199.375 148.003906 194.25 142.5 191.820312 L 126.628906 184.808594 C 123.753906 183.535156 120.382812 184.398438 118.464844 186.894531 L 99.09375 180.765625 C 96.414062 179.917969 93.484375 180.644531 91.507812 182.644531 C 90.347656 183.816406 90.613281 185.769531 92.050781 186.578125 C 95.886719 188.734375 102.589844 192.625 105.914062 195.3125 C 110.730469 199.203125 132.191406 220.542969 132.191406 220.542969 L 132.207031 220.597656 C 129.304688 223.472656 127.878906 227.675781 128.808594 231.917969 C 133.820312 254.757812 142.03125 293.289062 159.328125 315.457031 C 163.640625 326.128906 180.828125 328.472656 192.453125 318.039062 C 198.980469 312.179688 208.890625 301.097656 218.644531 289.640625 C 219.503906 295.671875 220.425781 301.707031 221.324219 307.363281 C 220.015625 308.570312 219 310.117188 218.441406 311.917969 L 215.28125 322.109375 C 213.90625 326.542969 215.207031 331.367188 218.621094 334.507812 L 224.332031 339.765625 C 225.671875 340.996094 227.667969 341.175781 229.199219 340.199219 L 232.113281 338.34375 C 232.113281 338.34375 245.6875 343.617188 258.675781 337.144531 C 259.917969 339.226562 262.0625 340.71875 264.621094 341.042969 C 282.421875 343.3125 329.324219 348.007812 354.460938 338.550781 C 357.5625 337.789062 360.484375 336.347656 362.925781 334.222656 C 363.289062 333.960938 363.605469 333.65625 363.894531 333.324219 C 366.621094 330.589844 368.605469 326.90625 369.324219 322.257812 C 374.84375 286.574219 351.398438 201.847656 335.144531 192.640625 Z M 115.574219 75.710938 C 119.074219 71.28125 118.695312 71.757812 122.195312 67.328125 L 133.769531 72.28125 C 137.140625 69.894531 138.097656 69.214844 141.464844 66.828125 L 140.628906 54.261719 C 145.96875 52.429688 145.394531 52.628906 150.730469 50.792969 L 157.792969 61.21875 C 161.917969 61.03125 163.089844 60.980469 167.214844 60.792969 L 173.304688 49.769531 C 178.789062 51.113281 178.195312 50.96875 183.679688 52.3125 L 183.980469 64.902344 C 187.550781 66.976562 188.566406 67.566406 192.140625 69.636719 L 203.21875 63.660156 C 207.105469 67.753906 206.683594 67.3125 210.570312 71.40625 L 204.023438 82.160156 C 205.90625 85.835938 206.441406 86.882812 208.324219 90.558594 L 220.878906 91.519531 C 221.933594 97.066406 221.820312 96.464844 222.875 102.011719 L 211.550781 107.519531 C 211.148438 111.628906 211.035156 112.796875 210.632812 116.90625 L 220.671875 124.503906 C 218.5625 129.742188 218.789062 129.175781 216.679688 134.414062 L 204.179688 132.921875 C 201.617188 136.160156 200.890625 137.082031 198.332031 140.324219 L 202.671875 152.144531 C 198.066406 155.40625 198.5625 155.054688 193.957031 158.320312 L 184.246094 150.304688 C 180.339844 151.648438 179.230469 152.027344 175.324219 153.371094 L 172.585938 165.664062 C 166.949219 165.917969 167.554688 165.890625 161.917969 166.144531 L 158.078125 154.152344 C 154.070312 153.167969 152.929688 152.890625 148.917969 151.90625 L 139.972656 160.765625 C 135.089844 157.929688 135.617188 158.238281 130.734375 155.402344 L 133.988281 143.238281 C 131.148438 140.242188 130.339844 139.390625 127.496094 136.394531 L 115.179688 139.011719 C 112.605469 133.984375 112.882812 134.527344 110.308594 129.503906 L 119.621094 121.03125 C 118.851562 116.972656 118.632812 115.820312 117.859375 111.761719 L 106.085938 107.300781 C 106.632812 101.683594 106.574219 102.289062 107.125 96.671875 L 119.539062 94.578125 C 121.082031 90.746094 121.523438 89.660156 123.066406 85.828125 Z M 151.398438 107.957031 C 151.398438 115.183594 157.253906 121.042969 164.480469 121.042969 C 171.707031 121.042969 177.5625 115.183594 177.5625 107.957031 C 177.5625 100.730469 171.707031 94.871094 164.480469 94.871094 C 157.253906 94.871094 151.398438 100.730469 151.398438 107.957031 Z M 65.355469 133.984375 C 65.339844 136.757812 65.332031 137.925781 65.316406 140.699219 L 72.082031 146.027344 C 70.644531 149.902344 70.699219 149.746094 69.265625 153.617188 L 60.664062 153.246094 C 58.867188 155.363281 58.109375 156.25 56.316406 158.363281 L 58.074219 166.796875 C 54.484375 168.839844 54.625 168.757812 51.039062 170.800781 L 44.6875 164.984375 C 41.953125 165.449219 40.800781 165.648438 38.066406 166.113281 L 33.996094 173.699219 C 29.933594 172.957031 30.09375 172.988281 26.03125 172.246094 L 24.902344 163.707031 C 22.511719 162.304688 21.503906 161.714844 19.109375 160.3125 L 11.113281 163.507812 C 8.476562 160.328125 8.582031 160.453125 5.949219 157.273438 L 10.570312 150.007812 C 9.640625 147.398438 9.246094 146.296875 8.3125 143.683594 L 0.132812 140.992188 C 0.160156 136.859375 0.160156 137.023438 0.183594 132.894531 L 8.394531 130.300781 C 9.359375 127.699219 9.765625 126.605469 10.730469 124.003906 L 6.195312 116.683594 C 8.867188 113.535156 8.761719 113.660156 11.4375 110.511719 L 19.394531 113.804688 C 21.804688 112.433594 22.816406 111.855469 25.226562 110.484375 L 26.460938 101.957031 C 30.53125 101.265625 30.371094 101.292969 34.441406 100.601562 L 38.421875 108.238281 C 41.148438 108.738281 42.296875 108.949219 45.023438 109.445312 L 51.445312 103.707031 C 55.007812 105.792969 54.867188 105.710938 58.433594 107.800781 L 56.570312 116.210938 C 58.339844 118.34375 59.085938 119.242188 60.855469 121.378906 L 69.464844 121.113281 C 70.851562 125.003906 70.796875 124.847656 72.183594 128.738281 Z M 49.242188 137.152344 C 49.242188 129.925781 43.386719 124.066406 36.160156 124.066406 C 28.933594 124.066406 23.078125 129.925781 23.078125 137.152344 C 23.078125 144.378906 28.933594 150.238281 36.160156 150.238281 C 43.386719 150.238281 49.242188 144.378906 49.242188 137.152344 Z M 92.234375 114.148438 L 84.457031 106.859375 C 81.066406 107.394531 79.636719 107.621094 76.246094 108.15625 L 71.097656 117.488281 C 66.082031 116.511719 66.277344 116.550781 61.261719 115.574219 L 59.988281 104.988281 C 57.046875 103.21875 55.808594 102.476562 52.867188 100.707031 L 42.925781 104.542969 C 39.710938 100.570312 39.835938 100.726562 36.621094 96.753906 L 42.449219 87.828125 C 41.332031 84.582031 40.863281 83.214844 39.746094 79.96875 L 29.660156 76.515625 C 29.753906 71.402344 29.75 71.605469 29.839844 66.496094 L 40.042969 63.402344 C 41.273438 60.199219 41.789062 58.847656 43.023438 55.644531 L 37.515625 46.515625 C 40.871094 42.660156 40.738281 42.8125 44.09375 38.957031 L 53.894531 43.144531 C 56.894531 41.480469 58.160156 40.78125 61.164062 39.117188 L 62.8125 28.585938 C 67.859375 27.789062 67.660156 27.820312 72.707031 27.023438 L 77.523438 36.53125 C 80.890625 37.1875 82.3125 37.464844 85.679688 38.121094 L 93.710938 31.113281 C 98.089844 33.746094 97.917969 33.644531 102.296875 36.277344 L 99.875 46.660156 C 102.035156 49.328125 102.941406 50.453125 105.101562 53.121094 L 115.757812 52.914062 C 117.421875 57.75 117.355469 57.558594 119.015625 62.390625 L 110.488281 68.785156 C 110.425781 72.21875 110.402344 73.664062 110.339844 77.097656 L 118.636719 83.789062 C 116.804688 88.5625 116.875 88.375 115.042969 93.144531 L 104.398438 92.558594 C 102.148438 95.148438 101.199219 96.242188 98.945312 98.832031 L 100.996094 109.292969 C 96.527344 111.769531 96.703125 111.671875 92.234375 114.148438 Z M 87.421875 72.257812 C 87.421875 65.03125 81.566406 59.171875 74.339844 59.171875 C 67.113281 59.171875 61.257812 65.03125 61.257812 72.257812 C 61.257812 79.484375 67.113281 85.34375 74.339844 85.34375 C 81.566406 85.34375 87.421875 79.484375 87.421875 72.257812 Z M 87.421875 72.257812 " fill-opacity="1" fill-rule="nonzero"/></g><path fill="#fec045" d="M 369.324219 322.257812 C 368.605469 326.90625 366.621094 330.589844 363.894531 333.324219 C 363.605469 333.65625 363.289062 333.960938 362.925781 334.222656 C 360.484375 336.347656 357.5625 337.789062 354.460938 338.550781 C 329.324219 348.007812 282.421875 343.3125 264.621094 341.042969 C 262.0625 340.71875 259.917969 339.226562 258.675781 337.144531 C 257.945312 335.917969 257.523438 334.484375 257.523438 332.964844 L 254.664062 308.285156 L 229.832031 304.714844 C 226.648438 304.257812 223.554688 305.308594 221.324219 307.363281 C 220.425781 301.707031 219.503906 295.675781 218.644531 289.640625 C 208.890625 301.097656 198.980469 312.179688 192.453125 318.039062 C 180.828125 328.472656 163.640625 326.128906 159.328125 315.457031 C 142.03125 293.289062 133.820312 254.757812 128.808594 231.917969 C 127.878906 227.675781 129.304688 223.472656 132.207031 220.597656 C 133.578125 219.238281 135.253906 218.148438 137.222656 217.546875 L 153.714844 212.503906 L 153.976562 212.421875 L 178.734375 256.574219 C 191.679688 227.390625 206.566406 198.289062 214.742188 194.554688 L 260.367188 174.714844 L 290.574219 174.714844 L 335.144531 192.640625 C 351.398438 201.847656 374.84375 286.574219 369.324219 322.257812 Z M 369.324219 322.257812 " fill-opacity="1" fill-rule="nonzero"/><path fill="#7b95f9" d="M 211.550781 107.519531 L 222.875 102.011719 C 221.820312 96.46875 221.933594 97.066406 220.878906 91.519531 L 208.324219 90.558594 C 206.441406 86.882812 205.90625 85.839844 204.023438 82.160156 L 210.574219 71.40625 C 206.6875 67.3125 207.105469 67.753906 203.21875 63.660156 L 192.140625 69.640625 C 188.570312 67.566406 187.554688 66.976562 183.980469 64.902344 L 183.679688 52.3125 C 178.195312 50.96875 178.789062 51.113281 173.304688 49.769531 L 167.21875 60.792969 C 163.089844 60.980469 161.917969 61.035156 157.792969 61.21875 L 150.734375 50.792969 C 145.394531 52.628906 145.972656 52.429688 140.632812 54.265625 L 141.46875 66.828125 C 138.097656 69.21875 137.140625 69.894531 133.769531 72.285156 L 122.195312 67.328125 C 118.695312 71.757812 119.074219 71.28125 115.574219 75.710938 L 123.070312 85.828125 C 121.523438 89.660156 121.085938 90.75 119.542969 94.582031 L 107.128906 96.671875 C 106.578125 102.292969 106.636719 101.683594 106.085938 107.304688 L 117.863281 111.761719 C 118.632812 115.820312 118.851562 116.972656 119.625 121.03125 L 110.3125 129.503906 C 112.886719 134.53125 112.609375 133.988281 115.183594 139.011719 L 127.5 136.394531 C 130.34375 139.390625 131.148438 140.242188 133.992188 143.238281 L 130.738281 155.402344 C 135.617188 158.238281 135.09375 157.933594 139.972656 160.765625 L 148.921875 151.90625 C 152.933594 152.890625 154.070312 153.167969 158.082031 154.152344 L 161.917969 166.148438 C 167.558594 165.890625 166.949219 165.917969 172.589844 165.664062 L 175.328125 153.371094 C 179.234375 152.03125 180.34375 151.648438 184.25 150.308594 L 193.960938 158.320312 C 198.566406 155.058594 198.066406 155.410156 202.675781 152.144531 L 198.332031 140.324219 C 200.894531 137.082031 201.621094 136.164062 204.179688 132.921875 L 216.683594 134.414062 C 218.792969 129.175781 218.566406 129.742188 220.675781 124.503906 L 210.632812 116.910156 C 211.035156 112.796875 211.148438 111.628906 211.550781 107.519531 Z M 164.480469 121.042969 C 157.253906 121.042969 151.398438 115.183594 151.398438 107.957031 C 151.398438 100.730469 157.253906 94.871094 164.480469 94.871094 C 171.707031 94.871094 177.5625 100.730469 177.5625 107.957031 C 177.5625 115.183594 171.707031 121.042969 164.480469 121.042969 Z M 164.480469 121.042969 " fill-opacity="1" fill-rule="nonzero"/><g clip-path="url(#a602fcfb0b)"><path fill="#4724e3" d="M 307.726562 128.925781 C 306.1875 142.820312 291.359375 161.210938 291.359375 161.210938 L 287.394531 145.328125 C 289.257812 144.519531 291.144531 143.210938 292.804688 141.097656 C 293.078125 140.75 293.316406 140.371094 293.539062 139.976562 C 295.972656 135.652344 295.050781 129.03125 288 127.835938 C 283.484375 127.070312 279.957031 128.769531 277.804688 130.304688 C 277.804688 130.304688 271.882812 125.386719 270.371094 113.90625 C 270.371094 113.90625 264.335938 114.066406 258.828125 112.867188 C 257.242188 112.519531 255.703125 112.0625 254.363281 111.457031 C 253.722656 113.785156 253.324219 115.921875 253 117.789062 C 251.632812 116.472656 250.355469 114.761719 249.832031 112.730469 C 249.457031 111.257812 249.464844 109.628906 250.171875 107.847656 C 254.425781 97.121094 273.351562 96.9375 288 100.074219 C 302.644531 103.214844 309.226562 115.347656 307.726562 128.925781 Z M 110.488281 68.789062 C 110.425781 72.21875 110.402344 73.664062 110.339844 77.097656 L 118.636719 83.792969 C 116.804688 88.5625 116.875 88.375 115.042969 93.144531 L 104.398438 92.5625 C 102.148438 95.152344 101.199219 96.242188 98.945312 98.832031 L 100.996094 109.292969 C 96.527344 111.769531 96.703125 111.671875 92.234375 114.148438 L 84.457031 106.859375 C 81.066406 107.394531 79.636719 107.621094 76.25 108.15625 L 71.097656 117.488281 C 66.082031 116.511719 66.277344 116.550781 61.261719 115.574219 L 59.992188 104.988281 C 57.046875 103.21875 55.8125 102.476562 52.867188 100.707031 L 42.925781 104.542969 C 39.710938 100.570312 39.835938 100.726562 36.621094 96.753906 L 42.449219 87.828125 C 41.332031 84.578125 40.863281 83.214844 39.746094 79.964844 L 29.664062 76.515625 C 29.753906 71.402344 29.75 71.605469 29.839844 66.492188 L 40.042969 63.402344 C 41.273438 60.199219 41.792969 58.847656 43.023438 55.644531 L 37.515625 46.515625 C 40.871094 42.660156 40.738281 42.8125 44.09375 38.953125 L 53.894531 43.144531 C 56.894531 41.480469 58.160156 40.78125 61.164062 39.117188 L 62.8125 28.585938 C 67.859375 27.789062 67.660156 27.820312 72.707031 27.019531 L 77.523438 36.53125 C 80.894531 37.1875 82.3125 37.464844 85.679688 38.121094 L 93.710938 31.113281 C 98.09375 33.746094 97.917969 33.640625 102.296875 36.277344 L 99.875 46.660156 C 102.035156 49.328125 102.945312 50.449219 105.101562 53.121094 L 115.757812 52.914062 C 117.421875 57.746094 117.355469 57.558594 119.019531 62.390625 Z M 87.421875 72.257812 C 87.421875 65.03125 81.566406 59.171875 74.339844 59.171875 C 67.113281 59.171875 61.257812 65.03125 61.257812 72.257812 C 61.257812 79.484375 67.113281 85.34375 74.339844 85.34375 C 81.566406 85.34375 87.421875 79.484375 87.421875 72.257812 Z M 87.421875 72.257812 " fill-opacity="1" fill-rule="nonzero"/></g></svg>