<svg xmlns="http://www.w3.org/2000/svg" xmlns:xlink="http://www.w3.org/1999/xlink" width="500" zoomAndPan="magnify" viewBox="0 0 375 374.999991" height="500" preserveAspectRatio="xMidYMid meet" version="1.0"><defs><clipPath id="985e42c641"><path d="M 91.5 71.625 L 280.359375 71.625 L 280.359375 316.449219 L 91.5 316.449219 Z M 91.5 71.625 " clip-rule="nonzero"/></clipPath><clipPath id="6a8b1ba40c"><path d="M 82.789062 67.402344 L 260.289062 67.402344 L 260.289062 314.519531 L 82.789062 314.519531 Z M 82.789062 67.402344 " clip-rule="nonzero"/></clipPath><clipPath id="db8a0450cd"><path d="M 14.679688 16.25 L 357.429688 16.25 L 357.429688 359 L 14.679688 359 Z M 14.679688 16.25 " clip-rule="nonzero"/></clipPath></defs><g clip-path="url(#985e42c641)"><path fill="#ffffff" d="M 91.5 71.625 L 280.359375 71.625 L 280.359375 316.449219 L 91.5 316.449219 Z M 91.5 71.625 " fill-opacity="1" fill-rule="nonzero"/></g><g clip-path="url(#6a8b1ba40c)"><path fill="#ffffff" d="M 82.789062 67.402344 L 260.289062 67.402344 L 260.289062 314.519531 L 82.789062 314.519531 Z M 82.789062 67.402344 " fill-opacity="1" fill-rule="nonzero"/></g><g clip-path="url(#db8a0450cd)"><path fill="#00bf63" d="M 357.429688 187.625 C 357.429688 190.429688 357.363281 193.234375 357.222656 196.035156 C 357.085938 198.835938 356.878906 201.632812 356.605469 204.421875 C 356.332031 207.214844 355.988281 209.996094 355.574219 212.769531 C 355.164062 215.546875 354.683594 218.308594 354.136719 221.058594 C 353.589844 223.808594 352.976562 226.546875 352.296875 229.265625 C 351.613281 231.988281 350.867188 234.6875 350.050781 237.371094 C 349.238281 240.054688 348.359375 242.71875 347.414062 245.359375 C 346.46875 248 345.460938 250.617188 344.386719 253.207031 C 343.3125 255.796875 342.175781 258.363281 340.976562 260.898438 C 339.777344 263.433594 338.515625 265.9375 337.195312 268.410156 C 335.875 270.882812 334.492188 273.324219 333.050781 275.730469 C 331.605469 278.136719 330.105469 280.503906 328.550781 282.835938 C 326.992188 285.167969 325.375 287.460938 323.707031 289.714844 C 322.035156 291.964844 320.308594 294.175781 318.53125 296.34375 C 316.75 298.511719 314.921875 300.636719 313.035156 302.714844 C 311.152344 304.792969 309.21875 306.820312 307.238281 308.804688 C 305.253906 310.789062 303.222656 312.722656 301.144531 314.605469 C 299.066406 316.488281 296.941406 318.320312 294.773438 320.101562 C 292.605469 321.878906 290.398438 323.605469 288.144531 325.273438 C 285.890625 326.945312 283.597656 328.558594 281.265625 330.117188 C 278.933594 331.675781 276.566406 333.175781 274.160156 334.617188 C 271.753906 336.058594 269.316406 337.441406 266.839844 338.765625 C 264.367188 340.085938 261.863281 341.347656 259.328125 342.546875 C 256.792969 343.746094 254.230469 344.882812 251.636719 345.953125 C 249.046875 347.027344 246.429688 348.039062 243.789062 348.980469 C 241.148438 349.925781 238.488281 350.804688 235.804688 351.621094 C 233.121094 352.433594 230.417969 353.183594 227.695312 353.863281 C 224.976562 354.546875 222.242188 355.160156 219.488281 355.707031 C 216.738281 356.253906 213.976562 356.734375 211.203125 357.144531 C 208.425781 357.554688 205.644531 357.898438 202.855469 358.175781 C 200.0625 358.449219 197.265625 358.65625 194.464844 358.792969 C 191.664062 358.929688 188.859375 359 186.054688 359 C 183.25 359 180.449219 358.929688 177.648438 358.792969 C 174.84375 358.65625 172.050781 358.449219 169.257812 358.175781 C 166.46875 357.898438 163.683594 357.554688 160.910156 357.144531 C 158.136719 356.734375 155.375 356.253906 152.621094 355.707031 C 149.871094 355.160156 147.136719 354.546875 144.414062 353.863281 C 141.695312 353.183594 138.992188 352.433594 136.308594 351.621094 C 133.625 350.804688 130.960938 349.925781 128.320312 348.980469 C 125.679688 348.039062 123.066406 347.027344 120.472656 345.953125 C 117.882812 344.882812 115.320312 343.746094 112.785156 342.546875 C 110.25 341.347656 107.742188 340.085938 105.269531 338.765625 C 102.796875 337.441406 100.355469 336.058594 97.953125 334.617188 C 95.546875 333.175781 93.175781 331.675781 90.84375 330.117188 C 88.511719 328.558594 86.222656 326.945312 83.96875 325.273438 C 81.714844 323.605469 79.503906 321.878906 77.335938 320.101562 C 75.167969 318.320312 73.046875 316.488281 70.96875 314.605469 C 68.890625 312.722656 66.859375 310.789062 64.875 308.804688 C 62.890625 306.820312 60.957031 304.792969 59.074219 302.714844 C 57.191406 300.636719 55.359375 298.511719 53.582031 296.34375 C 51.800781 294.175781 50.078125 291.964844 48.40625 289.714844 C 46.734375 287.460938 45.121094 285.167969 43.5625 282.835938 C 42.003906 280.503906 40.503906 278.136719 39.0625 275.730469 C 37.621094 273.324219 36.238281 270.882812 34.917969 268.410156 C 33.59375 265.9375 32.332031 263.433594 31.136719 260.898438 C 29.9375 258.363281 28.800781 255.796875 27.726562 253.207031 C 26.652344 250.617188 25.644531 248 24.699219 245.359375 C 23.753906 242.71875 22.875 240.054688 22.058594 237.371094 C 21.246094 234.6875 20.5 231.988281 19.816406 229.265625 C 19.136719 226.546875 18.519531 223.808594 17.972656 221.058594 C 17.425781 218.308594 16.949219 215.546875 16.535156 212.769531 C 16.125 209.996094 15.78125 207.214844 15.507812 204.421875 C 15.230469 201.632812 15.023438 198.835938 14.886719 196.035156 C 14.75 193.234375 14.679688 190.429688 14.679688 187.625 C 14.679688 184.820312 14.75 182.015625 14.886719 179.214844 C 15.023438 176.414062 15.230469 173.617188 15.507812 170.828125 C 15.78125 168.035156 16.125 165.253906 16.535156 162.480469 C 16.949219 159.703125 17.425781 156.941406 17.972656 154.191406 C 18.519531 151.441406 19.136719 148.703125 19.816406 145.984375 C 20.5 143.261719 21.246094 140.5625 22.058594 137.878906 C 22.875 135.195312 23.753906 132.53125 24.699219 129.890625 C 25.644531 127.25 26.652344 124.632812 27.726562 122.042969 C 28.800781 119.453125 29.9375 116.886719 31.136719 114.351562 C 32.332031 111.816406 33.59375 109.3125 34.917969 106.839844 C 36.238281 104.367188 37.621094 101.925781 39.0625 99.519531 C 40.503906 97.113281 42.003906 94.746094 43.5625 92.414062 C 45.121094 90.082031 46.734375 87.789062 48.40625 85.535156 C 50.078125 83.285156 51.800781 81.074219 53.582031 78.90625 C 55.359375 76.738281 57.191406 74.613281 59.074219 72.535156 C 60.957031 70.457031 62.890625 68.429688 64.875 66.445312 C 66.859375 64.460938 68.890625 62.527344 70.96875 60.644531 C 73.046875 58.761719 75.167969 56.929688 77.335938 55.148438 C 79.503906 53.371094 81.714844 51.644531 83.96875 49.976562 C 86.222656 48.304688 88.511719 46.691406 90.84375 45.132812 C 93.175781 43.574219 95.546875 42.074219 97.953125 40.632812 C 100.355469 39.191406 102.796875 37.808594 105.269531 36.484375 C 107.742188 35.164062 110.25 33.902344 112.785156 32.703125 C 115.320312 31.503906 117.882812 30.367188 120.472656 29.296875 C 123.066406 28.222656 125.679688 27.210938 128.320312 26.269531 C 130.960938 25.324219 133.625 24.445312 136.308594 23.628906 C 138.992188 22.816406 141.695312 22.066406 144.414062 21.386719 C 147.136719 20.703125 149.871094 20.089844 152.621094 19.542969 C 155.375 18.996094 158.136719 18.515625 160.910156 18.105469 C 163.683594 17.691406 166.46875 17.351562 169.257812 17.074219 C 172.050781 16.800781 174.84375 16.59375 177.648438 16.457031 C 180.449219 16.320312 183.25 16.25 186.054688 16.25 C 188.859375 16.25 191.664062 16.320312 194.464844 16.457031 C 197.265625 16.59375 200.0625 16.800781 202.855469 17.074219 C 205.644531 17.351562 208.425781 17.691406 211.203125 18.105469 C 213.976562 18.515625 216.738281 18.996094 219.488281 19.542969 C 222.242188 20.089844 224.976562 20.703125 227.695312 21.386719 C 230.417969 22.066406 233.121094 22.816406 235.804688 23.628906 C 238.488281 24.445312 241.148438 25.324219 243.789062 26.269531 C 246.429688 27.210938 249.046875 28.222656 251.636719 29.296875 C 254.230469 30.367188 256.792969 31.503906 259.328125 32.703125 C 261.863281 33.902344 264.367188 35.164062 266.839844 36.484375 C 269.316406 37.808594 271.753906 39.191406 274.160156 40.632812 C 276.566406 42.074219 278.933594 43.574219 281.265625 45.132812 C 283.597656 46.691406 285.890625 48.304688 288.144531 49.976562 C 290.398438 51.644531 292.605469 53.371094 294.773438 55.148438 C 296.941406 56.929688 299.066406 58.761719 301.144531 60.644531 C 303.222656 62.527344 305.253906 64.460938 307.238281 66.445312 C 309.21875 68.429688 311.152344 70.457031 313.035156 72.535156 C 314.921875 74.613281 316.75 76.738281 318.53125 78.90625 C 320.308594 81.074219 322.035156 83.285156 323.707031 85.535156 C 325.375 87.789062 326.992188 90.082031 328.550781 92.414062 C 330.105469 94.746094 331.605469 97.113281 333.050781 99.519531 C 334.492188 101.925781 335.875 104.367188 337.195312 106.839844 C 338.515625 109.3125 339.777344 111.816406 340.976562 114.351562 C 342.175781 116.886719 343.3125 119.453125 344.386719 122.042969 C 345.460938 124.632812 346.46875 127.25 347.414062 129.890625 C 348.359375 132.53125 349.238281 135.195312 350.050781 137.878906 C 350.867188 140.5625 351.613281 143.261719 352.296875 145.984375 C 352.976562 148.703125 353.589844 151.441406 354.136719 154.191406 C 354.683594 156.941406 355.164062 159.703125 355.574219 162.480469 C 355.988281 165.253906 356.332031 168.035156 356.605469 170.828125 C 356.878906 173.617188 357.085938 176.414062 357.222656 179.214844 C 357.363281 182.015625 357.429688 184.820312 357.429688 187.625 Z M 357.429688 187.625 " fill-opacity="1" fill-rule="nonzero"/></g><path fill="#ffffff" d="M 216.574219 294.613281 C 212.84375 294.613281 209.117188 293.191406 206.269531 290.351562 L 103.554688 187.625 L 206.269531 84.910156 C 211.960938 79.21875 221.1875 79.214844 226.882812 84.910156 C 232.574219 90.597656 232.574219 99.832031 226.882812 105.519531 L 144.773438 187.625 L 226.882812 269.734375 C 232.574219 275.425781 232.574219 284.652344 226.882812 290.351562 C 224.039062 293.191406 220.308594 294.613281 216.574219 294.613281 Z M 216.574219 294.613281 " fill-opacity="1" fill-rule="nonzero"/></svg>