<svg xmlns="http://www.w3.org/2000/svg" xmlns:xlink="http://www.w3.org/1999/xlink" width="500" zoomAndPan="magnify" viewBox="0 0 375 374.999991" height="500" preserveAspectRatio="xMidYMid meet" version="1.0"><defs><clipPath id="9b1437359c"><path d="M 12.082031 47.808594 L 62.480469 47.808594 L 62.480469 327.191406 L 12.082031 327.191406 Z M 12.082031 47.808594 " clip-rule="nonzero"/></clipPath><clipPath id="b6aded600f"><path d="M 29.332031 47.808594 L 45.230469 47.808594 C 54.757812 47.808594 62.480469 55.53125 62.480469 65.058594 L 62.480469 309.941406 C 62.480469 319.46875 54.757812 327.191406 45.230469 327.191406 L 29.332031 327.191406 C 19.804688 327.191406 12.082031 319.46875 12.082031 309.941406 L 12.082031 65.058594 C 12.082031 55.53125 19.804688 47.808594 29.332031 47.808594 Z M 29.332031 47.808594 " clip-rule="nonzero"/></clipPath><clipPath id="538b449f4c"><path d="M 237.375 47.808594 L 287.769531 47.808594 L 287.769531 327.191406 L 237.375 327.191406 Z M 237.375 47.808594 " clip-rule="nonzero"/></clipPath><clipPath id="ffb2acd842"><path d="M 254.625 47.808594 L 270.519531 47.808594 C 280.046875 47.808594 287.769531 55.53125 287.769531 65.058594 L 287.769531 309.941406 C 287.769531 319.46875 280.046875 327.191406 270.519531 327.191406 L 254.625 327.191406 C 245.097656 327.191406 237.375 319.46875 237.375 309.941406 L 237.375 65.058594 C 237.375 55.53125 245.097656 47.808594 254.625 47.808594 Z M 254.625 47.808594 " clip-rule="nonzero"/></clipPath><clipPath id="a2ea5b50e8"><path d="M 312.519531 47.808594 L 362.917969 47.808594 L 362.917969 327.191406 L 312.519531 327.191406 Z M 312.519531 47.808594 " clip-rule="nonzero"/></clipPath><clipPath id="5e6de4df43"><path d="M 329.769531 47.808594 L 345.667969 47.808594 C 355.195312 47.808594 362.917969 55.53125 362.917969 65.058594 L 362.917969 309.941406 C 362.917969 319.46875 355.195312 327.191406 345.667969 327.191406 L 329.769531 327.191406 C 320.242188 327.191406 312.519531 319.46875 312.519531 309.941406 L 312.519531 65.058594 C 312.519531 55.53125 320.242188 47.808594 329.769531 47.808594 Z M 329.769531 47.808594 " clip-rule="nonzero"/></clipPath><clipPath id="069442a648"><path d="M 162.230469 47.808594 L 212.625 47.808594 L 212.625 327.191406 L 162.230469 327.191406 Z M 162.230469 47.808594 " clip-rule="nonzero"/></clipPath><clipPath id="f3efde31c0"><path d="M 179.480469 47.808594 L 195.375 47.808594 C 204.902344 47.808594 212.625 55.53125 212.625 65.058594 L 212.625 309.941406 C 212.625 319.46875 204.902344 327.191406 195.375 327.191406 L 179.480469 327.191406 C 169.953125 327.191406 162.230469 319.46875 162.230469 309.941406 L 162.230469 65.058594 C 162.230469 55.53125 169.953125 47.808594 179.480469 47.808594 Z M 179.480469 47.808594 " clip-rule="nonzero"/></clipPath></defs><g clip-path="url(#9b1437359c)"><g clip-path="url(#b6aded600f)"><path fill="#a6a6a6" d="M 12.082031 47.808594 L 62.480469 47.808594 L 62.480469 327.191406 L 12.082031 327.191406 Z M 12.082031 47.808594 " fill-opacity="1" fill-rule="nonzero"/></g></g><g clip-path="url(#538b449f4c)"><g clip-path="url(#ffb2acd842)"><path fill="#a6a6a6" d="M 237.375 47.808594 L 287.769531 47.808594 L 287.769531 327.191406 L 237.375 327.191406 Z M 237.375 47.808594 " fill-opacity="1" fill-rule="nonzero"/></g></g><g clip-path="url(#a2ea5b50e8)"><g clip-path="url(#5e6de4df43)"><path fill="#a6a6a6" d="M 312.519531 47.808594 L 362.917969 47.808594 L 362.917969 327.191406 L 312.519531 327.191406 Z M 312.519531 47.808594 " fill-opacity="1" fill-rule="nonzero"/></g></g><g clip-path="url(#069442a648)"><g clip-path="url(#f3efde31c0)"><path fill="#a6a6a6" d="M 162.230469 47.808594 L 212.625 47.808594 L 212.625 327.191406 L 162.230469 327.191406 Z M 162.230469 47.808594 " fill-opacity="1" fill-rule="nonzero"/></g></g></svg>