<svg xmlns="http://www.w3.org/2000/svg" xmlns:xlink="http://www.w3.org/1999/xlink" width="500" zoomAndPan="magnify"
    viewBox="0 0 375 374.999991" height="500" preserveAspectRatio="xMidYMid meet" version="1.0">
    <defs>
        <clipPath id="c028fc7443">
            <path
                d="M 49.027344 48.039062 L 327.949219 48.039062 L 327.949219 326.960938 L 49.027344 326.960938 Z M 49.027344 48.039062 "
                clip-rule="nonzero" />
        </clipPath>
        <clipPath id="c9ee017878">
            <path
                d="M 188.488281 48.039062 C 111.464844 48.039062 49.027344 110.476562 49.027344 187.5 C 49.027344 264.523438 111.464844 326.960938 188.488281 326.960938 C 265.507812 326.960938 327.949219 264.523438 327.949219 187.5 C 327.949219 110.476562 265.507812 48.039062 188.488281 48.039062 Z M 188.488281 48.039062 "
                clip-rule="nonzero" />
        </clipPath>
        <clipPath id="6f59850dab">
            <path
                d="M 47.050781 118.585938 L 327.949219 118.585938 L 327.949219 254.539062 L 47.050781 254.539062 Z M 47.050781 118.585938 "
                clip-rule="nonzero" />
        </clipPath>
    </defs>
    <g clip-path="url(#c028fc7443)">
        <g clip-path="url(#c9ee017878)">
            <path fill="#ffffff"
                d="M 49.027344 48.039062 L 327.949219 48.039062 L 327.949219 326.960938 L 49.027344 326.960938 Z M 49.027344 48.039062 "
                fill-opacity="1" fill-rule="nonzero" />
        </g>
    </g>
    <g clip-path="url(#6f59850dab)">
        <path fill="#00bf63"
            d="M 219.082031 118.585938 L 195.246094 118.617188 L 183.351562 139.273438 L 195.296875 159.902344 L 219.132812 159.875 L 222.988281 153.175781 L 294.34375 153.175781 C 301.523438 153.175781 307.300781 147.398438 307.300781 140.222656 L 307.300781 138.269531 C 307.300781 131.089844 301.523438 125.3125 294.34375 125.3125 L 222.976562 125.3125 Z M 158.683594 122.25 L 84.527344 122.339844 L 47.527344 186.609375 L 84.683594 250.785156 L 158.839844 250.691406 L 195.839844 186.425781 Z M 239.277344 165.859375 L 215.441406 165.886719 L 203.546875 186.546875 L 215.492188 207.175781 L 239.328125 207.144531 L 243.183594 200.449219 L 314.539062 200.449219 C 321.714844 200.449219 327.492188 194.671875 327.492188 187.492188 L 327.492188 185.539062 C 327.492188 178.363281 321.714844 172.585938 314.539062 172.585938 L 243.171875 172.585938 Z M 219.082031 213.132812 L 195.246094 213.160156 L 183.351562 233.820312 L 195.296875 254.449219 L 219.132812 254.417969 L 222.988281 247.722656 L 294.34375 247.722656 C 301.523438 247.722656 307.300781 241.941406 307.300781 234.765625 L 307.300781 232.8125 C 307.300781 225.636719 301.523438 219.859375 294.34375 219.859375 L 222.976562 219.859375 Z M 219.082031 213.132812 "
            fill-opacity="1" fill-rule="nonzero" />
    </g>
</svg>