<svg xmlns="http://www.w3.org/2000/svg" xmlns:xlink="http://www.w3.org/1999/xlink" width="500" zoomAndPan="magnify" viewBox="0 0 375 374.999991" height="500" preserveAspectRatio="xMidYMid meet" version="1.0"><defs><clipPath id="094d5dc279"><path d="M 0 96.816406 L 375 96.816406 L 375 278.316406 L 0 278.316406 Z M 0 96.816406 " clip-rule="nonzero"/></clipPath><clipPath id="ef6299d400"><path d="M 0 96.816406 L 200.769531 96.816406 L 200.769531 273.601562 L 0 273.601562 Z M 0 96.816406 " clip-rule="nonzero"/></clipPath><clipPath id="642052a18c"><path d="M 200.769531 185.210938 L 150.578125 273.601562 L 50.191406 273.601562 L 0 185.210938 L 50.191406 96.816406 L 150.578125 96.816406 Z M 200.769531 185.210938 " clip-rule="nonzero"/></clipPath></defs><g clip-path="url(#094d5dc279)"><path fill="#c1ff72" d="M 229.664062 96.816406 L 197.839844 96.855469 L 181.964844 124.4375 L 197.910156 151.976562 L 229.730469 151.9375 L 234.878906 142.996094 L 330.140625 142.996094 C 339.722656 142.996094 347.433594 135.28125 347.433594 125.699219 L 347.433594 123.09375 C 347.433594 113.511719 339.722656 105.796875 330.140625 105.796875 L 234.863281 105.796875 Z M 149.027344 101.707031 L 50.027344 101.828125 L 0.632812 187.628906 L 50.238281 273.304688 L 149.238281 273.179688 L 198.632812 187.382812 Z M 256.625 159.925781 L 224.800781 159.964844 L 208.921875 187.546875 L 224.867188 215.085938 L 256.691406 215.046875 L 261.839844 206.105469 L 357.097656 206.105469 C 366.679688 206.105469 374.394531 198.390625 374.394531 188.808594 L 374.394531 186.203125 C 374.394531 176.621094 366.679688 168.90625 357.097656 168.90625 L 261.824219 168.90625 Z M 229.664062 223.035156 L 197.839844 223.074219 L 181.964844 250.652344 L 197.910156 278.195312 L 229.730469 278.15625 L 234.878906 269.214844 L 330.140625 269.214844 C 339.722656 269.214844 347.433594 261.5 347.433594 251.917969 L 347.433594 249.3125 C 347.433594 239.730469 339.722656 232.015625 330.140625 232.015625 L 234.863281 232.015625 Z M 229.664062 223.035156 " fill-opacity="1" fill-rule="nonzero"/></g><g clip-path="url(#ef6299d400)"><g clip-path="url(#642052a18c)"><path fill="#00bf63" d="M 0 96.816406 L 200.769531 96.816406 L 200.769531 273.601562 L 0 273.601562 Z M 0 96.816406 " fill-opacity="1" fill-rule="nonzero"/></g></g></svg>