<svg xmlns="http://www.w3.org/2000/svg" xmlns:xlink="http://www.w3.org/1999/xlink" width="500" zoomAndPan="magnify" viewBox="0 0 375 374.999991" height="500" preserveAspectRatio="xMidYMid meet" version="1.0"><defs><clipPath id="bd07f967d8"><path d="M 0 96.816406 L 375 96.816406 L 375 278.316406 L 0 278.316406 Z M 0 96.816406 " clip-rule="nonzero"/></clipPath></defs><g clip-path="url(#bd07f967d8)"><path fill="#ffffff" d="M 229.664062 96.816406 L 197.839844 96.855469 L 181.964844 124.457031 L 197.910156 152.019531 L 229.730469 151.980469 L 234.878906 143.03125 L 330.140625 143.03125 C 339.722656 143.03125 347.433594 135.3125 347.433594 125.722656 L 347.433594 123.113281 C 347.433594 113.523438 339.722656 105.804688 330.140625 105.804688 L 234.863281 105.804688 Z M 149.027344 101.710938 L 50.027344 101.832031 L 0.632812 187.699219 L 50.238281 273.441406 L 149.238281 273.316406 L 198.632812 187.453125 Z M 256.625 159.976562 L 224.800781 160.015625 L 208.921875 187.617188 L 224.867188 215.175781 L 256.691406 215.136719 L 261.839844 206.191406 L 357.097656 206.191406 C 366.679688 206.191406 374.394531 198.46875 374.394531 188.882812 L 374.394531 186.273438 C 374.394531 176.683594 366.679688 168.964844 357.097656 168.964844 L 261.824219 168.964844 Z M 229.664062 223.132812 L 197.839844 223.171875 L 181.964844 250.773438 L 197.910156 278.335938 L 229.730469 278.296875 L 234.878906 269.347656 L 330.140625 269.347656 C 339.722656 269.347656 347.433594 261.628906 347.433594 252.039062 L 347.433594 249.429688 C 347.433594 239.839844 339.722656 232.121094 330.140625 232.121094 L 234.863281 232.121094 Z M 229.664062 223.132812 " fill-opacity="1" fill-rule="nonzero"/></g></svg>