<svg xmlns="http://www.w3.org/2000/svg" xmlns:xlink="http://www.w3.org/1999/xlink" width="500" zoomAndPan="magnify"
    viewBox="0 0 375 374.999991" height="500" preserveAspectRatio="xMidYMid meet" version="1.0">
    <defs>
        <clipPath id="0a7262667f">
            <path d="M 2.304688 1.316406 L 375 1.316406 L 375 374.011719 L 2.304688 374.011719 Z M 2.304688 1.316406 "
                clip-rule="nonzero" />
        </clipPath>
        <clipPath id="e4d4b1671b">
            <path
                d="M 188.652344 1.316406 C 85.734375 1.316406 2.304688 84.75 2.304688 187.664062 C 2.304688 290.582031 85.734375 374.011719 188.652344 374.011719 C 291.570312 374.011719 375 290.582031 375 187.664062 C 375 84.75 291.570312 1.316406 188.652344 1.316406 Z M 188.652344 1.316406 "
                clip-rule="nonzero" />
        </clipPath>
        <clipPath id="cc92e6eea4">
            <path
                d="M 61.535156 126.1875 L 315.785156 126.1875 L 315.785156 249.1875 L 61.535156 249.1875 Z M 61.535156 126.1875 "
                clip-rule="nonzero" />
        </clipPath>
    </defs>
    <g clip-path="url(#0a7262667f)">
        <g clip-path="url(#e4d4b1671b)">
            <path fill="#ffffff"
                d="M 2.304688 1.316406 L 375 1.316406 L 375 374.011719 L 2.304688 374.011719 Z M 2.304688 1.316406 "
                fill-opacity="1" fill-rule="nonzero" />
        </g>
    </g>
    <g clip-path="url(#cc92e6eea4)">
        <path fill="#00bf63"
            d="M 217.234375 126.1875 L 195.660156 126.214844 L 184.894531 144.910156 L 195.707031 163.582031 L 217.28125 163.554688 L 220.769531 157.492188 L 285.351562 157.492188 C 291.847656 157.492188 297.078125 152.265625 297.078125 145.769531 L 297.078125 144 C 297.078125 137.503906 291.847656 132.273438 285.351562 132.273438 L 220.761719 132.273438 Z M 162.566406 129.503906 L 95.449219 129.585938 L 61.960938 187.753906 L 95.59375 245.835938 L 162.710938 245.753906 L 196.199219 187.585938 Z M 235.511719 168.972656 L 213.9375 169 L 203.171875 187.695312 L 213.984375 206.367188 L 235.558594 206.339844 L 239.046875 200.277344 L 303.628906 200.277344 C 310.125 200.277344 315.355469 195.050781 315.355469 188.554688 L 315.355469 186.785156 C 315.355469 180.289062 310.125 175.058594 303.628906 175.058594 L 239.035156 175.058594 Z M 217.234375 211.757812 L 195.660156 211.785156 L 184.894531 230.480469 L 195.707031 249.152344 L 217.28125 249.125 L 220.769531 243.0625 L 285.351562 243.0625 C 291.847656 243.0625 297.078125 237.832031 297.078125 231.339844 L 297.078125 229.570312 C 297.078125 223.074219 291.847656 217.84375 285.351562 217.84375 L 220.761719 217.84375 Z M 217.234375 211.757812 "
            fill-opacity="1" fill-rule="nonzero" />
    </g>
</svg>