<svg xmlns="http://www.w3.org/2000/svg" xmlns:xlink="http://www.w3.org/1999/xlink" width="500" zoomAndPan="magnify" viewBox="0 0 375 374.999991" height="500" preserveAspectRatio="xMidYMid meet" version="1.0"><defs><clipPath id="9e5e933926"><path d="M 32 31.488281 L 344.398438 31.488281 L 344.398438 343.488281 L 32 343.488281 Z M 32 31.488281 " clip-rule="nonzero"/></clipPath></defs><g clip-path="url(#9e5e933926)"><path fill="#cb6ce6" d="M 298.773438 77.300781 C 270.566406 49.101562 231.597656 31.65625 188.550781 31.65625 C 145.507812 31.65625 106.539062 49.101562 78.324219 77.300781 C 50.121094 105.507812 32.671875 144.46875 32.671875 187.503906 C 32.671875 230.539062 50.121094 269.5 78.324219 297.703125 C 106.539062 325.90625 145.507812 343.351562 188.550781 343.351562 C 231.597656 343.351562 270.566406 325.90625 298.773438 297.703125 C 326.984375 269.5 344.433594 230.539062 344.433594 187.503906 C 344.433594 144.46875 326.984375 105.507812 298.773438 77.300781 " fill-opacity="1" fill-rule="evenodd"/></g><path fill="#5271ff" d="M 188.550781 52.960938 C 70.164062 52.960938 8.410156 197.671875 93.398438 282.640625 C 117.75 306.988281 151.394531 322.046875 188.550781 322.046875 C 225.714844 322.046875 259.359375 306.988281 283.710938 282.640625 C 308.066406 258.292969 323.125 224.65625 323.125 187.503906 C 323.125 150.351562 308.066406 116.714844 283.710938 92.367188 C 259.359375 68.019531 225.714844 52.960938 188.550781 52.960938 " fill-opacity="1" fill-rule="evenodd"/><path fill="#8c52ff" d="M 188.550781 61.949219 C 78.070312 61.949219 20.445312 196.992188 99.753906 276.285156 C 122.476562 299.003906 153.875 313.058594 188.550781 313.058594 C 223.230469 313.058594 254.625 299.003906 277.351562 276.285156 C 300.078125 253.558594 314.132812 222.171875 314.132812 187.503906 C 314.132812 152.832031 300.078125 121.445312 277.351562 98.722656 C 254.625 76.003906 223.230469 61.949219 188.550781 61.949219 " fill-opacity="1" fill-rule="evenodd"/><path fill="#e1f5fe" d="M 99.90625 216.554688 L 99.90625 158.453125 L 111.328125 158.453125 L 135.117188 197.25 L 135.117188 158.453125 L 146.023438 158.453125 L 146.023438 216.554688 L 134.238281 216.554688 L 110.8125 178.660156 L 110.8125 216.554688 Z M 158.429688 216.554688 L 158.429688 158.453125 L 201.515625 158.453125 L 201.515625 168.289062 L 170.160156 168.289062 L 170.160156 181.164062 L 199.339844 181.164062 L 199.339844 190.945312 L 170.160156 190.945312 L 170.160156 206.761719 L 202.625 206.761719 L 202.625 216.554688 Z M 220.824219 216.554688 L 206.953125 158.453125 L 218.957031 158.453125 L 227.726562 198.359375 L 238.347656 158.453125 L 252.296875 158.453125 L 262.488281 199.039062 L 271.40625 158.453125 L 283.21875 158.453125 L 269.105469 216.554688 L 256.65625 216.554688 L 245.085938 173.117188 L 233.542969 216.554688 L 220.824219 216.554688 " fill-opacity="1" fill-rule="nonzero"/></svg>