<svg xmlns="http://www.w3.org/2000/svg" xmlns:xlink="http://www.w3.org/1999/xlink" width="500" zoomAndPan="magnify" viewBox="0 0 375 374.999991" height="500" preserveAspectRatio="xMidYMid meet" version="1.0"><defs><clipPath id="255a240008"><path d="M 16 16 L 358.71875 16 L 358.71875 358.71875 L 16 358.71875 Z M 16 16 " clip-rule="nonzero"/></clipPath></defs><g clip-path="url(#255a240008)"><path fill="#cb6ce6" d="M 240.53125 140.070312 C 237.269531 140.070312 234.621094 137.421875 234.621094 134.160156 C 234.621094 134.160156 234.621094 33.839844 234.621094 33.839844 C 234.621094 24.046875 226.683594 16.113281 216.894531 16.113281 L 157.796875 16.113281 C 148.003906 16.113281 140.070312 24.046875 140.070312 33.839844 L 140.070312 134.160156 C 140.070312 137.421875 137.421875 140.070312 134.160156 140.070312 C 134.160156 140.070312 33.839844 140.070312 33.839844 140.070312 C 24.046875 140.070312 16.113281 148.007812 16.113281 157.796875 L 16.113281 216.894531 C 16.113281 226.683594 24.046875 234.621094 33.839844 234.621094 L 134.160156 234.621094 C 137.421875 234.621094 140.070312 237.269531 140.070312 240.53125 C 140.070312 240.53125 140.070312 340.851562 140.070312 340.851562 C 140.070312 350.640625 148.003906 358.578125 157.796875 358.578125 L 216.894531 358.578125 C 226.683594 358.578125 234.621094 350.640625 234.621094 340.851562 L 234.621094 240.53125 C 234.621094 237.269531 237.269531 234.621094 240.53125 234.621094 C 240.53125 234.621094 340.851562 234.621094 340.851562 234.621094 C 350.640625 234.621094 358.578125 226.683594 358.578125 216.894531 L 358.578125 157.796875 C 358.578125 148.007812 350.640625 140.070312 340.851562 140.070312 Z M 240.53125 140.070312 " fill-opacity="1" fill-rule="evenodd"/></g></svg>