<svg xmlns="http://www.w3.org/2000/svg" xmlns:xlink="http://www.w3.org/1999/xlink" width="500" zoomAndPan="magnify" viewBox="0 0 375 374.999991" height="500" preserveAspectRatio="xMidYMid meet" version="1.0"><defs><g/><clipPath id="fc47b92f45"><path d="M 117.375 220.164062 L 257.625 220.164062 L 257.625 324 L 117.375 324 Z M 117.375 220.164062 " clip-rule="nonzero"/></clipPath></defs><g clip-path="url(#fc47b92f45)"><path fill="#ffffff" d="M 151.929688 323.367188 L 175.691406 323.367188 L 175.691406 282.347656 C 175.691406 275.695312 181.089844 270.300781 187.742188 270.300781 C 194.390625 270.300781 199.789062 275.699219 199.789062 282.347656 L 199.789062 323.367188 L 223.554688 323.367188 C 242.496094 323.367188 257.871094 307.992188 257.871094 289.046875 C 257.871094 271.9375 245.292969 257.71875 228.902344 255.117188 C 225.625 235.355469 208.417969 220.21875 187.742188 220.21875 C 167.0625 220.21875 149.855469 235.355469 146.578125 255.117188 C 130.191406 257.71875 117.609375 271.9375 117.609375 289.046875 C 117.609375 307.992188 132.984375 323.367188 151.929688 323.367188 Z M 151.929688 323.367188 " fill-opacity="1" fill-rule="nonzero"/></g><path fill="#ffffff" d="M 169.375 333.828125 C 166.582031 331.03125 162.003906 331.03125 159.160156 333.828125 C 156.363281 336.667969 156.363281 341.25 159.160156 344.042969 L 175.691406 360.578125 C 177.386719 362.023438 182.804688 368.355469 184.898438 369.0625 C 187.574219 370.160156 190.714844 369.664062 192.851562 367.519531 L 199.644531 360.722656 L 216.324219 344.042969 C 222.882812 337.214844 212.945312 327.257812 206.105469 333.828125 L 194.972656 344.960938 C 194.953125 336.316406 194.972656 282.347656 194.972656 282.347656 C 194.828125 272.878906 180.664062 272.816406 180.511719 282.347656 C 180.519531 298.433594 180.511719 344.960938 180.511719 344.960938 Z M 169.375 333.828125 " fill-opacity="1" fill-rule="nonzero"/><g fill="#ffffff" fill-opacity="1"><g transform="translate(31.998174, 181.751599)"><g><path d="M 46.390625 -52.859375 C 50.015625 -52.859375 53.171875 -53.3125 55.859375 -54.21875 C 58.554688 -55.125 60.800781 -56.421875 62.59375 -58.109375 C 64.382812 -59.796875 65.71875 -61.851562 66.59375 -64.28125 C 67.476562 -66.707031 67.921875 -69.414062 67.921875 -72.40625 C 67.921875 -75.25 67.476562 -77.820312 66.59375 -80.125 C 65.71875 -82.425781 64.394531 -84.382812 62.625 -86 C 60.863281 -87.625 58.632812 -88.863281 55.9375 -89.71875 C 53.238281 -90.570312 50.054688 -91 46.390625 -91 L 31.609375 -91 L 31.609375 -52.859375 Z M 46.390625 -106.296875 C 53.492188 -106.296875 59.640625 -105.460938 64.828125 -103.796875 C 70.023438 -102.128906 74.3125 -99.800781 77.6875 -96.8125 C 81.070312 -93.820312 83.582031 -90.242188 85.21875 -86.078125 C 86.863281 -81.910156 87.6875 -77.351562 87.6875 -72.40625 C 87.6875 -67.257812 86.828125 -62.539062 85.109375 -58.25 C 83.398438 -53.96875 80.832031 -50.28125 77.40625 -47.1875 C 73.976562 -44.101562 69.675781 -41.703125 64.5 -39.984375 C 59.332031 -38.273438 53.296875 -37.421875 46.390625 -37.421875 L 31.609375 -37.421875 L 31.609375 0 L 11.828125 0 L 11.828125 -106.296875 Z M 46.390625 -106.296875 "/></g></g></g><g fill="#ffffff" fill-opacity="1"><g transform="translate(122.994291, 181.751599)"><g><path d="M 101.4375 -106.296875 L 101.4375 0 L 91.296875 0 C 89.722656 0 88.410156 -0.253906 87.359375 -0.765625 C 86.304688 -1.285156 85.289062 -2.15625 84.3125 -3.375 L 28.8125 -74.25 C 29.101562 -71.007812 29.25 -68.019531 29.25 -65.28125 L 29.25 0 L 11.828125 0 L 11.828125 -106.296875 L 22.203125 -106.296875 C 23.035156 -106.296875 23.753906 -106.257812 24.359375 -106.1875 C 24.972656 -106.113281 25.515625 -105.960938 25.984375 -105.734375 C 26.453125 -105.515625 26.90625 -105.195312 27.34375 -104.78125 C 27.78125 -104.363281 28.269531 -103.8125 28.8125 -103.125 L 84.53125 -31.96875 C 84.382812 -33.6875 84.257812 -35.378906 84.15625 -37.046875 C 84.0625 -38.710938 84.015625 -40.253906 84.015625 -41.671875 L 84.015625 -106.296875 Z M 101.4375 -106.296875 "/></g></g></g><g fill="#ffffff" fill-opacity="1"><g transform="translate(236.261654, 181.751599)"><g><path d="M 99.453125 -53.296875 L 99.453125 -10.296875 C 94.066406 -6.328125 88.320312 -3.421875 82.21875 -1.578125 C 76.113281 0.253906 69.582031 1.171875 62.625 1.171875 C 53.957031 1.171875 46.101562 -0.171875 39.0625 -2.859375 C 32.03125 -5.554688 26.023438 -9.304688 21.046875 -14.109375 C 16.078125 -18.910156 12.242188 -24.644531 9.546875 -31.3125 C 6.859375 -37.976562 5.515625 -45.253906 5.515625 -53.140625 C 5.515625 -61.128906 6.8125 -68.457031 9.40625 -75.125 C 12.007812 -81.789062 15.695312 -87.523438 20.46875 -92.328125 C 25.25 -97.128906 31.046875 -100.851562 37.859375 -103.5 C 44.671875 -106.144531 52.316406 -107.46875 60.796875 -107.46875 C 65.109375 -107.46875 69.132812 -107.125 72.875 -106.4375 C 76.625 -105.75 80.101562 -104.804688 83.3125 -103.609375 C 86.53125 -102.410156 89.460938 -100.953125 92.109375 -99.234375 C 94.753906 -97.515625 97.175781 -95.628906 99.375 -93.578125 L 93.71875 -84.609375 C 92.84375 -83.179688 91.691406 -82.304688 90.265625 -81.984375 C 88.847656 -81.671875 87.304688 -82.03125 85.640625 -83.0625 C 84.015625 -83.988281 82.394531 -84.914062 80.78125 -85.84375 C 79.164062 -86.78125 77.363281 -87.59375 75.375 -88.28125 C 73.394531 -88.96875 71.164062 -89.53125 68.6875 -89.96875 C 66.21875 -90.414062 63.363281 -90.640625 60.125 -90.640625 C 54.882812 -90.640625 50.144531 -89.753906 45.90625 -87.984375 C 41.664062 -86.222656 38.050781 -83.703125 35.0625 -80.421875 C 32.070312 -77.140625 29.769531 -73.191406 28.15625 -68.578125 C 26.539062 -63.972656 25.734375 -58.828125 25.734375 -53.140625 C 25.734375 -47.066406 26.601562 -41.640625 28.34375 -36.859375 C 30.082031 -32.085938 32.53125 -28.046875 35.6875 -24.734375 C 38.84375 -21.429688 42.648438 -18.90625 47.109375 -17.15625 C 51.578125 -15.414062 56.554688 -14.546875 62.046875 -14.546875 C 65.960938 -14.546875 69.460938 -14.960938 72.546875 -15.796875 C 75.640625 -16.628906 78.65625 -17.757812 81.59375 -19.1875 L 81.59375 -38.4375 L 68.21875 -38.4375 C 66.9375 -38.4375 65.941406 -38.789062 65.234375 -39.5 C 64.523438 -40.21875 64.171875 -41.09375 64.171875 -42.125 L 64.171875 -53.296875 Z M 99.453125 -53.296875 "/></g></g></g></svg>