<svg xmlns="http://www.w3.org/2000/svg" xmlns:xlink="http://www.w3.org/1999/xlink" width="500" zoomAndPan="magnify" viewBox="0 0 375 374.999991" height="500" preserveAspectRatio="xMidYMid meet" version="1.0"><defs><clipPath id="b196440686"><path d="M 242 231 L 350.8125 231 L 350.8125 350.8125 L 242 350.8125 Z M 242 231 " clip-rule="nonzero"/></clipPath><clipPath id="5d4d294abb"><path d="M 24.5625 231 L 133 231 L 133 350.8125 L 24.5625 350.8125 Z M 24.5625 231 " clip-rule="nonzero"/></clipPath><clipPath id="467d0d2ad8"><path d="M 231 24.5625 L 350.8125 24.5625 L 350.8125 145 L 231 145 Z M 231 24.5625 " clip-rule="nonzero"/></clipPath><clipPath id="5fafa6d231"><path d="M 24.5625 24.5625 L 145 24.5625 L 145 145 L 24.5625 145 Z M 24.5625 24.5625 " clip-rule="nonzero"/></clipPath></defs><g clip-path="url(#b196440686)"><path fill="#cb6ce6" d="M 339.9375 231.1875 C 333.925781 231.1875 329.0625 236.050781 329.0625 242.0625 L 329.0625 329.0625 L 253.605469 329.0625 C 247.59375 329.0625 242.730469 333.925781 242.730469 339.9375 C 242.730469 345.949219 247.59375 350.8125 253.605469 350.8125 L 339.9375 350.8125 C 345.949219 350.8125 350.8125 345.949219 350.8125 339.9375 L 350.8125 242.0625 C 350.8125 236.050781 345.949219 231.1875 339.9375 231.1875 Z M 339.9375 231.1875 " fill-opacity="1" fill-rule="nonzero"/></g><g clip-path="url(#5d4d294abb)"><path fill="#cb6ce6" d="M 35.4375 350.8125 L 121.761719 350.8125 C 127.769531 350.8125 132.636719 345.949219 132.636719 339.9375 C 132.636719 333.925781 127.769531 329.0625 121.761719 329.0625 L 46.3125 329.0625 L 46.3125 242.0625 C 46.3125 236.050781 41.441406 231.1875 35.4375 231.1875 C 29.429688 231.1875 24.5625 236.050781 24.5625 242.0625 L 24.5625 339.9375 C 24.5625 345.949219 29.429688 350.8125 35.4375 350.8125 Z M 35.4375 350.8125 " fill-opacity="1" fill-rule="nonzero"/></g><g clip-path="url(#467d0d2ad8)"><path fill="#cb6ce6" d="M 339.9375 24.5625 L 242.0625 24.5625 C 236.050781 24.5625 231.1875 29.425781 231.1875 35.4375 C 231.1875 41.449219 236.050781 46.3125 242.0625 46.3125 L 329.0625 46.3125 L 329.0625 133.3125 C 329.0625 139.324219 333.925781 144.1875 339.9375 144.1875 C 345.949219 144.1875 350.8125 139.324219 350.8125 133.3125 L 350.8125 35.4375 C 350.8125 29.425781 345.949219 24.5625 339.9375 24.5625 Z M 339.9375 24.5625 " fill-opacity="1" fill-rule="nonzero"/></g><g clip-path="url(#5fafa6d231)"><path fill="#cb6ce6" d="M 35.4375 144.1875 C 41.441406 144.1875 46.3125 139.324219 46.3125 133.3125 L 46.3125 46.3125 L 133.3125 46.3125 C 139.316406 46.3125 144.1875 41.449219 144.1875 35.4375 C 144.1875 29.425781 139.316406 24.5625 133.3125 24.5625 L 35.4375 24.5625 C 29.429688 24.5625 24.5625 29.425781 24.5625 35.4375 L 24.5625 133.3125 C 24.5625 139.324219 29.429688 144.1875 35.4375 144.1875 Z M 35.4375 144.1875 " fill-opacity="1" fill-rule="nonzero"/></g></svg>