<svg xmlns="http://www.w3.org/2000/svg" xmlns:xlink="http://www.w3.org/1999/xlink" width="500" zoomAndPan="magnify" viewBox="0 0 375 374.999991" height="500" preserveAspectRatio="xMidYMid meet" version="1.0"><defs><clipPath id="39b05b8e74"><path d="M 91.5 71.625 L 280.359375 71.625 L 280.359375 316.449219 L 91.5 316.449219 Z M 91.5 71.625 " clip-rule="nonzero"/></clipPath><clipPath id="4451a47fba"><path d="M 17.429688 17.429688 L 357.929688 17.429688 L 357.929688 357.929688 L 17.429688 357.929688 Z M 17.429688 17.429688 " clip-rule="nonzero"/></clipPath></defs><g clip-path="url(#39b05b8e74)"><path fill="#ffffff" d="M 91.5 71.625 L 280.359375 71.625 L 280.359375 316.449219 L 91.5 316.449219 Z M 91.5 71.625 " fill-opacity="1" fill-rule="nonzero"/></g><g clip-path="url(#4451a47fba)"><path fill="#00bf63" d="M 187.679688 17.429688 C 93.804688 17.429688 17.429688 93.804688 17.429688 187.679688 C 17.429688 281.554688 93.804688 357.929688 187.679688 357.929688 C 281.554688 357.929688 357.929688 281.554688 357.929688 187.679688 C 357.929688 93.804688 281.554688 17.429688 187.679688 17.429688 Z M 262.964844 199.324219 L 151.789062 284.925781 C 149.238281 286.867188 146.273438 287.820312 143.277344 287.820312 C 139.125 287.820312 134.96875 285.949219 132.210938 282.339844 C 127.480469 276.242188 128.636719 267.425781 134.765625 262.757812 L 231.605469 188.191406 L 134.699219 112.566406 C 128.636719 107.796875 127.511719 99.046875 132.28125 92.953125 C 137.046875 86.855469 145.832031 85.765625 151.894531 90.535156 L 263.03125 177.261719 C 266.4375 179.914062 268.410156 184 268.410156 188.324219 C 268.410156 192.652344 266.402344 196.703125 262.964844 199.324219 Z M 262.964844 199.324219 " fill-opacity="1" fill-rule="nonzero"/></g></svg>