<svg xmlns="http://www.w3.org/2000/svg" xmlns:xlink="http://www.w3.org/1999/xlink" width="500" zoomAndPan="magnify" viewBox="0 0 375 374.999991" height="500" preserveAspectRatio="xMidYMid meet" version="1.0"><defs><clipPath id="e97dda5574"><path d="M 0 15 L 368.25 15 L 368.25 354 L 0 354 Z M 0 15 " clip-rule="nonzero"/></clipPath></defs><g clip-path="url(#e97dda5574)"><path fill="#c1ff72" d="M 364.132812 177.777344 L 10.433594 15.664062 C 10.15625 15.535156 9.867188 15.425781 9.574219 15.335938 C 9.28125 15.242188 8.984375 15.167969 8.679688 15.113281 C 8.378906 15.058594 8.074219 15.023438 7.765625 15.007812 C 7.460938 14.992188 7.152344 14.992188 6.84375 15.015625 C 6.539062 15.035156 6.234375 15.078125 5.933594 15.136719 C 5.632812 15.199219 5.335938 15.277344 5.042969 15.375 C 4.75 15.46875 4.464844 15.585938 4.1875 15.71875 C 3.910156 15.851562 3.644531 16 3.386719 16.167969 C 3.125 16.332031 2.878906 16.515625 2.644531 16.710938 C 2.40625 16.910156 2.183594 17.121094 1.976562 17.34375 C 1.765625 17.570312 1.570312 17.808594 1.390625 18.058594 C 1.210938 18.304688 1.046875 18.566406 0.898438 18.835938 C 0.753906 19.105469 0.625 19.382812 0.511719 19.671875 C 0.398438 19.957031 0.304688 20.25 0.226562 20.546875 C 0.152344 20.84375 0.09375 21.144531 0.0585938 21.449219 C 0.0195312 21.757812 0 22.0625 0 22.371094 L 0 140.269531 C 0 141.0625 0.125 141.835938 0.371094 142.585938 C 0.621094 143.339844 0.980469 144.03125 1.453125 144.667969 C 1.925781 145.304688 2.488281 145.847656 3.136719 146.304688 C 3.785156 146.757812 4.488281 147.101562 5.246094 147.328125 L 129.101562 184.480469 L 5.304688 221.636719 C 4.542969 221.859375 3.832031 222.195312 3.175781 222.648438 C 2.523438 223.101562 1.957031 223.644531 1.476562 224.28125 C 1 224.917969 0.632812 225.613281 0.382812 226.367188 C 0.128906 227.125 0 227.898438 0 228.695312 L 0 346.59375 C 0 347.078125 0.046875 347.558594 0.140625 348.03125 C 0.234375 348.507812 0.375 348.96875 0.5625 349.414062 C 0.746094 349.863281 0.972656 350.285156 1.242188 350.6875 C 1.511719 351.089844 1.816406 351.464844 2.160156 351.804688 C 2.5 352.148438 2.871094 352.453125 3.273438 352.722656 C 3.675781 352.992188 4.101562 353.21875 4.550781 353.402344 C 4.996094 353.585938 5.457031 353.726562 5.929688 353.820312 C 6.40625 353.917969 6.886719 353.964844 7.367188 353.964844 C 8.441406 353.964844 9.464844 353.738281 10.433594 353.285156 L 364.132812 191.171875 C 364.777344 190.878906 365.367188 190.503906 365.902344 190.039062 C 366.433594 189.578125 366.894531 189.046875 367.277344 188.453125 C 367.660156 187.859375 367.949219 187.222656 368.148438 186.546875 C 368.347656 185.867188 368.449219 185.175781 368.449219 184.46875 C 368.449219 183.761719 368.347656 183.066406 368.148438 182.390625 C 367.949219 181.710938 367.660156 181.074219 367.277344 180.480469 C 366.894531 179.886719 366.433594 179.359375 365.902344 178.894531 C 365.367188 178.433594 364.777344 178.054688 364.132812 177.761719 Z M 364.132812 177.777344 " fill-opacity="1" fill-rule="nonzero"/></g></svg>