<svg xmlns="http://www.w3.org/2000/svg" xmlns:xlink="http://www.w3.org/1999/xlink" width="500" zoomAndPan="magnify"
    viewBox="0 0 375 374.999991" height="500" preserveAspectRatio="xMidYMid meet" version="1.0">
    <defs>
        <g />
        <clipPath id="c5fb71eb03">
            <path d="M 117.375 220.164062 L 257.625 220.164062 L 257.625 324 L 117.375 324 Z M 117.375 220.164062 "
                clip-rule="nonzero" />
        </clipPath>
    </defs>
    <g clip-path="url(#c5fb71eb03)">
        <path fill="#ffffff"
            d="M 151.929688 323.367188 L 175.691406 323.367188 L 175.691406 282.347656 C 175.691406 275.695312 181.089844 270.300781 187.742188 270.300781 C 194.390625 270.300781 199.789062 275.699219 199.789062 282.347656 L 199.789062 323.367188 L 223.554688 323.367188 C 242.496094 323.367188 257.871094 307.992188 257.871094 289.046875 C 257.871094 271.9375 245.292969 257.71875 228.902344 255.117188 C 225.625 235.355469 208.417969 220.21875 187.742188 220.21875 C 167.0625 220.21875 149.855469 235.355469 146.578125 255.117188 C 130.191406 257.71875 117.609375 271.9375 117.609375 289.046875 C 117.609375 307.992188 132.984375 323.367188 151.929688 323.367188 Z M 151.929688 323.367188 "
            fill-opacity="1" fill-rule="nonzero" />
    </g>
    <path fill="#ffffff"
        d="M 169.375 333.828125 C 166.582031 331.03125 162.003906 331.03125 159.160156 333.828125 C 156.363281 336.667969 156.363281 341.25 159.160156 344.042969 L 175.691406 360.578125 C 177.386719 362.023438 182.804688 368.355469 184.898438 369.0625 C 187.574219 370.160156 190.714844 369.664062 192.851562 367.519531 L 199.644531 360.722656 L 216.324219 344.042969 C 222.882812 337.214844 212.945312 327.257812 206.105469 333.828125 L 194.972656 344.960938 C 194.953125 336.316406 194.972656 282.347656 194.972656 282.347656 C 194.828125 272.878906 180.664062 272.816406 180.511719 282.347656 C 180.519531 298.433594 180.511719 344.960938 180.511719 344.960938 Z M 169.375 333.828125 "
        fill-opacity="1" fill-rule="nonzero" />
    <g fill="#ffffff" fill-opacity="1">
        <g transform="translate(42.766221, 181.751599)">
            <g>
                <path
                    d="M 68.4375 -86.953125 C 67.84375 -85.929688 67.210938 -85.1875 66.546875 -84.71875 C 65.890625 -84.25 65.070312 -84.015625 64.09375 -84.015625 C 63.070312 -84.015625 61.957031 -84.394531 60.75 -85.15625 C 59.550781 -85.914062 58.117188 -86.757812 56.453125 -87.6875 C 54.785156 -88.625 52.835938 -89.472656 50.609375 -90.234375 C 48.378906 -90.992188 45.742188 -91.375 42.703125 -91.375 C 39.960938 -91.375 37.5625 -91.039062 35.5 -90.375 C 33.445312 -89.71875 31.722656 -88.800781 30.328125 -87.625 C 28.929688 -86.445312 27.890625 -85.035156 27.203125 -83.390625 C 26.515625 -81.753906 26.171875 -79.953125 26.171875 -77.984375 C 26.171875 -75.492188 26.867188 -73.414062 28.265625 -71.75 C 29.660156 -70.082031 31.507812 -68.660156 33.8125 -67.484375 C 36.113281 -66.304688 38.734375 -65.25 41.671875 -64.3125 C 44.617188 -63.382812 47.632812 -62.394531 50.71875 -61.34375 C 53.800781 -60.289062 56.8125 -59.066406 59.75 -57.671875 C 62.695312 -56.273438 65.320312 -54.507812 67.625 -52.375 C 69.925781 -50.238281 71.773438 -47.628906 73.171875 -44.546875 C 74.566406 -41.460938 75.265625 -37.710938 75.265625 -33.296875 C 75.265625 -28.492188 74.441406 -24 72.796875 -19.8125 C 71.160156 -15.625 68.757812 -11.972656 65.59375 -8.859375 C 62.4375 -5.742188 58.578125 -3.289062 54.015625 -1.5 C 49.460938 0.28125 44.25 1.171875 38.375 1.171875 C 34.988281 1.171875 31.65625 0.835938 28.375 0.171875 C 25.09375 -0.484375 21.941406 -1.421875 18.921875 -2.640625 C 15.910156 -3.867188 13.082031 -5.335938 10.4375 -7.046875 C 7.789062 -8.765625 5.4375 -10.679688 3.375 -12.796875 L 9.1875 -22.265625 C 9.675781 -22.953125 10.3125 -23.53125 11.09375 -24 C 11.882812 -24.46875 12.71875 -24.703125 13.59375 -24.703125 C 14.820312 -24.703125 16.144531 -24.195312 17.5625 -23.1875 C 18.988281 -22.1875 20.679688 -21.070312 22.640625 -19.84375 C 24.597656 -18.625 26.890625 -17.507812 29.515625 -16.5 C 32.140625 -15.5 35.285156 -15 38.953125 -15 C 44.585938 -15 48.945312 -16.332031 52.03125 -19 C 55.125 -21.675781 56.671875 -25.507812 56.671875 -30.5 C 56.671875 -33.300781 55.972656 -35.582031 54.578125 -37.34375 C 53.179688 -39.101562 51.332031 -40.582031 49.03125 -41.78125 C 46.726562 -42.988281 44.101562 -44.007812 41.15625 -44.84375 C 38.21875 -45.675781 35.226562 -46.582031 32.1875 -47.5625 C 29.15625 -48.539062 26.164062 -49.710938 23.21875 -51.078125 C 20.28125 -52.453125 17.660156 -54.242188 15.359375 -56.453125 C 13.054688 -58.660156 11.207031 -61.414062 9.8125 -64.71875 C 8.414062 -68.03125 7.71875 -72.113281 7.71875 -76.96875 C 7.71875 -80.832031 8.488281 -84.601562 10.03125 -88.28125 C 11.570312 -91.957031 13.8125 -95.21875 16.75 -98.0625 C 19.695312 -100.90625 23.328125 -103.179688 27.640625 -104.890625 C 31.953125 -106.609375 36.898438 -107.46875 42.484375 -107.46875 C 48.753906 -107.46875 54.535156 -106.488281 59.828125 -104.53125 C 65.128906 -102.570312 69.640625 -99.828125 73.359375 -96.296875 Z M 68.4375 -86.953125 " />
            </g>
        </g>
    </g>
    <g fill="#ffffff" fill-opacity="1">
        <g transform="translate(123.398484, 181.751599)">
            <g>
                <path
                    d="M 102.90625 -106.296875 L 59.984375 0 L 42.125 0 L -0.8125 -106.296875 L 15.0625 -106.296875 C 16.78125 -106.296875 18.175781 -105.878906 19.25 -105.046875 C 20.332031 -104.210938 21.144531 -103.132812 21.6875 -101.8125 L 46.75 -36.96875 C 47.582031 -34.863281 48.378906 -32.550781 49.140625 -30.03125 C 49.898438 -27.507812 50.625 -24.875 51.3125 -22.125 C 51.894531 -24.875 52.53125 -27.507812 53.21875 -30.03125 C 53.90625 -32.550781 54.664062 -34.863281 55.5 -36.96875 L 80.421875 -101.8125 C 80.804688 -102.9375 81.570312 -103.960938 82.71875 -104.890625 C 83.875 -105.828125 85.285156 -106.296875 86.953125 -106.296875 Z M 102.90625 -106.296875 " />
            </g>
        </g>
    </g>
    <g fill="#ffffff" fill-opacity="1">
        <g transform="translate(225.493472, 181.751599)">
            <g>
                <path
                    d="M 99.453125 -53.296875 L 99.453125 -10.296875 C 94.066406 -6.328125 88.320312 -3.421875 82.21875 -1.578125 C 76.113281 0.253906 69.582031 1.171875 62.625 1.171875 C 53.957031 1.171875 46.101562 -0.171875 39.0625 -2.859375 C 32.03125 -5.554688 26.023438 -9.304688 21.046875 -14.109375 C 16.078125 -18.910156 12.242188 -24.644531 9.546875 -31.3125 C 6.859375 -37.976562 5.515625 -45.253906 5.515625 -53.140625 C 5.515625 -61.128906 6.8125 -68.457031 9.40625 -75.125 C 12.007812 -81.789062 15.695312 -87.523438 20.46875 -92.328125 C 25.25 -97.128906 31.046875 -100.851562 37.859375 -103.5 C 44.671875 -106.144531 52.316406 -107.46875 60.796875 -107.46875 C 65.109375 -107.46875 69.132812 -107.125 72.875 -106.4375 C 76.625 -105.75 80.101562 -104.804688 83.3125 -103.609375 C 86.53125 -102.410156 89.460938 -100.953125 92.109375 -99.234375 C 94.753906 -97.515625 97.175781 -95.628906 99.375 -93.578125 L 93.71875 -84.609375 C 92.84375 -83.179688 91.691406 -82.304688 90.265625 -81.984375 C 88.847656 -81.671875 87.304688 -82.03125 85.640625 -83.0625 C 84.015625 -83.988281 82.394531 -84.914062 80.78125 -85.84375 C 79.164062 -86.78125 77.363281 -87.59375 75.375 -88.28125 C 73.394531 -88.96875 71.164062 -89.53125 68.6875 -89.96875 C 66.21875 -90.414062 63.363281 -90.640625 60.125 -90.640625 C 54.882812 -90.640625 50.144531 -89.753906 45.90625 -87.984375 C 41.664062 -86.222656 38.050781 -83.703125 35.0625 -80.421875 C 32.070312 -77.140625 29.769531 -73.191406 28.15625 -68.578125 C 26.539062 -63.972656 25.734375 -58.828125 25.734375 -53.140625 C 25.734375 -47.066406 26.601562 -41.640625 28.34375 -36.859375 C 30.082031 -32.085938 32.53125 -28.046875 35.6875 -24.734375 C 38.84375 -21.429688 42.648438 -18.90625 47.109375 -17.15625 C 51.578125 -15.414062 56.554688 -14.546875 62.046875 -14.546875 C 65.960938 -14.546875 69.460938 -14.960938 72.546875 -15.796875 C 75.640625 -16.628906 78.65625 -17.757812 81.59375 -19.1875 L 81.59375 -38.4375 L 68.21875 -38.4375 C 66.9375 -38.4375 65.941406 -38.789062 65.234375 -39.5 C 64.523438 -40.21875 64.171875 -41.09375 64.171875 -42.125 L 64.171875 -53.296875 Z M 99.453125 -53.296875 " />
            </g>
        </g>
    </g>
</svg>