<svg xmlns="http://www.w3.org/2000/svg" xmlns:xlink="http://www.w3.org/1999/xlink" width="500" zoomAndPan="magnify" viewBox="0 0 375 374.999991" height="500" preserveAspectRatio="xMidYMid meet" version="1.0"><defs><clipPath id="d74f127253"><path d="M 48 0 L 327 0 L 327 283 L 48 283 Z M 48 0 " clip-rule="nonzero"/></clipPath><clipPath id="0e172daa54"><path d="M 47.578125 75 L 47.578125 300 C 47.578125 341.421875 81.15625 375 122.578125 375 L 252.421875 375 C 293.84375 375 327.421875 341.421875 327.421875 300 L 327.421875 75 C 327.421875 33.578125 293.84375 0 252.421875 0 L 122.578125 0 C 81.15625 0 47.578125 33.578125 47.578125 75 Z M 47.578125 75 " clip-rule="nonzero"/></clipPath><clipPath id="733ef81c1f"><path d="M 121 295 L 254 295 L 254 375 L 121 375 Z M 121 295 " clip-rule="nonzero"/></clipPath><clipPath id="aa56427337"><path d="M 47.578125 75 L 47.578125 300 C 47.578125 341.421875 81.15625 375 122.578125 375 L 252.421875 375 C 293.84375 375 327.421875 341.421875 327.421875 300 L 327.421875 75 C 327.421875 33.578125 293.84375 0 252.421875 0 L 122.578125 0 C 81.15625 0 47.578125 33.578125 47.578125 75 Z M 47.578125 75 " clip-rule="nonzero"/></clipPath></defs><g clip-path="url(#d74f127253)"><g clip-path="url(#0e172daa54)"><path fill="#a6a6a6" d="M 187.261719 0.0585938 C 120.519531 1.710938 48.6875 45.523438 48.6875 137.835938 C 48.6875 190.152344 79.765625 221.261719 102.460938 243.976562 C 114.335938 255.859375 124.589844 266.125 125.339844 274.386719 L 126.128906 282.992188 L 248.875 282.992188 L 249.664062 274.386719 C 250.417969 266.117188 260.667969 255.851562 272.542969 243.976562 C 295.238281 221.257812 326.320312 190.152344 326.320312 137.835938 C 326.3125 45.523438 254.46875 1.703125 187.261719 0.0585938 Z M 259.148438 230.585938 C 247.511719 242.234375 237.160156 252.601562 232.828125 264.058594 L 142.171875 264.058594 C 137.839844 252.605469 127.488281 242.234375 115.851562 230.585938 C 94.367188 209.085938 67.621094 182.316406 67.621094 137.835938 C 67.621094 57.785156 127.949219 20.46875 187.265625 18.996094 C 247.050781 20.46875 307.367188 57.789062 307.367188 137.835938 C 307.375 182.316406 280.632812 209.085938 259.148438 230.585938 Z M 259.148438 230.585938 " fill-opacity="1" fill-rule="nonzero"/></g></g><g clip-path="url(#733ef81c1f)"><g clip-path="url(#aa56427337)"><path fill="#a6a6a6" d="M 121.210938 305.195312 C 121.210938 343.660156 150.945312 374.949219 187.5 374.949219 C 224.054688 374.949219 253.789062 343.65625 253.789062 305.195312 L 253.789062 295.726562 L 121.210938 295.726562 Z M 234.019531 314.664062 C 229.878906 338.175781 210.59375 356.011719 187.5 356.011719 C 164.40625 356.011719 145.121094 338.175781 140.980469 314.664062 Z M 234.019531 314.664062 " fill-opacity="1" fill-rule="nonzero"/></g></g></svg>