<?xml version="1.0" standalone="no"?>
<svg xmlns:xlink="http://www.w3.org/1999/xlink" aria-roledescription="timeline" role="graphics-document document" viewBox="0 -61 2990 534.7999877929688" style="max-width: 2990px; transition: transform 0.3s ease-out; transform: scale(1) translate(0px, 0px);" xmlns="http://www.w3.org/2000/svg" width="100%" id="graphDiv"><style>#graphDiv{font-family:"trebuchet ms",verdana,arial,sans-serif;font-size:16px;fill:#333;}#graphDiv .error-icon{fill:hsl(220.5882352941, 100%, 98.3333333333%);}#graphDiv .error-text{fill:rgb(8.5000000002, 5.7500000001, 0);stroke:rgb(8.5000000002, 5.7500000001, 0);}#graphDiv .edge-thickness-normal{stroke-width:2px;}#graphDiv .edge-thickness-thick{stroke-width:3.5px;}#graphDiv .edge-pattern-solid{stroke-dasharray:0;}#graphDiv .edge-pattern-dashed{stroke-dasharray:3;}#graphDiv .edge-pattern-dotted{stroke-dasharray:2;}#graphDiv .marker{fill:#0b0b0b;stroke:#0b0b0b;}#graphDiv .marker.cross{stroke:#0b0b0b;}#graphDiv svg{font-family:"trebuchet ms",verdana,arial,sans-serif;font-size:16px;}#graphDiv .edge{stroke-width:3;}#graphDiv .section--1 rect,#graphDiv .section--1 path,#graphDiv .section--1 circle,#graphDiv .section--1 path{fill:hsl(40.5882352941, 100%, 68.3333333333%);}#graphDiv .section--1 text{fill:#333;}#graphDiv .node-icon--1{font-size:40px;color:#333;}#graphDiv .section-edge--1{stroke:hsl(40.5882352941, 100%, 68.3333333333%);}#graphDiv .edge-depth--1{stroke-width:17;}#graphDiv .section--1 line{stroke:rgb(0, 52.2500000001, 161.5000000002);stroke-width:3;}#graphDiv .lineWrapper line{stroke:#333;}#graphDiv .disabled,#graphDiv .disabled circle,#graphDiv .disabled text{fill:lightgray;}#graphDiv .disabled text{fill:#efefef;}#graphDiv .section-0 rect,#graphDiv .section-0 path,#graphDiv .section-0 circle,#graphDiv .section-0 path{fill:hsl(-79.4117647059, 100%, 68.3333333333%);}#graphDiv .section-0 text{fill:#333;}#graphDiv .node-icon-0{font-size:40px;color:#333;}#graphDiv .section-edge-0{stroke:hsl(-79.4117647059, 100%, 68.3333333333%);}#graphDiv .edge-depth-0{stroke-width:14;}#graphDiv .section-0 line{stroke:rgb(52.2500000001, 161.5000000002, 0);stroke-width:3;}#graphDiv .lineWrapper line{stroke:#333;}#graphDiv .disabled,#graphDiv .disabled circle,#graphDiv .disabled text{fill:lightgray;}#graphDiv .disabled text{fill:#efefef;}#graphDiv .section-1 rect,#graphDiv .section-1 path,#graphDiv .section-1 circle,#graphDiv .section-1 path{fill:hsl(220.5882352941, 100%, 73.3333333333%);}#graphDiv .section-1 text{fill:#333;}#graphDiv .node-icon-1{font-size:40px;color:#333;}#graphDiv .section-edge-1{stroke:hsl(220.5882352941, 100%, 73.3333333333%);}#graphDiv .edge-depth-1{stroke-width:11;}#graphDiv .section-1 line{stroke:rgb(136.0000000002, 92.0000000001, 0);stroke-width:3;}#graphDiv .lineWrapper line{stroke:#333;}#graphDiv .disabled,#graphDiv .disabled circle,#graphDiv .disabled text{fill:lightgray;}#graphDiv .disabled text{fill:#efefef;}#graphDiv .section-2 rect,#graphDiv .section-2 path,#graphDiv .section-2 circle,#graphDiv .section-2 path{fill:hsl(70.5882352941, 100%, 68.3333333333%);}#graphDiv .section-2 text{fill:#333;}#graphDiv .node-icon-2{font-size:40px;color:#333;}#graphDiv .section-edge-2{stroke:hsl(70.5882352941, 100%, 68.3333333333%);}#graphDiv .edge-depth-2{stroke-width:8;}#graphDiv .section-2 line{stroke:rgb(28.5, 0, 161.5000000002);stroke-width:3;}#graphDiv .lineWrapper line{stroke:#333;}#graphDiv .disabled,#graphDiv .disabled circle,#graphDiv .disabled text{fill:lightgray;}#graphDiv .disabled text{fill:#efefef;}#graphDiv .section-3 rect,#graphDiv .section-3 path,#graphDiv .section-3 circle,#graphDiv .section-3 path{fill:hsl(100.5882352941, 100%, 68.3333333333%);}#graphDiv .section-3 text{fill:#333;}#graphDiv .node-icon-3{font-size:40px;color:#333;}#graphDiv .section-edge-3{stroke:hsl(100.5882352941, 100%, 68.3333333333%);}#graphDiv .edge-depth-3{stroke-width:5;}#graphDiv .section-3 line{stroke:rgb(109.2500000001, 0, 161.5000000002);stroke-width:3;}#graphDiv .lineWrapper line{stroke:#333;}#graphDiv .disabled,#graphDiv .disabled circle,#graphDiv .disabled text{fill:lightgray;}#graphDiv .disabled text{fill:#efefef;}#graphDiv .section-4 rect,#graphDiv .section-4 path,#graphDiv .section-4 circle,#graphDiv .section-4 path{fill:hsl(130.5882352941, 100%, 68.3333333333%);}#graphDiv .section-4 text{fill:#333;}#graphDiv .node-icon-4{font-size:40px;color:#333;}#graphDiv .section-edge-4{stroke:hsl(130.5882352941, 100%, 68.3333333333%);}#graphDiv .edge-depth-4{stroke-width:2;}#graphDiv .section-4 line{stroke:rgb(161.5000000002, 0, 133.0000000002);stroke-width:3;}#graphDiv .lineWrapper line{stroke:#333;}#graphDiv .disabled,#graphDiv .disabled circle,#graphDiv .disabled text{fill:lightgray;}#graphDiv .disabled text{fill:#efefef;}#graphDiv .section-5 rect,#graphDiv .section-5 path,#graphDiv .section-5 circle,#graphDiv .section-5 path{fill:hsl(160.5882352941, 100%, 68.3333333333%);}#graphDiv .section-5 text{fill:#333;}#graphDiv .node-icon-5{font-size:40px;color:#333;}#graphDiv .section-edge-5{stroke:hsl(160.5882352941, 100%, 68.3333333333%);}#graphDiv .edge-depth-5{stroke-width:-1;}#graphDiv .section-5 line{stroke:rgb(161.5000000002, 0, 52.2500000001);stroke-width:3;}#graphDiv .lineWrapper line{stroke:#333;}#graphDiv .disabled,#graphDiv .disabled circle,#graphDiv .disabled text{fill:lightgray;}#graphDiv .disabled text{fill:#efefef;}#graphDiv .section-6 rect,#graphDiv .section-6 path,#graphDiv .section-6 circle,#graphDiv .section-6 path{fill:hsl(190.5882352941, 100%, 68.3333333333%);}#graphDiv .section-6 text{fill:#333;}#graphDiv .node-icon-6{font-size:40px;color:#333;}#graphDiv .section-edge-6{stroke:hsl(190.5882352941, 100%, 68.3333333333%);}#graphDiv .edge-depth-6{stroke-width:-4;}#graphDiv .section-6 line{stroke:rgb(161.5000000002, 28.5, 0);stroke-width:3;}#graphDiv .lineWrapper line{stroke:#333;}#graphDiv .disabled,#graphDiv .disabled circle,#graphDiv .disabled text{fill:lightgray;}#graphDiv .disabled text{fill:#efefef;}#graphDiv .section-7 rect,#graphDiv .section-7 path,#graphDiv .section-7 circle,#graphDiv .section-7 path{fill:hsl(250.5882352941, 100%, 75%);}#graphDiv .section-7 text{fill:#333;}#graphDiv .node-icon-7{font-size:40px;color:#333;}#graphDiv .section-edge-7{stroke:hsl(250.5882352941, 100%, 75%);}#graphDiv .edge-depth-7{stroke-width:-7;}#graphDiv .section-7 line{stroke:rgb(105, 127.5, 0);stroke-width:3;}#graphDiv .lineWrapper line{stroke:#333;}#graphDiv .disabled,#graphDiv .disabled circle,#graphDiv .disabled text{fill:lightgray;}#graphDiv .disabled text{fill:#efefef;}#graphDiv .section-8 rect,#graphDiv .section-8 path,#graphDiv .section-8 circle,#graphDiv .section-8 path{fill:hsl(310.5882352941, 100%, 68.3333333333%);}#graphDiv .section-8 text{fill:#333;}#graphDiv .node-icon-8{font-size:40px;color:#333;}#graphDiv .section-edge-8{stroke:hsl(310.5882352941, 100%, 68.3333333333%);}#graphDiv .edge-depth-8{stroke-width:-10;}#graphDiv .section-8 line{stroke:rgb(0, 161.5000000002, 28.5);stroke-width:3;}#graphDiv .lineWrapper line{stroke:#333;}#graphDiv .disabled,#graphDiv .disabled circle,#graphDiv .disabled text{fill:lightgray;}#graphDiv .disabled text{fill:#efefef;}#graphDiv .section-9 rect,#graphDiv .section-9 path,#graphDiv .section-9 circle,#graphDiv .section-9 path{fill:hsl(340.5882352941, 100%, 68.3333333333%);}#graphDiv .section-9 text{fill:#333;}#graphDiv .node-icon-9{font-size:40px;color:#333;}#graphDiv .section-edge-9{stroke:hsl(340.5882352941, 100%, 68.3333333333%);}#graphDiv .edge-depth-9{stroke-width:-13;}#graphDiv .section-9 line{stroke:rgb(0, 161.5000000002, 109.2500000001);stroke-width:3;}#graphDiv .lineWrapper line{stroke:#333;}#graphDiv .disabled,#graphDiv .disabled circle,#graphDiv .disabled text{fill:lightgray;}#graphDiv .disabled text{fill:#efefef;}#graphDiv .section-10 rect,#graphDiv .section-10 path,#graphDiv .section-10 circle,#graphDiv .section-10 path{fill:hsl(10.5882352941, 100%, 68.3333333333%);}#graphDiv .section-10 text{fill:#333;}#graphDiv .node-icon-10{font-size:40px;color:#333;}#graphDiv .section-edge-10{stroke:hsl(10.5882352941, 100%, 68.3333333333%);}#graphDiv .edge-depth-10{stroke-width:-16;}#graphDiv .section-10 line{stroke:rgb(0, 133.0000000002, 161.5000000002);stroke-width:3;}#graphDiv .lineWrapper line{stroke:#333;}#graphDiv .disabled,#graphDiv .disabled circle,#graphDiv .disabled text{fill:lightgray;}#graphDiv .disabled text{fill:#efefef;}#graphDiv .section-root rect,#graphDiv .section-root path,#graphDiv .section-root circle{fill:hsl(40.5882352941, 100%, 68.3333333333%);}#graphDiv .section-root text{fill:#333;}#graphDiv .icon-container{height:100%;display:flex;justify-content:center;align-items:center;}#graphDiv .edge{fill:none;}#graphDiv .eventWrapper{filter:brightness(120%);}#graphDiv :root{--mermaid-font-family:"trebuchet ms",verdana,arial,sans-serif;}</style><g/><g/><defs><marker orient="auto" markerHeight="4" markerWidth="6" refY="2" refX="5" id="arrowhead"><path d="M 0,0 V 4 L6,2 Z"/></marker></defs><g transform="translate(100, 50)" class="taskWrapper"><g class="timeline-node section--1"><g><path d="M0 62.8 v-57.8 q0,-5 5,-5 h180 q5,0 5,5 v62.8 H0 Z" class="node-bkg node-undefined" id="node-undefined"/><line y2="67.8" x2="190" y1="67.8" x1="0" class="node-line--1"/></g><g transform="translate(95, 10)"><text text-anchor="middle" dominant-baseline="middle" alignment-baseline="middle" dy="1em"><tspan dy="1em" x="0">1822</tspan></text></g></g></g><g class="lineWrapper"><line stroke-dasharray="5,5" marker-end="url(#arrowhead)" stroke="black" stroke-width="2" y2="423.79999389648435" x2="195" y1="117.8" x1="195"/></g><g transform="translate(100, 250)" class="eventWrapper"><g class="timeline-node section--1"><g><path d="M0 77.99999694824218 v-72.99999694824218 q0,-5 5,-5 h180 q5,0 5,5 v77.99999694824218 H0 Z" class="node-bkg node-undefined" id="id_dah5sve97"/><line y2="82.99999694824218" x2="190" y1="82.99999694824218" x1="0" class="node-line--1"/></g><g transform="translate(95, 10)"><text text-anchor="middle" dominant-baseline="middle" alignment-baseline="middle" dy="1em"><tspan dy="1em" x="0">Charles   Babbage</tspan><tspan dy="1.1em" x="0">designs   the</tspan><tspan dy="1.1em" x="0">Difference   Engine</tspan></text></g></g></g><g transform="translate(300, 50)" class="taskWrapper"><g class="timeline-node section-0"><g><path d="M0 62.8 v-57.8 q0,-5 5,-5 h180 q5,0 5,5 v62.8 H0 Z" class="node-bkg node-undefined" id="id_jg40m83ja"/><line y2="67.8" x2="190" y1="67.8" x1="0" class="node-line-0"/></g><g transform="translate(95, 10)"><text text-anchor="middle" dominant-baseline="middle" alignment-baseline="middle" dy="1em"><tspan dy="1em" x="0">1936</tspan></text></g></g></g><g class="lineWrapper"><line stroke-dasharray="5,5" marker-end="url(#arrowhead)" stroke="black" stroke-width="2" y2="423.79999389648435" x2="395" y1="117.8" x1="395"/></g><g transform="translate(300, 250)" class="eventWrapper"><g class="timeline-node section-0"><g><path d="M0 77.99999694824218 v-72.99999694824218 q0,-5 5,-5 h180 q5,0 5,5 v77.99999694824218 H0 Z" class="node-bkg node-undefined" id="id_wuxwdy0x6"/><line y2="82.99999694824218" x2="190" y1="82.99999694824218" x1="0" class="node-line-0"/></g><g transform="translate(95, 10)"><text text-anchor="middle" dominant-baseline="middle" alignment-baseline="middle" dy="1em"><tspan dy="1em" x="0">Alan   Turing</tspan><tspan dy="1.1em" x="0">conceptualizes   the</tspan><tspan dy="1.1em" x="0">Turing   Machine</tspan></text></g></g></g><g transform="translate(500, 50)" class="taskWrapper"><g class="timeline-node section-1"><g><path d="M0 62.8 v-57.8 q0,-5 5,-5 h180 q5,0 5,5 v62.8 H0 Z" class="node-bkg node-undefined" id="id_w0shkg8ys"/><line y2="67.8" x2="190" y1="67.8" x1="0" class="node-line-1"/></g><g transform="translate(95, 10)"><text text-anchor="middle" dominant-baseline="middle" alignment-baseline="middle" dy="1em"><tspan dy="1em" x="0">1937</tspan></text></g></g></g><g class="lineWrapper"><line stroke-dasharray="5,5" marker-end="url(#arrowhead)" stroke="black" stroke-width="2" y2="423.79999389648435" x2="595" y1="117.8" x1="595"/></g><g transform="translate(500, 250)" class="eventWrapper"><g class="timeline-node section-1"><g><path d="M0 113.19999389648437 v-108.19999389648437 q0,-5 5,-5 h180 q5,0 5,5 v113.19999389648437 H0 Z" class="node-bkg node-undefined" id="id_ulalk3yws"/><line y2="118.19999389648437" x2="190" y1="118.19999389648437" x1="0" class="node-line-1"/></g><g transform="translate(95, 10)"><text text-anchor="middle" dominant-baseline="middle" alignment-baseline="middle" dy="1em"><tspan dy="1em" x="0">John   Atanasoff   and</tspan><tspan dy="1.1em" x="0">Clifford   Berry</tspan><tspan dy="1.1em" x="0">develop   the</tspan><tspan dy="1.1em" x="0">Atanasoff-Berry</tspan><tspan dy="1.1em" x="0">Computer   (ABC)</tspan></text></g></g></g><g transform="translate(700, 50)" class="taskWrapper"><g class="timeline-node section-2"><g><path d="M0 62.8 v-57.8 q0,-5 5,-5 h180 q5,0 5,5 v62.8 H0 Z" class="node-bkg node-undefined" id="id_t282vxmzl"/><line y2="67.8" x2="190" y1="67.8" x1="0" class="node-line-2"/></g><g transform="translate(95, 10)"><text text-anchor="middle" dominant-baseline="middle" alignment-baseline="middle" dy="1em"><tspan dy="1em" x="0">1943</tspan></text></g></g></g><g class="lineWrapper"><line stroke-dasharray="5,5" marker-end="url(#arrowhead)" stroke="black" stroke-width="2" y2="423.79999389648435" x2="795" y1="117.8" x1="795"/></g><g transform="translate(700, 250)" class="eventWrapper"><g class="timeline-node section-2"><g><path d="M0 113.19999389648437 v-108.19999389648437 q0,-5 5,-5 h180 q5,0 5,5 v113.19999389648437 H0 Z" class="node-bkg node-undefined" id="id_cv8s72zh0"/><line y2="118.19999389648437" x2="190" y1="118.19999389648437" x1="0" class="node-line-2"/></g><g transform="translate(95, 10)"><text text-anchor="middle" dominant-baseline="middle" alignment-baseline="middle" dy="1em"><tspan dy="1em" x="0">Construction   of</tspan><tspan dy="1.1em" x="0">Colossus,   the   first</tspan><tspan dy="1.1em" x="0">programmable</tspan><tspan dy="1.1em" x="0">digital   computer,</tspan><tspan dy="1.1em" x="0">begins</tspan></text></g></g></g><g transform="translate(900, 50)" class="taskWrapper"><g class="timeline-node section-3"><g><path d="M0 62.8 v-57.8 q0,-5 5,-5 h180 q5,0 5,5 v62.8 H0 Z" class="node-bkg node-undefined" id="id_uhk8ljvro"/><line y2="67.8" x2="190" y1="67.8" x1="0" class="node-line-3"/></g><g transform="translate(95, 10)"><text text-anchor="middle" dominant-baseline="middle" alignment-baseline="middle" dy="1em"><tspan dy="1em" x="0">1946</tspan></text></g></g></g><g class="lineWrapper"><line stroke-dasharray="5,5" marker-end="url(#arrowhead)" stroke="black" stroke-width="2" y2="423.79999389648435" x2="995" y1="117.8" x1="995"/></g><g transform="translate(900, 250)" class="eventWrapper"><g class="timeline-node section-3"><g><path d="M0 113.19999389648437 v-108.19999389648437 q0,-5 5,-5 h180 q5,0 5,5 v113.19999389648437 H0 Z" class="node-bkg node-undefined" id="id_qk2o64yiu"/><line y2="118.19999389648437" x2="190" y1="118.19999389648437" x1="0" class="node-line-3"/></g><g transform="translate(95, 10)"><text text-anchor="middle" dominant-baseline="middle" alignment-baseline="middle" dy="1em"><tspan dy="1em" x="0">ENIAC,   the   first</tspan><tspan dy="1.1em" x="0">general-purpose</tspan><tspan dy="1.1em" x="0">electronic   digital</tspan><tspan dy="1.1em" x="0">computer,   is</tspan><tspan dy="1.1em" x="0">completed</tspan></text></g></g></g><g transform="translate(1100, 50)" class="taskWrapper"><g class="timeline-node section-4"><g><path d="M0 62.8 v-57.8 q0,-5 5,-5 h180 q5,0 5,5 v62.8 H0 Z" class="node-bkg node-undefined" id="id_w558bz0pa"/><line y2="67.8" x2="190" y1="67.8" x1="0" class="node-line-4"/></g><g transform="translate(95, 10)"><text text-anchor="middle" dominant-baseline="middle" alignment-baseline="middle" dy="1em"><tspan dy="1em" x="0">1951</tspan></text></g></g></g><g class="lineWrapper"><line stroke-dasharray="5,5" marker-end="url(#arrowhead)" stroke="black" stroke-width="2" y2="423.79999389648435" x2="1195" y1="117.8" x1="1195"/></g><g transform="translate(1100, 250)" class="eventWrapper"><g class="timeline-node section-4"><g><path d="M0 95.59999542236328 v-90.59999542236328 q0,-5 5,-5 h180 q5,0 5,5 v95.59999542236328 H0 Z" class="node-bkg node-undefined" id="id_05fclnto6"/><line y2="100.59999542236328" x2="190" y1="100.59999542236328" x1="0" class="node-line-4"/></g><g transform="translate(95, 10)"><text text-anchor="middle" dominant-baseline="middle" alignment-baseline="middle" dy="1em"><tspan dy="1em" x="0">UNIVAC   I,   the   first</tspan><tspan dy="1.1em" x="0">commercially</tspan><tspan dy="1.1em" x="0">available   computer,</tspan><tspan dy="1.1em" x="0">is   introduced</tspan></text></g></g></g><g transform="translate(1300, 50)" class="taskWrapper"><g class="timeline-node section-5"><g><path d="M0 62.8 v-57.8 q0,-5 5,-5 h180 q5,0 5,5 v62.8 H0 Z" class="node-bkg node-undefined" id="id_a333gjyxu"/><line y2="67.8" x2="190" y1="67.8" x1="0" class="node-line-5"/></g><g transform="translate(95, 10)"><text text-anchor="middle" dominant-baseline="middle" alignment-baseline="middle" dy="1em"><tspan dy="1em" x="0">1953</tspan></text></g></g></g><g class="lineWrapper"><line stroke-dasharray="5,5" marker-end="url(#arrowhead)" stroke="black" stroke-width="2" y2="423.79999389648435" x2="1395" y1="117.8" x1="1395"/></g><g transform="translate(1300, 250)" class="eventWrapper"><g class="timeline-node section-5"><g><path d="M0 95.59999542236328 v-90.59999542236328 q0,-5 5,-5 h180 q5,0 5,5 v95.59999542236328 H0 Z" class="node-bkg node-undefined" id="id_d80002l1w"/><line y2="100.59999542236328" x2="190" y1="100.59999542236328" x1="0" class="node-line-5"/></g><g transform="translate(95, 10)"><text text-anchor="middle" dominant-baseline="middle" alignment-baseline="middle" dy="1em"><tspan dy="1em" x="0">IBM   releases   the   IBM</tspan><tspan dy="1.1em" x="0">701,   its   first</tspan><tspan dy="1.1em" x="0">commercial</tspan><tspan dy="1.1em" x="0">scientific   computer</tspan></text></g></g></g><g transform="translate(1500, 50)" class="taskWrapper"><g class="timeline-node section-6"><g><path d="M0 62.8 v-57.8 q0,-5 5,-5 h180 q5,0 5,5 v62.8 H0 Z" class="node-bkg node-undefined" id="id_1ae3mi0dd"/><line y2="67.8" x2="190" y1="67.8" x1="0" class="node-line-6"/></g><g transform="translate(95, 10)"><text text-anchor="middle" dominant-baseline="middle" alignment-baseline="middle" dy="1em"><tspan dy="1em" x="0">1964</tspan></text></g></g></g><g class="lineWrapper"><line stroke-dasharray="5,5" marker-end="url(#arrowhead)" stroke="black" stroke-width="2" y2="423.79999389648435" x2="1595" y1="117.8" x1="1595"/></g><g transform="translate(1500, 250)" class="eventWrapper"><g class="timeline-node section-6"><g><path d="M0 95.59999542236328 v-90.59999542236328 q0,-5 5,-5 h180 q5,0 5,5 v95.59999542236328 H0 Z" class="node-bkg node-undefined" id="id_9ywamgnn5"/><line y2="100.59999542236328" x2="190" y1="100.59999542236328" x1="0" class="node-line-6"/></g><g transform="translate(95, 10)"><text text-anchor="middle" dominant-baseline="middle" alignment-baseline="middle" dy="1em"><tspan dy="1em" x="0">Douglas   Engelbart</tspan><tspan dy="1.1em" x="0">demonstrates   the</tspan><tspan dy="1.1em" x="0">first   computer</tspan><tspan dy="1.1em" x="0">mouse</tspan></text></g></g></g><g transform="translate(1700, 50)" class="taskWrapper"><g class="timeline-node section-7"><g><path d="M0 62.8 v-57.8 q0,-5 5,-5 h180 q5,0 5,5 v62.8 H0 Z" class="node-bkg node-undefined" id="id_uy3ftji07"/><line y2="67.8" x2="190" y1="67.8" x1="0" class="node-line-7"/></g><g transform="translate(95, 10)"><text text-anchor="middle" dominant-baseline="middle" alignment-baseline="middle" dy="1em"><tspan dy="1em" x="0">1971</tspan></text></g></g></g><g class="lineWrapper"><line stroke-dasharray="5,5" marker-end="url(#arrowhead)" stroke="black" stroke-width="2" y2="423.79999389648435" x2="1795" y1="117.8" x1="1795"/></g><g transform="translate(1700, 250)" class="eventWrapper"><g class="timeline-node section-7"><g><path d="M0 77.99999694824218 v-72.99999694824218 q0,-5 5,-5 h180 q5,0 5,5 v77.99999694824218 H0 Z" class="node-bkg node-undefined" id="id_nzg4rit2y"/><line y2="82.99999694824218" x2="190" y1="82.99999694824218" x1="0" class="node-line-7"/></g><g transform="translate(95, 10)"><text text-anchor="middle" dominant-baseline="middle" alignment-baseline="middle" dy="1em"><tspan dy="1em" x="0">Intel   releases   the</tspan><tspan dy="1.1em" x="0">4004,   the   first</tspan><tspan dy="1.1em" x="0">microprocessor</tspan></text></g></g></g><g transform="translate(1900, 50)" class="taskWrapper"><g class="timeline-node section-8"><g><path d="M0 62.8 v-57.8 q0,-5 5,-5 h180 q5,0 5,5 v62.8 H0 Z" class="node-bkg node-undefined" id="id_h40jgi837"/><line y2="67.8" x2="190" y1="67.8" x1="0" class="node-line-8"/></g><g transform="translate(95, 10)"><text text-anchor="middle" dominant-baseline="middle" alignment-baseline="middle" dy="1em"><tspan dy="1em" x="0">1975</tspan></text></g></g></g><g class="lineWrapper"><line stroke-dasharray="5,5" marker-end="url(#arrowhead)" stroke="black" stroke-width="2" y2="423.79999389648435" x2="1995" y1="117.8" x1="1995"/></g><g transform="translate(1900, 250)" class="eventWrapper"><g class="timeline-node section-8"><g><path d="M0 77.99999694824218 v-72.99999694824218 q0,-5 5,-5 h180 q5,0 5,5 v77.99999694824218 H0 Z" class="node-bkg node-undefined" id="id_cyexolxvz"/><line y2="82.99999694824218" x2="190" y1="82.99999694824218" x1="0" class="node-line-8"/></g><g transform="translate(95, 10)"><text text-anchor="middle" dominant-baseline="middle" alignment-baseline="middle" dy="1em"><tspan dy="1em" x="0">MITS   Altair   8800</tspan><tspan dy="1.1em" x="0">sparks   the   home</tspan><tspan dy="1.1em" x="0">computer   revolution</tspan></text></g></g></g><g transform="translate(2100, 50)" class="taskWrapper"><g class="timeline-node section-9"><g><path d="M0 62.8 v-57.8 q0,-5 5,-5 h180 q5,0 5,5 v62.8 H0 Z" class="node-bkg node-undefined" id="id_adtlplvow"/><line y2="67.8" x2="190" y1="67.8" x1="0" class="node-line-9"/></g><g transform="translate(95, 10)"><text text-anchor="middle" dominant-baseline="middle" alignment-baseline="middle" dy="1em"><tspan dy="1em" x="0">1981</tspan></text></g></g></g><g class="lineWrapper"><line stroke-dasharray="5,5" marker-end="url(#arrowhead)" stroke="black" stroke-width="2" y2="423.79999389648435" x2="2195" y1="117.8" x1="2195"/></g><g transform="translate(2100, 250)" class="eventWrapper"><g class="timeline-node section-9"><g><path d="M0 60.39999847412109 v-55.39999847412109 q0,-5 5,-5 h180 q5,0 5,5 v60.39999847412109 H0 Z" class="node-bkg node-undefined" id="id_1o98avdq6"/><line y2="65.39999847412109" x2="190" y1="65.39999847412109" x1="0" class="node-line-9"/></g><g transform="translate(95, 10)"><text text-anchor="middle" dominant-baseline="middle" alignment-baseline="middle" dy="1em"><tspan dy="1em" x="0">IBM   releases   the   IBM</tspan><tspan dy="1.1em" x="0">PC</tspan></text></g></g></g><g transform="translate(2300, 50)" class="taskWrapper"><g class="timeline-node section-10"><g><path d="M0 62.8 v-57.8 q0,-5 5,-5 h180 q5,0 5,5 v62.8 H0 Z" class="node-bkg node-undefined" id="id_upcbtv2az"/><line y2="67.8" x2="190" y1="67.8" x1="0" class="node-line-10"/></g><g transform="translate(95, 10)"><text text-anchor="middle" dominant-baseline="middle" alignment-baseline="middle" dy="1em"><tspan dy="1em" x="0">1984</tspan></text></g></g></g><g class="lineWrapper"><line stroke-dasharray="5,5" marker-end="url(#arrowhead)" stroke="black" stroke-width="2" y2="423.79999389648435" x2="2395" y1="117.8" x1="2395"/></g><g transform="translate(2300, 250)" class="eventWrapper"><g class="timeline-node section-10"><g><path d="M0 95.59999542236328 v-90.59999542236328 q0,-5 5,-5 h180 q5,0 5,5 v95.59999542236328 H0 Z" class="node-bkg node-undefined" id="id_1d3ty5yck"/><line y2="100.59999542236328" x2="190" y1="100.59999542236328" x1="0" class="node-line-10"/></g><g transform="translate(95, 10)"><text text-anchor="middle" dominant-baseline="middle" alignment-baseline="middle" dy="1em"><tspan dy="1em" x="0">Apple   releases   the</tspan><tspan dy="1.1em" x="0">Macintosh   with   a</tspan><tspan dy="1.1em" x="0">graphical   user</tspan><tspan dy="1.1em" x="0">interface</tspan></text></g></g></g><g transform="translate(2500, 50)" class="taskWrapper"><g class="timeline-node section--1"><g><path d="M0 62.8 v-57.8 q0,-5 5,-5 h180 q5,0 5,5 v62.8 H0 Z" class="node-bkg node-undefined" id="id_g1fnkuxsm"/><line y2="67.8" x2="190" y1="67.8" x1="0" class="node-line--1"/></g><g transform="translate(95, 10)"><text text-anchor="middle" dominant-baseline="middle" alignment-baseline="middle" dy="1em"><tspan dy="1em" x="0">1991</tspan></text></g></g></g><g class="lineWrapper"><line stroke-dasharray="5,5" marker-end="url(#arrowhead)" stroke="black" stroke-width="2" y2="423.79999389648435" x2="2595" y1="117.8" x1="2595"/></g><g transform="translate(2500, 250)" class="eventWrapper"><g class="timeline-node section--1"><g><path d="M0 77.99999694824218 v-72.99999694824218 q0,-5 5,-5 h180 q5,0 5,5 v77.99999694824218 H0 Z" class="node-bkg node-undefined" id="id_a45vr6lqy"/><line y2="82.99999694824218" x2="190" y1="82.99999694824218" x1="0" class="node-line--1"/></g><g transform="translate(95, 10)"><text text-anchor="middle" dominant-baseline="middle" alignment-baseline="middle" dy="1em"><tspan dy="1em" x="0">Tim   Berners-Lee</tspan><tspan dy="1.1em" x="0">invents   the   World</tspan><tspan dy="1.1em" x="0">Wide   Web</tspan></text></g></g></g><g transform="translate(2700, 50)" class="taskWrapper"><g class="timeline-node section-0"><g><path d="M0 62.8 v-57.8 q0,-5 5,-5 h180 q5,0 5,5 v62.8 H0 Z" class="node-bkg node-undefined" id="id_j2mfe8o7q"/><line y2="67.8" x2="190" y1="67.8" x1="0" class="node-line-0"/></g><g transform="translate(95, 10)"><text text-anchor="middle" dominant-baseline="middle" alignment-baseline="middle" dy="1em"><tspan dy="1em" x="0">2007</tspan></text></g></g></g><g class="lineWrapper"><line stroke-dasharray="5,5" marker-end="url(#arrowhead)" stroke="black" stroke-width="2" y2="423.79999389648435" x2="2795" y1="117.8" x1="2795"/></g><g transform="translate(2700, 250)" class="eventWrapper"><g class="timeline-node section-0"><g><path d="M0 95.59999542236328 v-90.59999542236328 q0,-5 5,-5 h180 q5,0 5,5 v95.59999542236328 H0 Z" class="node-bkg node-undefined" id="id_ms3dmpi9e"/><line y2="100.59999542236328" x2="190" y1="100.59999542236328" x1="0" class="node-line-0"/></g><g transform="translate(95, 10)"><text text-anchor="middle" dominant-baseline="middle" alignment-baseline="middle" dy="1em"><tspan dy="1em" x="0">Apple   releases   the</tspan><tspan dy="1.1em" x="0">iPhone,</tspan><tspan dy="1.1em" x="0">revolutionizing</tspan><tspan dy="1.1em" x="0">mobile   computing</tspan></text></g></g></g><text y="20" font-weight="bold" font-size="4ex" x="1345">How Computers Were Invented</text><g class="lineWrapper"><line marker-end="url(#arrowhead)" stroke="black" stroke-width="4" y2="167.8" x2="2940" y1="167.8" x1="50"/></g></svg>